<?xml version="1.0" standalone="no"?>
<!DOCTYPE svg PUBLIC "-//W3C//DTD SVG 20010904//EN"
 "http://www.w3.org/TR/2001/REC-SVG-20010904/DTD/svg10.dtd">
<svg version="1.0" xmlns="http://www.w3.org/2000/svg"
 width="690.000000pt" height="690.000000pt" viewBox="0 0 690.000000 690.000000"
 preserveAspectRatio="xMidYMid meet">
<metadata>
Created by potrace 1.14, written by Peter Selinger 2001-2017
</metadata>
<g transform="translate(0.000000,690.000000) scale(0.100000,-0.100000)"
fill="#000000" stroke="none">
<path d="M3278 6895 c-2 -1 -46 -5 -98 -9 -412 -29 -831 -141 -1216 -326 -995
-476 -1705 -1403 -1904 -2485 -17 -92 -20 -109 -35 -230 -30 -232 -25 -637 10
-870 3 -16 7 -48 10 -70 35 -239 128 -563 235 -810 433 -1011 1326 -1758 2395
-2004 72 -17 153 -33 180 -37 28 -3 52 -7 55 -9 3 -2 34 -6 70 -10 36 -4 74
-9 85 -11 121 -24 554 -24 780 1 99 11 124 15 256 40 335 65 627 166 919 316
63 33 122 64 130 69 148 90 240 147 260 162 14 11 68 51 120 90 256 191 540
481 721 738 176 249 321 519 422 785 61 161 124 377 151 515 55 285 70 437 70
710 1 227 -8 339 -44 565 -26 157 -26 157 -61 293 -109 424 -305 837 -564
1187 -45 61 -88 117 -96 125 -8 8 -34 40 -59 70 -66 82 -313 326 -410 406
-423 348 -899 587 -1415 709 -55 13 -113 26 -130 29 -16 3 -70 12 -120 20 -49
8 -121 18 -160 21 -38 3 -83 8 -100 11 -29 6 -452 13 -457 9z m447 -419 c33
-4 78 -9 100 -12 83 -9 233 -37 310 -56 44 -11 85 -21 90 -22 279 -67 625
-222 900 -404 286 -189 537 -426 755 -712 282 -370 493 -864 565 -1320 9 -58
18 -116 21 -130 24 -150 24 -594 -1 -740 -2 -14 -7 -43 -10 -65 -17 -128 -82
-420 -104 -470 -5 -11 -21 -56 -36 -100 -203 -602 -646 -1168 -1195 -1530
-134 -88 -166 -107 -335 -189 -239 -118 -430 -185 -675 -239 -232 -52 -405
-70 -660 -71 -256 -1 -421 18 -700 79 -210 46 -469 142 -695 259 -687 353
-1211 958 -1475 1701 -17 50 -33 97 -35 105 -2 8 -17 67 -34 130 -68 255 -100
519 -96 805 3 178 8 242 34 420 67 457 265 938 544 1320 29 39 54 72 57 75 3
3 21 25 40 50 19 25 39 50 45 56 5 6 42 46 80 89 154 171 407 382 621 517 211
132 478 256 710 327 126 40 114 36 274 70 172 36 202 41 405 60 86 8 418 6
500 -3z"/>
<path d="M1044 4211 c-51 -23 -81 -54 -104 -106 -18 -40 -47 -175 -56 -263 -2
-26 -8 -81 -13 -122 -9 -72 -7 -429 2 -500 38 -288 97 -513 193 -740 136 -318
317 -585 563 -831 202 -202 398 -346 644 -473 187 -97 457 -197 596 -221 19
-3 37 -8 41 -10 5 -3 101 -21 220 -39 121 -20 411 -26 570 -13 93 8 130 12
250 33 70 13 246 58 330 85 671 219 1226 700 1538 1334 103 210 205 521 204
626 0 145 -154 241 -288 180 -73 -33 -110 -97 -139 -243 -24 -117 -170 -445
-262 -588 -238 -371 -555 -646 -952 -829 -86 -39 -325 -124 -382 -135 -13 -2
-44 -9 -69 -15 -240 -55 -559 -61 -820 -16 -129 22 -329 77 -442 121 -83 33
-251 114 -303 147 -222 140 -312 210 -460 360 -349 355 -561 801 -622 1307
-10 82 -10 395 0 475 4 33 17 113 29 178 19 102 20 125 10 164 -17 60 -56 106
-114 132 -57 26 -110 26 -164 2z"/>
<path d="M3067 4136 c-41 -18 -81 -59 -103 -103 -16 -34 -18 -65 -18 -293 0
-242 1 -257 22 -297 75 -145 282 -147 362 -3 24 44 24 49 25 288 0 168 -3 256
-12 286 -14 49 -62 101 -110 122 -39 17 -128 17 -166 0z"/>
<path d="M3912 4129 c-47 -24 -83 -66 -101 -119 -8 -23 -11 -117 -11 -275 1
-233 1 -241 25 -290 78 -160 316 -145 373 24 8 22 12 119 12 278 0 260 -4 289
-53 341 -59 63 -164 81 -245 41z"/>
</g>
</svg>
