<svg width="183" height="546" viewBox="0 0 183 546" fill="none" xmlns="http://www.w3.org/2000/svg">
<path d="M91 0L91 535" stroke="white" stroke-width="2" stroke-dasharray="9 9"/>
<rect x="1" y="1" width="181" height="56" rx="5" fill="black"/>
<rect x="1" y="1" width="181" height="56" rx="5" stroke="white" stroke-width="2"/>
<path d="M29.225 23.375V27.75H35.1V30.525H29.225V35.15H35.85V38H25.725V20.525H35.85V23.375H29.225ZM56.2307 23.95C57.9307 23.95 59.2973 24.475 60.3307 25.525C61.3807 26.5583 61.9057 28.0083 61.9057 29.875V38H58.4057V30.35C58.4057 29.2667 58.1307 28.4417 57.5807 27.875C57.0307 27.2917 56.2807 27 55.3307 27C54.3807 27 53.6223 27.2917 53.0557 27.875C52.5057 28.4417 52.2307 29.2667 52.2307 30.35V38H48.7307V30.35C48.7307 29.2667 48.4557 28.4417 47.9057 27.875C47.3557 27.2917 46.6057 27 45.6557 27C44.689 27 43.9223 27.2917 43.3557 27.875C42.8057 28.4417 42.5307 29.2667 42.5307 30.35V38H39.0307V24.15H42.5307V25.825C42.9807 25.2417 43.5557 24.7833 44.2557 24.45C44.9723 24.1167 45.7557 23.95 46.6057 23.95C47.689 23.95 48.6557 24.1833 49.5057 24.65C50.3557 25.1 51.014 25.75 51.4807 26.6C51.9307 25.8 52.5807 25.1583 53.4307 24.675C54.2973 24.1917 55.2307 23.95 56.2307 23.95ZM68.727 26.15C69.177 25.5167 69.7936 24.9917 70.577 24.575C71.377 24.1417 72.2853 23.925 73.302 23.925C74.4853 23.925 75.552 24.2167 76.502 24.8C77.4686 25.3833 78.227 26.2167 78.777 27.3C79.3436 28.3667 79.627 29.6083 79.627 31.025C79.627 32.4417 79.3436 33.7 78.777 34.8C78.227 35.8833 77.4686 36.725 76.502 37.325C75.552 37.925 74.4853 38.225 73.302 38.225C72.2853 38.225 71.3853 38.0167 70.602 37.6C69.8353 37.1833 69.2103 36.6583 68.727 36.025V44.6H65.227V24.15H68.727V26.15ZM76.052 31.025C76.052 30.1917 75.877 29.475 75.527 28.875C75.1936 28.2583 74.7436 27.7917 74.177 27.475C73.627 27.1583 73.027 27 72.377 27C71.7436 27 71.1436 27.1667 70.577 27.5C70.027 27.8167 69.577 28.2833 69.227 28.9C68.8936 29.5167 68.727 30.2417 68.727 31.075C68.727 31.9083 68.8936 32.6333 69.227 33.25C69.577 33.8667 70.027 34.3417 70.577 34.675C71.1436 34.9917 71.7436 35.15 72.377 35.15C73.027 35.15 73.627 34.9833 74.177 34.65C74.7436 34.3167 75.1936 33.8417 75.527 33.225C75.877 32.6083 76.052 31.875 76.052 31.025ZM81.2703 31.025C81.2703 29.625 81.5453 28.3833 82.0953 27.3C82.662 26.2167 83.4203 25.3833 84.3703 24.8C85.337 24.2167 86.412 23.925 87.5953 23.925C88.6286 23.925 89.5286 24.1333 90.2953 24.55C91.0786 24.9667 91.7036 25.4917 92.1703 26.125V24.15H95.6953V38H92.1703V35.975C91.7203 36.625 91.0953 37.1667 90.2953 37.6C89.512 38.0167 88.6036 38.225 87.5703 38.225C86.4036 38.225 85.337 37.925 84.3703 37.325C83.4203 36.725 82.662 35.8833 82.0953 34.8C81.5453 33.7 81.2703 32.4417 81.2703 31.025ZM92.1703 31.075C92.1703 30.225 92.0036 29.5 91.6703 28.9C91.337 28.2833 90.887 27.8167 90.3203 27.5C89.7536 27.1667 89.1453 27 88.4953 27C87.8453 27 87.2453 27.1583 86.6953 27.475C86.1453 27.7917 85.6953 28.2583 85.3453 28.875C85.012 29.475 84.8453 30.1917 84.8453 31.025C84.8453 31.8583 85.012 32.5917 85.3453 33.225C85.6953 33.8417 86.1453 34.3167 86.6953 34.65C87.262 34.9833 87.862 35.15 88.4953 35.15C89.1453 35.15 89.7536 34.9917 90.3203 34.675C90.887 34.3417 91.337 33.875 91.6703 33.275C92.0036 32.6583 92.1703 31.925 92.1703 31.075ZM103.189 27.025V33.725C103.189 34.1917 103.297 34.5333 103.514 34.75C103.747 34.95 104.13 35.05 104.664 35.05H106.289V38H104.089C101.139 38 99.6637 36.5667 99.6637 33.7V27.025H98.0137V24.15H99.6637V20.725H103.189V24.15H106.289V27.025H103.189ZM116.606 23.95C117.656 23.95 118.589 24.1833 119.406 24.65C120.223 25.1 120.856 25.775 121.306 26.675C121.773 27.5583 122.006 28.625 122.006 29.875V38H118.506V30.35C118.506 29.25 118.231 28.4083 117.681 27.825C117.131 27.225 116.381 26.925 115.431 26.925C114.464 26.925 113.698 27.225 113.131 27.825C112.581 28.4083 112.306 29.25 112.306 30.35V38H108.806V19.5H112.306V25.875C112.756 25.275 113.356 24.8083 114.106 24.475C114.856 24.125 115.689 23.95 116.606 23.95ZM127.109 22.5C126.493 22.5 125.976 22.3083 125.559 21.925C125.159 21.525 124.959 21.0333 124.959 20.45C124.959 19.8667 125.159 19.3833 125.559 19C125.976 18.6 126.493 18.4 127.109 18.4C127.726 18.4 128.234 18.6 128.634 19C129.051 19.3833 129.259 19.8667 129.259 20.45C129.259 21.0333 129.051 21.525 128.634 21.925C128.234 22.3083 127.726 22.5 127.109 22.5ZM128.834 24.15V38H125.334V24.15H128.834ZM135.492 35.125H141.667V38H131.517V35.175L137.567 27.025H131.542V24.15H141.592V26.975L135.492 35.125ZM157.252 30.775C157.252 31.275 157.219 31.725 157.152 32.125H147.027C147.111 33.125 147.461 33.9083 148.077 34.475C148.694 35.0417 149.452 35.325 150.352 35.325C151.652 35.325 152.577 34.7667 153.127 33.65H156.902C156.502 34.9833 155.736 36.0833 154.602 36.95C153.469 37.8 152.077 38.225 150.427 38.225C149.094 38.225 147.894 37.9333 146.827 37.35C145.777 36.75 144.952 35.9083 144.352 34.825C143.769 33.7417 143.477 32.4917 143.477 31.075C143.477 29.6417 143.769 28.3833 144.352 27.3C144.936 26.2167 145.752 25.3833 146.802 24.8C147.852 24.2167 149.061 23.925 150.427 23.925C151.744 23.925 152.919 24.2083 153.952 24.775C155.002 25.3417 155.811 26.15 156.377 27.2C156.961 28.2333 157.252 29.425 157.252 30.775ZM153.627 29.775C153.611 28.875 153.286 28.1583 152.652 27.625C152.019 27.075 151.244 26.8 150.327 26.8C149.461 26.8 148.727 27.0667 148.127 27.6C147.544 28.1167 147.186 28.8417 147.052 29.775H153.627Z" fill="white"/>
<rect x="28" y="123" width="127" height="56" rx="5" fill="black"/>
<rect x="28" y="123" width="127" height="56" rx="5" stroke="white" stroke-width="2"/>
<path d="M58.825 142.55C60.6583 142.55 62.2667 142.908 63.65 143.625C65.05 144.342 66.125 145.367 66.875 146.7C67.6417 148.017 68.025 149.55 68.025 151.3C68.025 153.05 67.6417 154.583 66.875 155.9C66.125 157.2 65.05 158.208 63.65 158.925C62.2667 159.642 60.6583 160 58.825 160H52.725V142.55H58.825ZM58.7 157.025C60.5333 157.025 61.95 156.525 62.95 155.525C63.95 154.525 64.45 153.117 64.45 151.3C64.45 149.483 63.95 148.067 62.95 147.05C61.95 146.017 60.5333 145.5 58.7 145.5H56.225V157.025H58.7ZM83.5199 152.775C83.5199 153.275 83.4866 153.725 83.4199 154.125H73.2949C73.3783 155.125 73.7283 155.908 74.3449 156.475C74.9616 157.042 75.7199 157.325 76.6199 157.325C77.9199 157.325 78.8449 156.767 79.3949 155.65H83.1699C82.7699 156.983 82.0033 158.083 80.8699 158.95C79.7366 159.8 78.3449 160.225 76.6949 160.225C75.3616 160.225 74.1616 159.933 73.0949 159.35C72.0449 158.75 71.2199 157.908 70.6199 156.825C70.0366 155.742 69.7449 154.492 69.7449 153.075C69.7449 151.642 70.0366 150.383 70.6199 149.3C71.2033 148.217 72.0199 147.383 73.0699 146.8C74.1199 146.217 75.3283 145.925 76.6949 145.925C78.0116 145.925 79.1866 146.208 80.2199 146.775C81.2699 147.342 82.0783 148.15 82.6449 149.2C83.2283 150.233 83.5199 151.425 83.5199 152.775ZM79.8949 151.775C79.8783 150.875 79.5533 150.158 78.9199 149.625C78.2866 149.075 77.5116 148.8 76.5949 148.8C75.7283 148.8 74.9949 149.067 74.3949 149.6C73.8116 150.117 73.4533 150.842 73.3199 151.775H79.8949ZM92.4246 149.025H89.9996V160H86.4496V149.025H84.8746V146.15H86.4496V145.45C86.4496 143.75 86.9329 142.5 87.8996 141.7C88.8663 140.9 90.3246 140.525 92.2746 140.575V143.525C91.4246 143.508 90.8329 143.65 90.4996 143.95C90.1663 144.25 89.9996 144.792 89.9996 145.575V146.15H92.4246V149.025ZM96.4678 144.5C95.8511 144.5 95.3344 144.308 94.9178 143.925C94.5178 143.525 94.3178 143.033 94.3178 142.45C94.3178 141.867 94.5178 141.383 94.9178 141C95.3344 140.6 95.8511 140.4 96.4678 140.4C97.0844 140.4 97.5928 140.6 97.9928 141C98.4094 141.383 98.6178 141.867 98.6178 142.45C98.6178 143.033 98.4094 143.525 97.9928 143.925C97.5928 144.308 97.0844 144.5 96.4678 144.5ZM98.1928 146.15V160H94.6928V146.15H98.1928ZM109.326 145.95C110.976 145.95 112.309 146.475 113.326 147.525C114.342 148.558 114.851 150.008 114.851 151.875V160H111.351V152.35C111.351 151.25 111.076 150.408 110.526 149.825C109.976 149.225 109.226 148.925 108.276 148.925C107.309 148.925 106.542 149.225 105.976 149.825C105.426 150.408 105.151 151.25 105.151 152.35V160H101.651V146.15H105.151V147.875C105.617 147.275 106.209 146.808 106.926 146.475C107.659 146.125 108.459 145.95 109.326 145.95ZM131.054 152.775C131.054 153.275 131.021 153.725 130.954 154.125H120.829C120.912 155.125 121.262 155.908 121.879 156.475C122.496 157.042 123.254 157.325 124.154 157.325C125.454 157.325 126.379 156.767 126.929 155.65H130.704C130.304 156.983 129.537 158.083 128.404 158.95C127.271 159.8 125.879 160.225 124.229 160.225C122.896 160.225 121.696 159.933 120.629 159.35C119.579 158.75 118.754 157.908 118.154 156.825C117.571 155.742 117.279 154.492 117.279 153.075C117.279 151.642 117.571 150.383 118.154 149.3C118.737 148.217 119.554 147.383 120.604 146.8C121.654 146.217 122.862 145.925 124.229 145.925C125.546 145.925 126.721 146.208 127.754 146.775C128.804 147.342 129.612 148.15 130.179 149.2C130.762 150.233 131.054 151.425 131.054 152.775ZM127.429 151.775C127.412 150.875 127.087 150.158 126.454 149.625C125.821 149.075 125.046 148.8 124.129 148.8C123.262 148.8 122.529 149.067 121.929 149.6C121.346 150.117 120.987 150.842 120.854 151.775H127.429Z" fill="white"/>
<rect x="27.5" y="245" width="128" height="56" rx="5" fill="black"/>
<rect x="27.5" y="245" width="128" height="56" rx="5" stroke="white" stroke-width="2"/>
<path d="M55.725 264.55V282H52.225V264.55H55.725ZM58.283 275.025C58.283 273.625 58.558 272.383 59.108 271.3C59.6747 270.217 60.4413 269.383 61.408 268.8C62.3747 268.217 63.4497 267.925 64.633 267.925C65.533 267.925 66.3913 268.125 67.208 268.525C68.0247 268.908 68.6747 269.425 69.158 270.075V263.5H72.708V282H69.158V279.95C68.7247 280.633 68.1163 281.183 67.333 281.6C66.5497 282.017 65.6413 282.225 64.608 282.225C63.4413 282.225 62.3747 281.925 61.408 281.325C60.4413 280.725 59.6747 279.883 59.108 278.8C58.558 277.7 58.283 276.442 58.283 275.025ZM69.183 275.075C69.183 274.225 69.0163 273.5 68.683 272.9C68.3497 272.283 67.8997 271.817 67.333 271.5C66.7663 271.167 66.158 271 65.508 271C64.858 271 64.258 271.158 63.708 271.475C63.158 271.792 62.708 272.258 62.358 272.875C62.0247 273.475 61.858 274.192 61.858 275.025C61.858 275.858 62.0247 276.592 62.358 277.225C62.708 277.842 63.158 278.317 63.708 278.65C64.2747 278.983 64.8747 279.15 65.508 279.15C66.158 279.15 66.7663 278.992 67.333 278.675C67.8997 278.342 68.3497 277.875 68.683 277.275C69.0163 276.658 69.183 275.925 69.183 275.075ZM89.0014 274.775C89.0014 275.275 88.968 275.725 88.9014 276.125H78.7764C78.8597 277.125 79.2097 277.908 79.8264 278.475C80.443 279.042 81.2014 279.325 82.1014 279.325C83.4014 279.325 84.3264 278.767 84.8764 277.65H88.6514C88.2514 278.983 87.4847 280.083 86.3514 280.95C85.218 281.8 83.8264 282.225 82.1764 282.225C80.843 282.225 79.643 281.933 78.5764 281.35C77.5264 280.75 76.7014 279.908 76.1014 278.825C75.518 277.742 75.2264 276.492 75.2264 275.075C75.2264 273.642 75.518 272.383 76.1014 271.3C76.6847 270.217 77.5014 269.383 78.5514 268.8C79.6014 268.217 80.8097 267.925 82.1764 267.925C83.493 267.925 84.668 268.208 85.7014 268.775C86.7514 269.342 87.5597 270.15 88.1264 271.2C88.7097 272.233 89.0014 273.425 89.0014 274.775ZM85.3764 273.775C85.3597 272.875 85.0347 272.158 84.4014 271.625C83.768 271.075 82.993 270.8 82.0764 270.8C81.2097 270.8 80.4764 271.067 79.8764 271.6C79.293 272.117 78.9347 272.842 78.8014 273.775H85.3764ZM90.6561 275.025C90.6561 273.625 90.9311 272.383 91.4811 271.3C92.0477 270.217 92.8061 269.383 93.7561 268.8C94.7227 268.217 95.7977 267.925 96.9811 267.925C98.0144 267.925 98.9144 268.133 99.6811 268.55C100.464 268.967 101.089 269.492 101.556 270.125V268.15H105.081V282H101.556V279.975C101.106 280.625 100.481 281.167 99.6811 281.6C98.8977 282.017 97.9894 282.225 96.9561 282.225C95.7894 282.225 94.7227 281.925 93.7561 281.325C92.8061 280.725 92.0477 279.883 91.4811 278.8C90.9311 277.7 90.6561 276.442 90.6561 275.025ZM101.556 275.075C101.556 274.225 101.389 273.5 101.056 272.9C100.723 272.283 100.273 271.817 99.7061 271.5C99.1394 271.167 98.5311 271 97.8811 271C97.2311 271 96.6311 271.158 96.0811 271.475C95.5311 271.792 95.0811 272.258 94.7311 272.875C94.3977 273.475 94.2311 274.192 94.2311 275.025C94.2311 275.858 94.3977 276.592 94.7311 277.225C95.0811 277.842 95.5311 278.317 96.0811 278.65C96.6477 278.983 97.2477 279.15 97.8811 279.15C98.5311 279.15 99.1394 278.992 99.7061 278.675C100.273 278.342 100.723 277.875 101.056 277.275C101.389 276.658 101.556 275.925 101.556 275.075ZM112.574 271.025V277.725C112.574 278.192 112.683 278.533 112.899 278.75C113.133 278.95 113.516 279.05 114.049 279.05H115.674V282H113.474C110.524 282 109.049 280.567 109.049 277.7V271.025H107.399V268.15H109.049V264.725H112.574V268.15H115.674V271.025H112.574ZM131.067 274.775C131.067 275.275 131.033 275.725 130.967 276.125H120.842C120.925 277.125 121.275 277.908 121.892 278.475C122.508 279.042 123.267 279.325 124.167 279.325C125.467 279.325 126.392 278.767 126.942 277.65H130.717C130.317 278.983 129.55 280.083 128.417 280.95C127.283 281.8 125.892 282.225 124.242 282.225C122.908 282.225 121.708 281.933 120.642 281.35C119.592 280.75 118.767 279.908 118.167 278.825C117.583 277.742 117.292 276.492 117.292 275.075C117.292 273.642 117.583 272.383 118.167 271.3C118.75 270.217 119.567 269.383 120.617 268.8C121.667 268.217 122.875 267.925 124.242 267.925C125.558 267.925 126.733 268.208 127.767 268.775C128.817 269.342 129.625 270.15 130.192 271.2C130.775 272.233 131.067 273.425 131.067 274.775ZM127.442 273.775C127.425 272.875 127.1 272.158 126.467 271.625C125.833 271.075 125.058 270.8 124.142 270.8C123.275 270.8 122.542 271.067 121.942 271.6C121.358 272.117 121 272.842 120.867 273.775H127.442Z" fill="white"/>
<rect x="6" y="367" width="171" height="56" rx="5" fill="black"/>
<rect x="6" y="367" width="171" height="56" rx="5" stroke="white" stroke-width="2"/>
<path d="M43.45 391.95C43.45 392.883 43.225 393.758 42.775 394.575C42.3417 395.392 41.65 396.05 40.7 396.55C39.7667 397.05 38.5833 397.3 37.15 397.3H34.225V404H30.725V386.55H37.15C38.5 386.55 39.65 386.783 40.6 387.25C41.55 387.717 42.2583 388.358 42.725 389.175C43.2083 389.992 43.45 390.917 43.45 391.95ZM37 394.475C37.9667 394.475 38.6833 394.258 39.15 393.825C39.6167 393.375 39.85 392.75 39.85 391.95C39.85 390.25 38.9 389.4 37 389.4H34.225V394.475H37ZM49.435 392.3C49.885 391.567 50.4683 390.992 51.185 390.575C51.9183 390.158 52.7516 389.95 53.685 389.95V393.625H52.76C51.66 393.625 50.8266 393.883 50.26 394.4C49.71 394.917 49.435 395.817 49.435 397.1V404H45.935V390.15H49.435V392.3ZM62.1924 404.225C60.859 404.225 59.659 403.933 58.5924 403.35C57.5257 402.75 56.684 401.908 56.0674 400.825C55.4674 399.742 55.1674 398.492 55.1674 397.075C55.1674 395.658 55.4757 394.408 56.0924 393.325C56.7257 392.242 57.584 391.408 58.6674 390.825C59.7507 390.225 60.959 389.925 62.2924 389.925C63.6257 389.925 64.834 390.225 65.9174 390.825C67.0007 391.408 67.8507 392.242 68.4674 393.325C69.1007 394.408 69.4174 395.658 69.4174 397.075C69.4174 398.492 69.0924 399.742 68.4424 400.825C67.809 401.908 66.9424 402.75 65.8424 403.35C64.7591 403.933 63.5424 404.225 62.1924 404.225ZM62.1924 401.175C62.8257 401.175 63.4174 401.025 63.9674 400.725C64.534 400.408 64.984 399.942 65.3174 399.325C65.6507 398.708 65.8174 397.958 65.8174 397.075C65.8174 395.758 65.4674 394.75 64.7674 394.05C64.084 393.333 63.2424 392.975 62.2424 392.975C61.2424 392.975 60.4007 393.333 59.7174 394.05C59.0507 394.75 58.7174 395.758 58.7174 397.075C58.7174 398.392 59.0424 399.408 59.6924 400.125C60.359 400.825 61.1924 401.175 62.1924 401.175ZM76.0598 393.025V399.725C76.0598 400.192 76.1681 400.533 76.3848 400.75C76.6181 400.95 77.0014 401.05 77.5348 401.05H79.1598V404H76.9598C74.0098 404 72.5348 402.567 72.5348 399.7V393.025H70.8848V390.15H72.5348V386.725H76.0598V390.15H79.1598V393.025H76.0598ZM87.8271 404.225C86.4938 404.225 85.2938 403.933 84.2271 403.35C83.1605 402.75 82.3188 401.908 81.7021 400.825C81.1021 399.742 80.8021 398.492 80.8021 397.075C80.8021 395.658 81.1105 394.408 81.7271 393.325C82.3605 392.242 83.2188 391.408 84.3021 390.825C85.3855 390.225 86.5938 389.925 87.9271 389.925C89.2605 389.925 90.4688 390.225 91.5521 390.825C92.6355 391.408 93.4855 392.242 94.1021 393.325C94.7355 394.408 95.0521 395.658 95.0521 397.075C95.0521 398.492 94.7271 399.742 94.0771 400.825C93.4438 401.908 92.5771 402.75 91.4771 403.35C90.3938 403.933 89.1771 404.225 87.8271 404.225ZM87.8271 401.175C88.4605 401.175 89.0521 401.025 89.6021 400.725C90.1688 400.408 90.6188 399.942 90.9521 399.325C91.2855 398.708 91.4521 397.958 91.4521 397.075C91.4521 395.758 91.1021 394.75 90.4021 394.05C89.7188 393.333 88.8771 392.975 87.8771 392.975C86.8771 392.975 86.0355 393.333 85.3521 394.05C84.6855 394.75 84.3521 395.758 84.3521 397.075C84.3521 398.392 84.6771 399.408 85.3271 400.125C85.9938 400.825 86.8271 401.175 87.8271 401.175ZM101.695 393.025V399.725C101.695 400.192 101.803 400.533 102.02 400.75C102.253 400.95 102.636 401.05 103.17 401.05H104.795V404H102.595C99.6445 404 98.1695 402.567 98.1695 399.7V393.025H96.5195V390.15H98.1695V386.725H101.695V390.15H104.795V393.025H101.695ZM120.562 390.15L111.987 410.55H108.262L111.262 403.65L105.712 390.15H109.637L113.212 399.825L116.837 390.15H120.562ZM125.949 392.15C126.399 391.517 127.015 390.992 127.799 390.575C128.599 390.142 129.507 389.925 130.524 389.925C131.707 389.925 132.774 390.217 133.724 390.8C134.69 391.383 135.449 392.217 135.999 393.3C136.565 394.367 136.849 395.608 136.849 397.025C136.849 398.442 136.565 399.7 135.999 400.8C135.449 401.883 134.69 402.725 133.724 403.325C132.774 403.925 131.707 404.225 130.524 404.225C129.507 404.225 128.607 404.017 127.824 403.6C127.057 403.183 126.432 402.658 125.949 402.025V410.6H122.449V390.15H125.949V392.15ZM133.274 397.025C133.274 396.192 133.099 395.475 132.749 394.875C132.415 394.258 131.965 393.792 131.399 393.475C130.849 393.158 130.249 393 129.599 393C128.965 393 128.365 393.167 127.799 393.5C127.249 393.817 126.799 394.283 126.449 394.9C126.115 395.517 125.949 396.242 125.949 397.075C125.949 397.908 126.115 398.633 126.449 399.25C126.799 399.867 127.249 400.342 127.799 400.675C128.365 400.992 128.965 401.15 129.599 401.15C130.249 401.15 130.849 400.983 131.399 400.65C131.965 400.317 132.415 399.842 132.749 399.225C133.099 398.608 133.274 397.875 133.274 397.025ZM152.267 396.775C152.267 397.275 152.234 397.725 152.167 398.125H142.042C142.125 399.125 142.475 399.908 143.092 400.475C143.709 401.042 144.467 401.325 145.367 401.325C146.667 401.325 147.592 400.767 148.142 399.65H151.917C151.517 400.983 150.75 402.083 149.617 402.95C148.484 403.8 147.092 404.225 145.442 404.225C144.109 404.225 142.909 403.933 141.842 403.35C140.792 402.75 139.967 401.908 139.367 400.825C138.784 399.742 138.492 398.492 138.492 397.075C138.492 395.642 138.784 394.383 139.367 393.3C139.95 392.217 140.767 391.383 141.817 390.8C142.867 390.217 144.075 389.925 145.442 389.925C146.759 389.925 147.934 390.208 148.967 390.775C150.017 391.342 150.825 392.15 151.392 393.2C151.975 394.233 152.267 395.425 152.267 396.775ZM148.642 395.775C148.625 394.875 148.3 394.158 147.667 393.625C147.034 393.075 146.259 392.8 145.342 392.8C144.475 392.8 143.742 393.067 143.142 393.6C142.559 394.117 142.2 394.842 142.067 395.775H148.642Z" fill="white"/>
<rect x="41.5" y="489" width="100" height="56" rx="5" fill="black"/>
<rect x="41.5" y="489" width="100" height="56" rx="5" stroke="white" stroke-width="2"/>
<path d="M78.1 508.55V511.375H73.45V526H69.95V511.375H65.3V508.55H78.1ZM93.5287 518.775C93.5287 519.275 93.4954 519.725 93.4287 520.125H83.3037C83.387 521.125 83.737 521.908 84.3537 522.475C84.9704 523.042 85.7287 523.325 86.6287 523.325C87.9287 523.325 88.8537 522.767 89.4037 521.65H93.1787C92.7787 522.983 92.012 524.083 90.8787 524.95C89.7454 525.8 88.3537 526.225 86.7037 526.225C85.3704 526.225 84.1704 525.933 83.1037 525.35C82.0537 524.75 81.2287 523.908 80.6287 522.825C80.0454 521.742 79.7537 520.492 79.7537 519.075C79.7537 517.642 80.0454 516.383 80.6287 515.3C81.212 514.217 82.0287 513.383 83.0787 512.8C84.1287 512.217 85.337 511.925 86.7037 511.925C88.0204 511.925 89.1954 512.208 90.2287 512.775C91.2787 513.342 92.087 514.15 92.6537 515.2C93.237 516.233 93.5287 517.425 93.5287 518.775ZM89.9037 517.775C89.887 516.875 89.562 516.158 88.9287 515.625C88.2954 515.075 87.5204 514.8 86.6037 514.8C85.737 514.8 85.0037 515.067 84.4037 515.6C83.8204 516.117 83.462 516.842 83.3287 517.775H89.9037ZM101.383 526.225C100.25 526.225 99.2334 526.025 98.3334 525.625C97.4334 525.208 96.7167 524.65 96.1834 523.95C95.6667 523.25 95.3834 522.475 95.3334 521.625H98.8584C98.9251 522.158 99.1834 522.6 99.6334 522.95C100.1 523.3 100.675 523.475 101.358 523.475C102.025 523.475 102.542 523.342 102.908 523.075C103.292 522.808 103.483 522.467 103.483 522.05C103.483 521.6 103.25 521.267 102.783 521.05C102.333 520.817 101.608 520.567 100.608 520.3C99.5751 520.05 98.7251 519.792 98.0584 519.525C97.4084 519.258 96.8417 518.85 96.3584 518.3C95.8917 517.75 95.6584 517.008 95.6584 516.075C95.6584 515.308 95.8751 514.608 96.3084 513.975C96.7584 513.342 97.3917 512.842 98.2084 512.475C99.0417 512.108 100.017 511.925 101.133 511.925C102.783 511.925 104.1 512.342 105.083 513.175C106.067 513.992 106.608 515.1 106.708 516.5H103.358C103.308 515.95 103.075 515.517 102.658 515.2C102.258 514.867 101.717 514.7 101.033 514.7C100.4 514.7 99.9084 514.817 99.5584 515.05C99.2251 515.283 99.0584 515.608 99.0584 516.025C99.0584 516.492 99.2917 516.85 99.7584 517.1C100.225 517.333 100.95 517.575 101.933 517.825C102.933 518.075 103.758 518.333 104.408 518.6C105.058 518.867 105.617 519.283 106.083 519.85C106.567 520.4 106.817 521.133 106.833 522.05C106.833 522.85 106.608 523.567 106.158 524.2C105.725 524.833 105.092 525.333 104.258 525.7C103.442 526.05 102.483 526.225 101.383 526.225ZM113.781 515.025V521.725C113.781 522.192 113.89 522.533 114.106 522.75C114.34 522.95 114.723 523.05 115.256 523.05H116.881V526H114.681C111.731 526 110.256 524.567 110.256 521.7V515.025H108.606V512.15H110.256V508.725H113.781V512.15H116.881V515.025H113.781Z" fill="white"/>
</svg>
