<svg width="528" height="110" viewBox="0 0 528 110" fill="none" xmlns="http://www.w3.org/2000/svg">
<path d="M80.2878 18.7911C79.1355 18.7889 77.9875 18.9324 76.8713 19.2182V18.7911C76.8743 15.6975 75.8275 12.6944 73.9022 10.2729C71.9769 7.85135 69.2869 6.15473 66.2722 5.46044C63.2575 4.76614 60.0964 5.11527 57.3059 6.45071C54.5153 7.78616 52.2605 10.0289 50.91 12.8122C48.8417 12.0387 46.6168 11.7778 44.4257 12.052C42.2346 12.3262 40.1426 13.1272 38.3287 14.3866C36.5148 15.6459 35.0331 17.326 34.0105 19.2831C32.9878 21.2402 32.4546 23.416 32.4565 25.6242V47.3319C30.231 44.793 27.1445 43.1679 23.7919 42.7696C20.4393 42.3713 17.058 43.2281 14.2996 45.1749C11.5413 47.1217 9.60115 50.0206 8.85324 53.3129C8.10533 56.6051 8.60257 60.0577 10.2491 63.0052C23.8383 91.6484 32.1789 104.204 54.6639 104.204C65.0808 104.193 75.0678 100.05 82.4336 92.6839C89.7995 85.318 93.9426 75.331 93.9539 64.9141V32.4572C93.9539 28.8327 92.5141 25.3567 89.9512 22.7938C87.3883 20.2309 83.9123 18.7911 80.2878 18.7911ZM83.7043 64.9141C83.6953 72.6134 80.6328 79.9947 75.1886 85.4388C69.7444 90.883 62.3631 93.9455 54.6639 93.9546C39.3621 93.9546 33.4345 87.9757 19.4396 58.4484C19.3798 58.3245 19.3157 58.2007 19.2474 58.0811C18.8224 57.2985 18.7198 56.3809 18.9614 55.5238C19.2031 54.6666 19.7698 53.9377 20.5409 53.4923C21.3121 53.0469 22.2267 52.9201 23.0899 53.1391C23.9531 53.3581 24.6967 53.9054 25.1622 54.6646L25.2519 54.8141L33.2295 67.626C33.8179 68.5722 34.6987 69.3008 35.7384 69.7014C36.7781 70.1021 37.92 70.153 38.9912 69.8465C40.0624 69.5399 41.0046 68.8926 41.6749 68.0026C42.3452 67.1126 42.7072 66.0284 42.7061 64.9141V25.6242C42.7061 24.718 43.066 23.849 43.7067 23.2083C44.3475 22.5676 45.2165 22.2076 46.1226 22.2076C47.0287 22.2076 47.8977 22.5676 48.5384 23.2083C49.1791 23.849 49.5391 24.718 49.5391 25.6242V51.2481C49.5391 52.6072 50.079 53.9107 51.0401 54.8718C52.0012 55.8329 53.3047 56.3728 54.6639 56.3728C56.0231 56.3728 57.3266 55.8329 58.2876 54.8718C59.2487 53.9107 59.7887 52.6072 59.7887 51.2481V18.7911C59.7887 17.885 60.1486 17.016 60.7893 16.3753C61.4301 15.7346 62.2991 15.3746 63.2052 15.3746C64.1113 15.3746 64.9803 15.7346 65.621 16.3753C66.2618 17.016 66.6217 17.885 66.6217 18.7911V51.2481C66.6217 52.6072 67.1616 53.9107 68.1227 54.8718C69.0838 55.8329 70.3873 56.3728 71.7465 56.3728C73.1057 56.3728 74.4092 55.8329 75.3702 54.8718C76.3313 53.9107 76.8713 52.6072 76.8713 51.2481V32.4572C76.8713 31.5511 77.2312 30.6821 77.8719 30.0414C78.5127 29.4006 79.3817 29.0407 80.2878 29.0407C81.1939 29.0407 82.0629 29.4006 82.7036 30.0414C83.3444 30.6821 83.7043 31.5511 83.7043 32.4572V64.9141Z" fill="#05440E"/>
<path d="M233.283 44.415C233.283 45.7742 232.743 47.0777 231.782 48.0387C230.821 48.9998 229.517 49.5398 228.158 49.5398C226.799 49.5398 225.496 48.9998 224.535 48.0387C223.573 47.0777 223.034 45.7742 223.034 44.415C223.034 36.713 219.974 29.3264 214.528 23.8803C209.082 18.4342 201.695 15.3746 193.993 15.3746C186.291 15.3746 178.905 18.4342 173.458 23.8803C168.012 29.3264 164.953 36.713 164.953 44.415C164.953 55.0916 168.19 58.2092 171.935 61.8221C175.681 65.4351 180.327 69.915 180.327 80.2884C180.327 83.9129 181.767 87.3889 184.33 89.9518C186.893 92.5147 190.369 93.9545 193.993 93.9545C197.837 93.9545 200.907 92.3744 203.709 88.9835C204.584 87.9692 205.822 87.3381 207.157 87.2254C208.493 87.1128 209.819 87.5275 210.852 88.3808C211.885 89.2341 212.543 90.458 212.684 91.7904C212.826 93.1228 212.44 94.4577 211.61 95.509C206.843 101.279 200.916 104.204 193.993 104.204C187.652 104.197 181.573 101.675 177.09 97.1919C172.606 92.7083 170.084 86.6292 170.077 80.2884C170.077 74.2711 168.1 72.3621 164.82 69.1848C160.31 64.8543 154.703 59.4434 154.703 44.415C154.703 33.9946 158.843 24.0011 166.211 16.6328C173.579 9.26447 183.573 5.125 193.993 5.125C204.413 5.125 214.407 9.26447 221.775 16.6328C229.144 24.0011 233.283 33.9946 233.283 44.415ZM216.145 67.3099C215.562 66.9727 214.919 66.7536 214.252 66.6651C213.584 66.5766 212.906 66.6204 212.255 66.7941C211.605 66.9679 210.995 67.268 210.461 67.6775C209.927 68.0869 209.478 68.5977 209.141 69.1805C208.954 69.5074 208.663 69.7632 208.315 69.9079C207.967 70.0527 207.581 70.0783 207.217 69.9809C206.853 69.8834 206.532 69.6683 206.303 69.369C206.074 69.0698 205.95 68.7032 205.951 68.3264C205.951 65.0764 207.51 62.8343 210.051 59.4434C212.784 55.7963 216.2 51.248 216.2 44.415C216.2 38.5252 213.861 32.8767 209.696 28.712C205.531 24.5473 199.883 22.2076 193.993 22.2076C188.103 22.2076 182.455 24.5473 178.29 28.712C174.125 32.8767 171.786 38.5252 171.786 44.415C171.786 45.7742 172.326 47.0777 173.287 48.0387C174.248 48.9998 175.551 49.5398 176.911 49.5398C178.27 49.5398 179.573 48.9998 180.534 48.0387C181.495 47.0777 182.035 45.7742 182.035 44.415C182.035 41.2436 183.295 38.2021 185.538 35.9595C187.78 33.717 190.822 32.4572 193.993 32.4572C197.165 32.4572 200.206 33.717 202.449 35.9595C204.691 38.2021 205.951 41.2436 205.951 44.415C205.951 47.6649 204.392 49.907 201.851 53.2979C199.118 56.9493 195.701 61.4976 195.701 68.3306C195.701 70.9631 196.57 73.5221 198.172 75.6107C199.775 77.6992 202.022 79.2006 204.564 79.882C207.107 80.5633 209.804 80.3865 212.236 79.3789C214.668 78.3714 216.699 76.5895 218.016 74.3095C218.695 73.1332 218.88 71.7351 218.529 70.4225C218.178 69.11 217.321 67.9904 216.145 67.3099Z" fill="#05440E"/>
<path d="M386.279 52.956C386.273 48.2928 384.998 43.7192 382.591 39.7256C380.183 35.732 376.734 32.4693 372.613 30.2874C372.517 25.7611 371.039 21.3722 368.379 17.709C365.719 14.0457 362.003 11.283 357.728 9.79115C353.454 8.29928 348.825 8.14948 344.463 9.36182C340.101 10.5742 336.214 13.0907 333.323 16.5743C330.431 13.0907 326.544 10.5742 322.182 9.36182C317.82 8.14948 313.191 8.29928 308.917 9.79115C304.643 11.283 300.926 14.0457 298.266 17.709C295.606 21.3722 294.129 25.7611 294.033 30.2874C289.907 32.4634 286.454 35.7241 284.045 39.718C281.636 43.7119 280.363 48.2876 280.363 52.9517C280.363 57.6158 281.636 62.1915 284.045 66.1854C286.454 70.1793 289.907 73.44 294.033 75.616C294.127 80.1431 295.603 84.5331 298.262 88.1977C300.922 91.8622 304.638 94.6262 308.913 96.1192C313.188 97.6121 317.817 97.7626 322.18 96.5505C326.543 95.3384 330.431 92.8217 333.323 89.3376C336.215 92.8217 340.103 95.3384 344.465 96.5505C348.828 97.7626 353.457 97.6121 357.732 96.1192C362.007 94.6262 365.723 91.8622 368.383 88.1977C371.042 84.5331 372.518 80.1431 372.613 75.616C376.735 73.4381 380.186 70.1774 382.594 66.1848C385.002 62.1921 386.276 57.6185 386.279 52.956ZM316.24 87.1212C313.66 87.1208 311.149 86.2859 309.082 84.7411C307.016 83.1964 305.504 81.0245 304.773 78.55C305.2 78.55 305.58 78.5799 305.99 78.5799H309.407C310.766 78.5799 312.07 78.0399 313.031 77.0789C313.992 76.1178 314.532 74.8143 314.532 73.4551C314.532 72.0959 313.992 70.7924 313.031 69.8313C312.07 68.8702 310.766 68.3303 309.407 68.3303H305.99C302.362 68.3328 298.849 67.0518 296.074 64.7139C293.299 62.376 291.44 59.1319 290.827 55.5555C290.213 51.9791 290.884 48.3009 292.722 45.1718C294.559 42.0426 297.444 39.6641 300.866 38.4571C301.865 38.1037 302.731 37.449 303.343 36.5831C303.954 35.7173 304.283 34.683 304.282 33.6227V30.7486C304.282 27.5772 305.542 24.5357 307.785 22.2931C310.027 20.0506 313.069 18.7908 316.24 18.7908C319.411 18.7908 322.453 20.0506 324.695 22.2931C326.938 24.5357 328.198 27.5772 328.198 30.7486V56.4494C327.218 55.8209 326.19 55.2712 325.123 54.8052C323.877 54.2615 322.466 54.235 321.201 54.7316C319.935 55.2281 318.919 56.2071 318.375 57.453C317.832 58.6989 317.805 60.1097 318.302 61.3752C318.798 62.6406 319.777 63.6569 321.023 64.2006C323.543 65.2983 325.608 67.2305 326.87 69.6721C328.132 72.1137 328.515 74.9156 327.953 77.6061C327.392 80.2967 325.92 82.7117 323.787 84.4447C321.654 86.1777 318.989 87.1229 316.24 87.1212ZM360.655 68.3303H357.238C355.879 68.3303 354.576 68.8702 353.614 69.8313C352.653 70.7924 352.113 72.0959 352.113 73.4551C352.113 74.8143 352.653 76.1178 353.614 77.0789C354.576 78.0399 355.879 78.5799 357.238 78.5799H360.655C361.082 78.5799 361.466 78.5799 361.872 78.55C361.303 80.4793 360.256 82.2339 358.828 83.6513C357.401 85.0687 355.639 86.1031 353.706 86.6587C351.773 87.2144 349.73 87.2733 347.768 86.8301C345.806 86.3869 343.987 85.4559 342.481 84.1232C340.974 82.7905 339.828 81.0992 339.148 79.2059C338.468 77.3125 338.278 75.2784 338.593 73.2917C338.908 71.305 339.72 69.4299 340.952 67.8401C342.184 66.2502 343.798 64.997 345.643 64.1963C346.889 63.6527 347.868 62.6363 348.365 61.3709C348.861 60.1055 348.835 58.6946 348.291 57.4487C347.748 56.2028 346.731 55.2239 345.466 54.7273C344.2 54.2308 342.789 54.2572 341.544 54.8009C340.477 55.2669 339.449 55.8167 338.469 56.4451V30.7486C338.469 27.5772 339.729 24.5357 341.971 22.2931C344.214 20.0506 347.255 18.7908 350.427 18.7908C353.598 18.7908 356.639 20.0506 358.882 22.2931C361.125 24.5357 362.384 27.5772 362.384 30.7486V33.6227C362.384 34.683 362.712 35.7173 363.324 36.5831C363.936 37.449 364.801 38.1037 365.801 38.4571C369.238 39.6532 372.14 42.0299 373.989 45.1645C375.839 48.299 376.517 51.988 375.902 55.5752C375.287 59.1624 373.419 62.4151 370.631 64.7546C367.843 67.0941 364.316 68.3687 360.676 68.3517L360.655 68.3303ZM367.488 49.5395C367.488 50.8986 366.948 52.2021 365.987 53.1632C365.026 54.1243 363.722 54.6642 362.363 54.6642C357.832 54.6642 353.487 52.8645 350.284 49.6609C347.08 46.4572 345.28 42.1122 345.28 37.5816V35.8734C345.28 34.5142 345.82 33.2107 346.781 32.2496C347.743 31.2885 349.046 30.7486 350.405 30.7486C351.764 30.7486 353.068 31.2885 354.029 32.2496C354.99 33.2107 355.53 34.5142 355.53 35.8734V37.5816C355.53 39.3939 356.25 41.1319 357.531 42.4133C358.813 43.6948 360.551 44.4147 362.363 44.4147C363.722 44.4147 365.026 44.9546 365.987 45.9157C366.948 46.8768 367.488 48.1803 367.488 49.5395ZM321.365 37.5816C321.365 42.1122 319.565 46.4572 316.361 49.6609C313.158 52.8645 308.813 54.6642 304.282 54.6642C302.923 54.6642 301.619 54.1243 300.658 53.1632C299.697 52.2021 299.157 50.8986 299.157 49.5395C299.157 48.1803 299.697 46.8768 300.658 45.9157C301.619 44.9546 302.923 44.4147 304.282 44.4147C306.094 44.4147 307.832 43.6948 309.114 42.4133C310.395 41.1319 311.115 39.3939 311.115 37.5816V35.8734C311.115 34.5142 311.655 33.2107 312.616 32.2496C313.577 31.2885 314.881 30.7486 316.24 30.7486C317.599 30.7486 318.903 31.2885 319.864 32.2496C320.825 33.2107 321.365 34.5142 321.365 35.8734V37.5816Z" fill="#05440E"/>
<path d="M525.18 52.5847C525.022 52.2388 521.281 43.9323 513.018 35.6686C501.961 24.629 488.026 18.791 472.651 18.791C457.277 18.791 443.342 24.629 432.298 35.6686C424.034 43.9323 420.293 52.2388 420.122 52.5847C419.833 53.2406 419.684 53.9497 419.684 54.6666C419.684 55.3835 419.833 56.0926 420.122 56.7486C420.28 57.0988 424.021 65.4009 432.289 73.6646C443.342 84.7042 457.277 90.5379 472.651 90.5379C488.026 90.5379 501.961 84.7042 513 73.6646C521.268 65.4009 525.01 57.0988 525.168 56.7486C525.459 56.0935 525.61 55.3849 525.613 54.668C525.615 53.951 525.468 53.2415 525.18 52.5847ZM505.51 66.6778C496.341 75.706 485.288 80.2884 472.651 80.2884C460.014 80.2884 448.962 75.706 439.806 66.6735C436.203 63.1084 433.104 59.0681 430.594 54.6645C433.105 50.2627 436.204 46.2239 439.806 42.6597C448.966 33.623 460.014 29.0406 472.651 29.0406C485.288 29.0406 496.336 33.623 505.497 42.6597C509.099 46.2235 512.199 50.2624 514.709 54.6645C512.198 59.0678 509.099 63.108 505.497 66.6735L505.51 66.6778ZM472.651 35.8736C468.935 35.8736 465.302 36.9757 462.212 39.0404C459.122 41.1052 456.713 44.0399 455.291 47.4735C453.869 50.9071 453.496 54.6853 454.222 58.3304C454.947 61.9755 456.736 65.3237 459.364 67.9516C461.992 70.5796 465.34 72.3692 468.985 73.0943C472.631 73.8193 476.409 73.4472 479.842 72.025C483.276 70.6027 486.211 68.1943 488.275 65.1041C490.34 62.014 491.442 58.381 491.442 54.6645C491.437 49.6826 489.455 44.9063 485.932 41.3836C482.41 37.8608 477.633 35.8793 472.651 35.8736ZM472.651 63.2058C470.962 63.2058 469.311 62.7048 467.906 61.7663C466.501 60.8278 465.407 59.4938 464.76 57.9331C464.114 56.3724 463.945 54.655 464.274 52.9982C464.604 51.3413 465.417 49.8194 466.612 48.6249C467.806 47.4303 469.328 46.6169 470.985 46.2873C472.642 45.9577 474.359 46.1269 475.92 46.7733C477.481 47.4198 478.815 48.5146 479.753 49.9192C480.692 51.3238 481.193 52.9752 481.193 54.6645C481.193 56.9298 480.293 59.1023 478.691 60.7041C477.089 62.3059 474.917 63.2058 472.651 63.2058Z" fill="#05440E"/>
</svg>
