<svg width="572" height="583" viewBox="0 0 572 583" fill="none" xmlns="http://www.w3.org/2000/svg">
<circle cx="284.5" cy="298.5" r="271.865" fill="black" stroke="white" stroke-width="25.2708"/>
<path d="M524.422 224.508L552.857 239.419L561.386 208.465" stroke="black" stroke-width="11.6843" stroke-linecap="round" stroke-linejoin="round"/>
<path d="M436.911 498.588L430.441 530.037L462.547 529.678" stroke="black" stroke-width="11.6843" stroke-linecap="round" stroke-linejoin="round"/>
<path d="M135.513 500.952L103.525 503.725L113.031 534.393" stroke="black" stroke-width="11.6843" stroke-linecap="round" stroke-linejoin="round"/>
<path d="M43.9326 225.861L34.2371 195.253L6.38713 211.23" stroke="black" stroke-width="11.6843" stroke-linecap="round" stroke-linejoin="round"/>
<path d="M284 46.2959L308.999 26.148L284 6.0002" stroke="black" stroke-width="11.6843" stroke-linecap="round" stroke-linejoin="round"/>
<path d="M212.474 260.866C215.745 260.866 218.614 261.505 221.083 262.784C223.581 264.062 225.499 265.891 226.837 268.27C228.205 270.619 228.889 273.355 228.889 276.477C228.889 279.6 228.205 282.336 226.837 284.685C225.499 287.004 223.581 288.803 221.083 290.082C218.614 291.361 215.745 292 212.474 292H201.59V260.866H212.474ZM212.251 286.692C215.522 286.692 218.049 285.8 219.834 284.016C221.618 282.232 222.51 279.719 222.51 276.477C222.51 273.236 221.618 270.709 219.834 268.895C218.049 267.051 215.522 266.129 212.251 266.129H207.835V286.692H212.251ZM239.808 265.906V273.712H250.29V278.663H239.808V286.915H251.628V292H233.563V260.821H251.628V265.906H239.808ZM268.053 292.312C265.882 292.312 263.919 291.941 262.165 291.197C260.44 290.454 259.072 289.383 258.061 287.986C257.05 286.588 256.53 284.938 256.5 283.034H263.191C263.28 284.313 263.726 285.324 264.529 286.068C265.362 286.811 266.492 287.183 267.919 287.183C269.376 287.183 270.521 286.841 271.353 286.157C272.186 285.443 272.602 284.521 272.602 283.391C272.602 282.469 272.32 281.711 271.755 281.116C271.19 280.522 270.476 280.061 269.614 279.734C268.781 279.377 267.622 278.99 266.135 278.574C264.113 277.979 262.462 277.399 261.184 276.834C259.935 276.24 258.849 275.362 257.927 274.203C257.035 273.013 256.589 271.437 256.589 269.474C256.589 267.631 257.05 266.025 257.972 264.657C258.894 263.289 260.187 262.248 261.853 261.535C263.518 260.791 265.421 260.42 267.562 260.42C270.774 260.42 273.376 261.208 275.368 262.784C277.39 264.33 278.505 266.501 278.713 269.296H271.844C271.785 268.226 271.324 267.348 270.461 266.664C269.629 265.951 268.514 265.594 267.116 265.594C265.897 265.594 264.916 265.906 264.172 266.531C263.458 267.155 263.102 268.062 263.102 269.251C263.102 270.084 263.369 270.783 263.904 271.348C264.469 271.883 265.153 272.329 265.956 272.686C266.789 273.013 267.949 273.4 269.435 273.846C271.458 274.441 273.108 275.035 274.387 275.63C275.665 276.225 276.766 277.117 277.687 278.306C278.609 279.496 279.07 281.057 279.07 282.99C279.07 284.655 278.639 286.201 277.777 287.629C276.914 289.056 275.65 290.201 273.985 291.063C272.32 291.896 270.342 292.312 268.053 292.312ZM290.729 260.866V292H284.484V260.866H290.729ZM318.577 270.233C317.863 268.924 316.882 267.928 315.633 267.244C314.384 266.56 312.927 266.218 311.261 266.218C309.418 266.218 307.782 266.635 306.355 267.467C304.927 268.3 303.812 269.489 303.009 271.036C302.207 272.582 301.805 274.366 301.805 276.388C301.805 278.47 302.207 280.284 303.009 281.83C303.842 283.376 304.987 284.566 306.444 285.398C307.901 286.231 309.596 286.647 311.529 286.647C313.908 286.647 315.856 286.023 317.372 284.774C318.889 283.495 319.885 281.726 320.361 279.466H309.656V274.693H326.516V280.135C326.1 282.306 325.208 284.313 323.84 286.157C322.472 288 320.703 289.487 318.532 290.617C316.391 291.718 313.982 292.268 311.306 292.268C308.303 292.268 305.582 291.599 303.143 290.26C300.735 288.893 298.831 287.004 297.434 284.596C296.066 282.187 295.382 279.451 295.382 276.388C295.382 273.325 296.066 270.59 297.434 268.181C298.831 265.743 300.735 263.854 303.143 262.516C305.582 261.148 308.288 260.464 311.261 260.464C314.77 260.464 317.818 261.327 320.405 263.051C322.992 264.746 324.777 267.14 325.758 270.233H318.577ZM357.766 292H351.521L337.381 270.634V292H331.136V260.821H337.381L351.521 282.232V260.821H357.766V292ZM203.285 303.866V308.906H194.988V335H188.743V308.906H180.447V303.866H203.285ZM233.667 303.866V335H227.423V321.752H214.086V335H207.841V303.866H214.086V316.667H227.423V303.866H233.667ZM246.058 303.866V335H239.814V303.866H246.058ZM278.857 335H272.613L258.473 313.634V335H252.228V303.821H258.473L272.613 325.232V303.821H278.857V335ZM302.603 335L291.273 321.128V335H285.029V303.866H291.273V317.827L302.603 303.866H310.141L297.295 319.299L310.498 335H302.603ZM320.85 303.866V335H314.606V303.866H320.85ZM353.649 335H347.404L333.265 313.634V335H327.02V303.821H333.265L347.404 325.232V303.821H353.649V335ZM381.498 313.233C380.785 311.924 379.803 310.928 378.554 310.244C377.305 309.56 375.848 309.218 374.183 309.218C372.339 309.218 370.704 309.635 369.277 310.467C367.849 311.3 366.734 312.489 365.931 314.036C365.128 315.582 364.727 317.366 364.727 319.388C364.727 321.47 365.128 323.284 365.931 324.83C366.764 326.376 367.909 327.566 369.366 328.398C370.823 329.231 372.518 329.647 374.451 329.647C376.83 329.647 378.777 329.023 380.294 327.774C381.811 326.495 382.807 324.726 383.283 322.466H372.577V317.693H389.438V323.135C389.022 325.306 388.13 327.313 386.762 329.157C385.394 331 383.625 332.487 381.454 333.617C379.313 334.718 376.904 335.268 374.228 335.268C371.224 335.268 368.503 334.599 366.065 333.26C363.656 331.893 361.753 330.004 360.356 327.596C358.988 325.187 358.304 322.451 358.304 319.388C358.304 316.325 358.988 313.59 360.356 311.181C361.753 308.743 363.656 306.854 366.065 305.516C368.503 304.148 371.209 303.464 374.183 303.464C377.692 303.464 380.74 304.327 383.327 306.051C385.914 307.746 387.698 310.14 388.68 313.233H381.498Z" fill="white"/>
<path d="M340.076 118.47V121.62H344.306V123.618H340.076V126.948H344.846V129H337.556V116.418H344.846V118.47H340.076ZM359.521 118.884C360.745 118.884 361.729 119.262 362.473 120.018C363.229 120.762 363.607 121.806 363.607 123.15V129H361.087V123.492C361.087 122.712 360.889 122.118 360.493 121.71C360.097 121.29 359.557 121.08 358.873 121.08C358.189 121.08 357.643 121.29 357.235 121.71C356.839 122.118 356.641 122.712 356.641 123.492V129H354.121V123.492C354.121 122.712 353.923 122.118 353.527 121.71C353.131 121.29 352.591 121.08 351.907 121.08C351.211 121.08 350.659 121.29 350.251 121.71C349.855 122.118 349.657 122.712 349.657 123.492V129H347.137V119.028H349.657V120.234C349.981 119.814 350.395 119.484 350.899 119.244C351.415 119.004 351.979 118.884 352.591 118.884C353.371 118.884 354.067 119.052 354.679 119.388C355.291 119.712 355.765 120.18 356.101 120.792C356.425 120.216 356.893 119.754 357.505 119.406C358.129 119.058 358.801 118.884 359.521 118.884ZM368.518 120.468C368.842 120.012 369.286 119.634 369.85 119.334C370.426 119.022 371.08 118.866 371.812 118.866C372.664 118.866 373.432 119.076 374.116 119.496C374.812 119.916 375.358 120.516 375.754 121.296C376.162 122.064 376.366 122.958 376.366 123.978C376.366 124.998 376.162 125.904 375.754 126.696C375.358 127.476 374.812 128.082 374.116 128.514C373.432 128.946 372.664 129.162 371.812 129.162C371.08 129.162 370.432 129.012 369.868 128.712C369.316 128.412 368.866 128.034 368.518 127.578V133.752H365.998V119.028H368.518V120.468ZM373.792 123.978C373.792 123.378 373.666 122.862 373.414 122.43C373.174 121.986 372.85 121.65 372.442 121.422C372.046 121.194 371.614 121.08 371.146 121.08C370.69 121.08 370.258 121.2 369.85 121.44C369.454 121.668 369.13 122.004 368.878 122.448C368.638 122.892 368.518 123.414 368.518 124.014C368.518 124.614 368.638 125.136 368.878 125.58C369.13 126.024 369.454 126.366 369.85 126.606C370.258 126.834 370.69 126.948 371.146 126.948C371.614 126.948 372.046 126.828 372.442 126.588C372.85 126.348 373.174 126.006 373.414 125.562C373.666 125.118 373.792 124.59 373.792 123.978ZM377.549 123.978C377.549 122.97 377.747 122.076 378.143 121.296C378.551 120.516 379.097 119.916 379.781 119.496C380.477 119.076 381.251 118.866 382.103 118.866C382.847 118.866 383.495 119.016 384.047 119.316C384.611 119.616 385.061 119.994 385.397 120.45V119.028H387.935V129H385.397V127.542C385.073 128.01 384.623 128.4 384.047 128.712C383.483 129.012 382.829 129.162 382.085 129.162C381.245 129.162 380.477 128.946 379.781 128.514C379.097 128.082 378.551 127.476 378.143 126.696C377.747 125.904 377.549 124.998 377.549 123.978ZM385.397 124.014C385.397 123.402 385.277 122.88 385.037 122.448C384.797 122.004 384.473 121.668 384.065 121.44C383.657 121.2 383.219 121.08 382.751 121.08C382.283 121.08 381.851 121.194 381.455 121.422C381.059 121.65 380.735 121.986 380.483 122.43C380.243 122.862 380.123 123.378 380.123 123.978C380.123 124.578 380.243 125.106 380.483 125.562C380.735 126.006 381.059 126.348 381.455 126.588C381.863 126.828 382.295 126.948 382.751 126.948C383.219 126.948 383.657 126.834 384.065 126.606C384.473 126.366 384.797 126.03 385.037 125.598C385.277 125.154 385.397 124.626 385.397 124.014ZM393.33 121.098V125.922C393.33 126.258 393.408 126.504 393.564 126.66C393.732 126.804 394.008 126.876 394.392 126.876H395.562V129H393.978C391.854 129 390.792 127.968 390.792 125.904V121.098H389.604V119.028H390.792V116.562H393.33V119.028H395.562V121.098H393.33ZM402.991 118.884C403.747 118.884 404.419 119.052 405.007 119.388C405.595 119.712 406.051 120.198 406.375 120.846C406.711 121.482 406.879 122.25 406.879 123.15V129H404.359V123.492C404.359 122.7 404.161 122.094 403.765 121.674C403.369 121.242 402.829 121.026 402.145 121.026C401.449 121.026 400.897 121.242 400.489 121.674C400.093 122.094 399.895 122.7 399.895 123.492V129H397.375V115.68H399.895V120.27C400.219 119.838 400.651 119.502 401.191 119.262C401.731 119.01 402.331 118.884 402.991 118.884ZM410.553 117.84C410.109 117.84 409.737 117.702 409.437 117.426C409.149 117.138 409.005 116.784 409.005 116.364C409.005 115.944 409.149 115.596 409.437 115.32C409.737 115.032 410.109 114.888 410.553 114.888C410.997 114.888 411.363 115.032 411.651 115.32C411.951 115.596 412.101 115.944 412.101 116.364C412.101 116.784 411.951 117.138 411.651 117.426C411.363 117.702 410.997 117.84 410.553 117.84ZM411.795 119.028V129H409.275V119.028H411.795ZM416.589 126.93H421.035V129H413.727V126.966L418.083 121.098H413.745V119.028H420.981V121.062L416.589 126.93ZM432.256 123.798C432.256 124.158 432.232 124.482 432.184 124.77H424.894C424.954 125.49 425.206 126.054 425.65 126.462C426.094 126.87 426.64 127.074 427.288 127.074C428.224 127.074 428.89 126.672 429.286 125.868H432.004C431.716 126.828 431.164 127.62 430.348 128.244C429.532 128.856 428.53 129.162 427.342 129.162C426.382 129.162 425.518 128.952 424.75 128.532C423.994 128.1 423.4 127.494 422.968 126.714C422.548 125.934 422.338 125.034 422.338 124.014C422.338 122.982 422.548 122.076 422.968 121.296C423.388 120.516 423.976 119.916 424.732 119.496C425.488 119.076 426.358 118.866 427.342 118.866C428.29 118.866 429.136 119.07 429.88 119.478C430.636 119.886 431.218 120.468 431.626 121.224C432.046 121.968 432.256 122.826 432.256 123.798ZM429.646 123.078C429.634 122.43 429.4 121.914 428.944 121.53C428.488 121.134 427.93 120.936 427.27 120.936C426.646 120.936 426.118 121.128 425.686 121.512C425.266 121.884 425.008 122.406 424.912 123.078H429.646Z" fill="white"/>
<path d="M449.016 364.436C450.336 364.436 451.494 364.694 452.49 365.21C453.498 365.726 454.272 366.464 454.812 367.424C455.364 368.372 455.64 369.476 455.64 370.736C455.64 371.996 455.364 373.1 454.812 374.048C454.272 374.984 453.498 375.71 452.49 376.226C451.494 376.742 450.336 377 449.016 377H444.624V364.436H449.016ZM448.926 374.858C450.246 374.858 451.266 374.498 451.986 373.778C452.706 373.058 453.066 372.044 453.066 370.736C453.066 369.428 452.706 368.408 451.986 367.676C451.266 366.932 450.246 366.56 448.926 366.56H447.144V374.858H448.926ZM466.796 371.798C466.796 372.158 466.772 372.482 466.724 372.77H459.434C459.494 373.49 459.746 374.054 460.19 374.462C460.634 374.87 461.18 375.074 461.828 375.074C462.764 375.074 463.43 374.672 463.826 373.868H466.544C466.256 374.828 465.704 375.62 464.888 376.244C464.072 376.856 463.07 377.162 461.882 377.162C460.922 377.162 460.058 376.952 459.29 376.532C458.534 376.1 457.94 375.494 457.508 374.714C457.088 373.934 456.878 373.034 456.878 372.014C456.878 370.982 457.088 370.076 457.508 369.296C457.928 368.516 458.516 367.916 459.272 367.496C460.028 367.076 460.898 366.866 461.882 366.866C462.83 366.866 463.676 367.07 464.42 367.478C465.176 367.886 465.758 368.468 466.166 369.224C466.586 369.968 466.796 370.826 466.796 371.798ZM464.186 371.078C464.174 370.43 463.94 369.914 463.484 369.53C463.028 369.134 462.47 368.936 461.81 368.936C461.186 368.936 460.658 369.128 460.226 369.512C459.806 369.884 459.548 370.406 459.452 371.078H464.186ZM473.208 369.098H471.462V377H468.906V369.098H467.772V367.028H468.906V366.524C468.906 365.3 469.254 364.4 469.95 363.824C470.646 363.248 471.696 362.978 473.1 363.014V365.138C472.488 365.126 472.062 365.228 471.822 365.444C471.582 365.66 471.462 366.05 471.462 366.614V367.028H473.208V369.098ZM476.119 365.84C475.675 365.84 475.303 365.702 475.003 365.426C474.715 365.138 474.571 364.784 474.571 364.364C474.571 363.944 474.715 363.596 475.003 363.32C475.303 363.032 475.675 362.888 476.119 362.888C476.563 362.888 476.929 363.032 477.217 363.32C477.517 363.596 477.667 363.944 477.667 364.364C477.667 364.784 477.517 365.138 477.217 365.426C476.929 365.702 476.563 365.84 476.119 365.84ZM477.361 367.028V377H474.841V367.028H477.361ZM485.376 366.884C486.564 366.884 487.524 367.262 488.256 368.018C488.988 368.762 489.354 369.806 489.354 371.15V377H486.834V371.492C486.834 370.7 486.636 370.094 486.24 369.674C485.844 369.242 485.304 369.026 484.62 369.026C483.924 369.026 483.372 369.242 482.964 369.674C482.568 370.094 482.37 370.7 482.37 371.492V377H479.85V367.028H482.37V368.27C482.706 367.838 483.132 367.502 483.648 367.262C484.176 367.01 484.752 366.884 485.376 366.884ZM501.021 371.798C501.021 372.158 500.997 372.482 500.949 372.77H493.659C493.719 373.49 493.971 374.054 494.415 374.462C494.859 374.87 495.405 375.074 496.053 375.074C496.989 375.074 497.655 374.672 498.051 373.868H500.769C500.481 374.828 499.929 375.62 499.113 376.244C498.297 376.856 497.295 377.162 496.107 377.162C495.147 377.162 494.283 376.952 493.515 376.532C492.759 376.1 492.165 375.494 491.733 374.714C491.313 373.934 491.103 373.034 491.103 372.014C491.103 370.982 491.313 370.076 491.733 369.296C492.153 368.516 492.741 367.916 493.497 367.496C494.253 367.076 495.123 366.866 496.107 366.866C497.055 366.866 497.901 367.07 498.645 367.478C499.401 367.886 499.983 368.468 500.391 369.224C500.811 369.968 501.021 370.826 501.021 371.798ZM498.411 371.078C498.399 370.43 498.165 369.914 497.709 369.53C497.253 369.134 496.695 368.936 496.035 368.936C495.411 368.936 494.883 369.128 494.451 369.512C494.031 369.884 493.773 370.406 493.677 371.078H498.411Z" fill="white"/>
<path d="M259.959 505.436V518H257.439V505.436H259.959ZM261.801 512.978C261.801 511.97 261.999 511.076 262.395 510.296C262.803 509.516 263.355 508.916 264.051 508.496C264.747 508.076 265.521 507.866 266.373 507.866C267.021 507.866 267.639 508.01 268.227 508.298C268.815 508.574 269.283 508.946 269.631 509.414V504.68H272.187V518H269.631V516.524C269.319 517.016 268.881 517.412 268.317 517.712C267.753 518.012 267.099 518.162 266.355 518.162C265.515 518.162 264.747 517.946 264.051 517.514C263.355 517.082 262.803 516.476 262.395 515.696C261.999 514.904 261.801 513.998 261.801 512.978ZM269.649 513.014C269.649 512.402 269.529 511.88 269.289 511.448C269.049 511.004 268.725 510.668 268.317 510.44C267.909 510.2 267.471 510.08 267.003 510.08C266.535 510.08 266.103 510.194 265.707 510.422C265.311 510.65 264.987 510.986 264.735 511.43C264.495 511.862 264.375 512.378 264.375 512.978C264.375 513.578 264.495 514.106 264.735 514.562C264.987 515.006 265.311 515.348 265.707 515.588C266.115 515.828 266.547 515.948 267.003 515.948C267.471 515.948 267.909 515.834 268.317 515.606C268.725 515.366 269.049 515.03 269.289 514.598C269.529 514.154 269.649 513.626 269.649 513.014ZM283.918 512.798C283.918 513.158 283.894 513.482 283.846 513.77H276.556C276.616 514.49 276.868 515.054 277.312 515.462C277.756 515.87 278.302 516.074 278.95 516.074C279.886 516.074 280.552 515.672 280.948 514.868H283.666C283.378 515.828 282.826 516.62 282.01 517.244C281.194 517.856 280.192 518.162 279.004 518.162C278.044 518.162 277.18 517.952 276.412 517.532C275.656 517.1 275.062 516.494 274.63 515.714C274.21 514.934 274 514.034 274 513.014C274 511.982 274.21 511.076 274.63 510.296C275.05 509.516 275.638 508.916 276.394 508.496C277.15 508.076 278.02 507.866 279.004 507.866C279.952 507.866 280.798 508.07 281.542 508.478C282.298 508.886 282.88 509.468 283.288 510.224C283.708 510.968 283.918 511.826 283.918 512.798ZM281.308 512.078C281.296 511.43 281.062 510.914 280.606 510.53C280.15 510.134 279.592 509.936 278.932 509.936C278.308 509.936 277.78 510.128 277.348 510.512C276.928 510.884 276.67 511.406 276.574 512.078H281.308ZM285.11 512.978C285.11 511.97 285.308 511.076 285.704 510.296C286.112 509.516 286.658 508.916 287.342 508.496C288.038 508.076 288.812 507.866 289.664 507.866C290.408 507.866 291.056 508.016 291.608 508.316C292.172 508.616 292.622 508.994 292.958 509.45V508.028H295.496V518H292.958V516.542C292.634 517.01 292.184 517.4 291.608 517.712C291.044 518.012 290.39 518.162 289.646 518.162C288.806 518.162 288.038 517.946 287.342 517.514C286.658 517.082 286.112 516.476 285.704 515.696C285.308 514.904 285.11 513.998 285.11 512.978ZM292.958 513.014C292.958 512.402 292.838 511.88 292.598 511.448C292.358 511.004 292.034 510.668 291.626 510.44C291.218 510.2 290.78 510.08 290.312 510.08C289.844 510.08 289.412 510.194 289.016 510.422C288.62 510.65 288.296 510.986 288.044 511.43C287.804 511.862 287.684 512.378 287.684 512.978C287.684 513.578 287.804 514.106 288.044 514.562C288.296 515.006 288.62 515.348 289.016 515.588C289.424 515.828 289.856 515.948 290.312 515.948C290.78 515.948 291.218 515.834 291.626 515.606C292.034 515.366 292.358 515.03 292.598 514.598C292.838 514.154 292.958 513.626 292.958 513.014ZM300.891 510.098V514.922C300.891 515.258 300.969 515.504 301.125 515.66C301.293 515.804 301.569 515.876 301.953 515.876H303.123V518H301.539C299.415 518 298.353 516.968 298.353 514.904V510.098H297.165V508.028H298.353V505.562H300.891V508.028H303.123V510.098H300.891ZM314.205 512.798C314.205 513.158 314.181 513.482 314.133 513.77H306.843C306.903 514.49 307.155 515.054 307.599 515.462C308.043 515.87 308.589 516.074 309.237 516.074C310.173 516.074 310.839 515.672 311.235 514.868H313.953C313.665 515.828 313.113 516.62 312.297 517.244C311.481 517.856 310.479 518.162 309.291 518.162C308.331 518.162 307.467 517.952 306.699 517.532C305.943 517.1 305.349 516.494 304.917 515.714C304.497 514.934 304.287 514.034 304.287 513.014C304.287 511.982 304.497 511.076 304.917 510.296C305.337 509.516 305.925 508.916 306.681 508.496C307.437 508.076 308.307 507.866 309.291 507.866C310.239 507.866 311.085 508.07 311.829 508.478C312.585 508.886 313.167 509.468 313.575 510.224C313.995 510.968 314.205 511.826 314.205 512.798ZM311.595 512.078C311.583 511.43 311.349 510.914 310.893 510.53C310.437 510.134 309.879 509.936 309.219 509.936C308.595 509.936 308.067 510.128 307.635 510.512C307.215 510.884 306.957 511.406 306.861 512.078H311.595Z" fill="white"/>
<path d="M77.7292 368.324C77.7292 368.996 77.5672 369.626 77.2432 370.214C76.9312 370.802 76.4332 371.276 75.7492 371.636C75.0772 371.996 74.2252 372.176 73.1932 372.176H71.0872V377H68.5672V364.436H73.1932C74.1652 364.436 74.9932 364.604 75.6772 364.94C76.3612 365.276 76.8712 365.738 77.2072 366.326C77.5552 366.914 77.7292 367.58 77.7292 368.324ZM73.0852 370.142C73.7812 370.142 74.2972 369.986 74.6332 369.674C74.9692 369.35 75.1372 368.9 75.1372 368.324C75.1372 367.1 74.4532 366.488 73.0852 366.488H71.0872V370.142H73.0852ZM82.0384 368.576C82.3624 368.048 82.7824 367.634 83.2984 367.334C83.8264 367.034 84.4264 366.884 85.0984 366.884V369.53H84.4324C83.6404 369.53 83.0404 369.716 82.6324 370.088C82.2364 370.46 82.0384 371.108 82.0384 372.032V377H79.5184V367.028H82.0384V368.576ZM91.2237 377.162C90.2637 377.162 89.3997 376.952 88.6317 376.532C87.8637 376.1 87.2577 375.494 86.8137 374.714C86.3817 373.934 86.1657 373.034 86.1657 372.014C86.1657 370.994 86.3877 370.094 86.8317 369.314C87.2877 368.534 87.9057 367.934 88.6857 367.514C89.4657 367.082 90.3357 366.866 91.2957 366.866C92.2557 366.866 93.1257 367.082 93.9057 367.514C94.6857 367.934 95.2977 368.534 95.7417 369.314C96.1977 370.094 96.4257 370.994 96.4257 372.014C96.4257 373.034 96.1917 373.934 95.7237 374.714C95.2677 375.494 94.6437 376.1 93.8517 376.532C93.0717 376.952 92.1957 377.162 91.2237 377.162ZM91.2237 374.966C91.6797 374.966 92.1057 374.858 92.5017 374.642C92.9097 374.414 93.2337 374.078 93.4737 373.634C93.7137 373.19 93.8337 372.65 93.8337 372.014C93.8337 371.066 93.5817 370.34 93.0777 369.836C92.5857 369.32 91.9797 369.062 91.2597 369.062C90.5397 369.062 89.9337 369.32 89.4417 369.836C88.9617 370.34 88.7217 371.066 88.7217 372.014C88.7217 372.962 88.9557 373.694 89.4237 374.21C89.9037 374.714 90.5037 374.966 91.2237 374.966ZM101.208 369.098V373.922C101.208 374.258 101.286 374.504 101.442 374.66C101.61 374.804 101.886 374.876 102.27 374.876H103.44V377H101.856C99.7322 377 98.6702 375.968 98.6702 373.904V369.098H97.4822V367.028H98.6702V364.562H101.208V367.028H103.44V369.098H101.208ZM109.681 377.162C108.721 377.162 107.857 376.952 107.089 376.532C106.321 376.1 105.715 375.494 105.271 374.714C104.839 373.934 104.623 373.034 104.623 372.014C104.623 370.994 104.845 370.094 105.289 369.314C105.745 368.534 106.363 367.934 107.143 367.514C107.923 367.082 108.793 366.866 109.753 366.866C110.713 366.866 111.583 367.082 112.363 367.514C113.143 367.934 113.755 368.534 114.199 369.314C114.655 370.094 114.883 370.994 114.883 372.014C114.883 373.034 114.649 373.934 114.181 374.714C113.725 375.494 113.101 376.1 112.309 376.532C111.529 376.952 110.653 377.162 109.681 377.162ZM109.681 374.966C110.137 374.966 110.563 374.858 110.959 374.642C111.367 374.414 111.691 374.078 111.931 373.634C112.171 373.19 112.291 372.65 112.291 372.014C112.291 371.066 112.039 370.34 111.535 369.836C111.043 369.32 110.437 369.062 109.717 369.062C108.997 369.062 108.391 369.32 107.899 369.836C107.419 370.34 107.179 371.066 107.179 372.014C107.179 372.962 107.413 373.694 107.881 374.21C108.361 374.714 108.961 374.966 109.681 374.966ZM119.665 369.098V373.922C119.665 374.258 119.743 374.504 119.899 374.66C120.067 374.804 120.343 374.876 120.727 374.876H121.897V377H120.313C118.189 377 117.127 375.968 117.127 373.904V369.098H115.939V367.028H117.127V364.562H119.665V367.028H121.897V369.098H119.665ZM133.25 367.028L127.076 381.716H124.394L126.554 376.748L122.558 367.028H125.384L127.958 373.994L130.568 367.028H133.25ZM137.128 368.468C137.452 368.012 137.896 367.634 138.46 367.334C139.036 367.022 139.69 366.866 140.422 366.866C141.274 366.866 142.042 367.076 142.726 367.496C143.422 367.916 143.968 368.516 144.364 369.296C144.772 370.064 144.976 370.958 144.976 371.978C144.976 372.998 144.772 373.904 144.364 374.696C143.968 375.476 143.422 376.082 142.726 376.514C142.042 376.946 141.274 377.162 140.422 377.162C139.69 377.162 139.042 377.012 138.478 376.712C137.926 376.412 137.476 376.034 137.128 375.578V381.752H134.608V367.028H137.128V368.468ZM142.402 371.978C142.402 371.378 142.276 370.862 142.024 370.43C141.784 369.986 141.46 369.65 141.052 369.422C140.656 369.194 140.224 369.08 139.756 369.08C139.3 369.08 138.868 369.2 138.46 369.44C138.064 369.668 137.74 370.004 137.488 370.448C137.248 370.892 137.128 371.414 137.128 372.014C137.128 372.614 137.248 373.136 137.488 373.58C137.74 374.024 138.064 374.366 138.46 374.606C138.868 374.834 139.3 374.948 139.756 374.948C140.224 374.948 140.656 374.828 141.052 374.588C141.46 374.348 141.784 374.006 142.024 373.562C142.276 373.118 142.402 372.59 142.402 371.978ZM156.077 371.798C156.077 372.158 156.053 372.482 156.005 372.77H148.715C148.775 373.49 149.027 374.054 149.471 374.462C149.915 374.87 150.461 375.074 151.109 375.074C152.045 375.074 152.711 374.672 153.107 373.868H155.825C155.537 374.828 154.985 375.62 154.169 376.244C153.353 376.856 152.351 377.162 151.163 377.162C150.203 377.162 149.339 376.952 148.571 376.532C147.815 376.1 147.221 375.494 146.789 374.714C146.369 373.934 146.159 373.034 146.159 372.014C146.159 370.982 146.369 370.076 146.789 369.296C147.209 368.516 147.797 367.916 148.553 367.496C149.309 367.076 150.179 366.866 151.163 366.866C152.111 366.866 152.957 367.07 153.701 367.478C154.457 367.886 155.039 368.468 155.447 369.224C155.867 369.968 156.077 370.826 156.077 371.798ZM153.467 371.078C153.455 370.43 153.221 369.914 152.765 369.53C152.309 369.134 151.751 368.936 151.091 368.936C150.467 368.936 149.939 369.128 149.507 369.512C149.087 369.884 148.829 370.406 148.733 371.078H153.467Z" fill="white"/>
<path d="M146.149 116.436V118.47H142.801V129H140.281V118.47H136.933V116.436H146.149ZM157.258 123.798C157.258 124.158 157.234 124.482 157.186 124.77H149.896C149.956 125.49 150.208 126.054 150.652 126.462C151.096 126.87 151.642 127.074 152.29 127.074C153.226 127.074 153.892 126.672 154.288 125.868H157.006C156.718 126.828 156.166 127.62 155.35 128.244C154.534 128.856 153.532 129.162 152.344 129.162C151.384 129.162 150.52 128.952 149.752 128.532C148.996 128.1 148.402 127.494 147.97 126.714C147.55 125.934 147.34 125.034 147.34 124.014C147.34 122.982 147.55 122.076 147.97 121.296C148.39 120.516 148.978 119.916 149.734 119.496C150.49 119.076 151.36 118.866 152.344 118.866C153.292 118.866 154.138 119.07 154.882 119.478C155.638 119.886 156.22 120.468 156.628 121.224C157.048 121.968 157.258 122.826 157.258 123.798ZM154.648 123.078C154.636 122.43 154.402 121.914 153.946 121.53C153.49 121.134 152.932 120.936 152.272 120.936C151.648 120.936 151.12 121.128 150.688 121.512C150.268 121.884 150.01 122.406 149.914 123.078H154.648ZM162.913 129.162C162.097 129.162 161.365 129.018 160.717 128.73C160.069 128.43 159.553 128.028 159.169 127.524C158.797 127.02 158.593 126.462 158.557 125.85H161.095C161.143 126.234 161.329 126.552 161.653 126.804C161.989 127.056 162.403 127.182 162.895 127.182C163.375 127.182 163.747 127.086 164.011 126.894C164.287 126.702 164.425 126.456 164.425 126.156C164.425 125.832 164.257 125.592 163.921 125.436C163.597 125.268 163.075 125.088 162.355 124.896C161.611 124.716 160.999 124.53 160.519 124.338C160.051 124.146 159.643 123.852 159.295 123.456C158.959 123.06 158.791 122.526 158.791 121.854C158.791 121.302 158.947 120.798 159.259 120.342C159.583 119.886 160.039 119.526 160.627 119.262C161.227 118.998 161.929 118.866 162.733 118.866C163.921 118.866 164.869 119.166 165.577 119.766C166.285 120.354 166.675 121.152 166.747 122.16H164.335C164.299 121.764 164.131 121.452 163.831 121.224C163.543 120.984 163.153 120.864 162.661 120.864C162.205 120.864 161.851 120.948 161.599 121.116C161.359 121.284 161.239 121.518 161.239 121.818C161.239 122.154 161.407 122.412 161.743 122.592C162.079 122.76 162.601 122.934 163.309 123.114C164.029 123.294 164.623 123.48 165.091 123.672C165.559 123.864 165.961 124.164 166.297 124.572C166.645 124.968 166.825 125.496 166.837 126.156C166.837 126.732 166.675 127.248 166.351 127.704C166.039 128.16 165.583 128.52 164.983 128.784C164.395 129.036 163.705 129.162 162.913 129.162ZM171.84 121.098V125.922C171.84 126.258 171.918 126.504 172.074 126.66C172.242 126.804 172.518 126.876 172.902 126.876H174.072V129H172.488C170.364 129 169.302 127.968 169.302 125.904V121.098H168.114V119.028H169.302V116.562H171.84V119.028H174.072V121.098H171.84Z" fill="white"/>
</svg>
