<svg width="669" height="392" viewBox="0 0 669 392" fill="none" xmlns="http://www.w3.org/2000/svg">
<path d="M35.2104 48.4144H669" stroke="#F4F4F4" stroke-width="2.20066"/>
<path d="M35.2104 123.237H669" stroke="#F4F4F4" stroke-width="2.20066"/>
<path d="M35.2104 198.059H669" stroke="#F4F4F4" stroke-width="2.20066"/>
<path d="M35.2104 272.882H669" stroke="#F4F4F4" stroke-width="2.20066"/>
<path d="M299.29 237.671C299.29 235.24 301.26 233.27 303.691 233.27H338.901C341.332 233.27 343.303 235.24 343.303 237.671V347.704H299.29V237.671Z" fill="#5533FF"/>
<path d="M424.727 127.638C424.727 125.207 426.698 123.237 429.128 123.237H464.339C466.77 123.237 468.74 125.207 468.74 127.638V347.704H424.727V127.638Z" fill="#5533FF"/>
<path d="M554.566 237.671C554.566 235.24 556.536 233.27 558.967 233.27H594.178C596.609 233.27 598.579 235.24 598.579 237.671V347.704H554.566V237.671Z" fill="#5533FF"/>
<path d="M345.503 310.293C345.503 307.862 347.474 305.891 349.905 305.891H385.115C387.546 305.891 389.517 307.862 389.517 310.293V347.704H345.503V310.293Z" fill="#E0FA73"/>
<path d="M470.941 52.8157C470.941 50.385 472.911 48.4144 475.342 48.4144H510.553C512.984 48.4144 514.954 50.385 514.954 52.8157V347.704H470.941V52.8157Z" fill="#E0FA73"/>
<path d="M600.78 237.671C600.78 235.24 602.75 233.27 605.181 233.27H640.392C642.822 233.27 644.793 235.24 644.793 237.671V347.704H600.78V237.671Z" fill="#E0FA73"/>
<path d="M35.2104 347.704H669" stroke="white" stroke-width="2.20066"/>
<path d="M601.286 380.617C599.76 380.617 598.432 380.213 597.303 379.406C596.188 378.585 595.52 377.382 595.3 375.797L597.413 375.577C597.574 376.633 598.007 377.433 598.711 377.976C599.43 378.504 600.288 378.768 601.286 378.768C602.328 378.768 603.171 378.467 603.817 377.866C604.462 377.264 604.785 376.465 604.785 375.467C604.785 374.469 604.462 373.685 603.817 373.112C603.186 372.526 602.364 372.232 601.352 372.232C600.061 372.232 598.88 372.724 597.809 373.707L595.85 372.716L597.083 365.212H606.017V367.127H600.846L598.689 367.105L598.513 368.447L598.227 370.119L597.787 371.836L598.007 371.946C599.093 371.007 600.384 370.538 601.88 370.538C603.303 370.538 604.499 370.985 605.467 371.88C606.435 372.76 606.92 373.971 606.92 375.511C606.92 377.037 606.391 378.269 605.335 379.208C604.279 380.147 602.929 380.617 601.286 380.617Z" fill="white"/>
<path d="M473.67 380.507V378.284L473.714 376.633L471.337 376.677H465.241V375.005L473.053 365.212H475.782V372.364L475.76 374.895L478.159 374.851V376.677L475.76 376.633L475.804 378.262V380.507H473.67ZM467.684 374.917L469.334 374.851H471.469L473.714 374.895L473.67 372.43V369.063L473.736 367.281H473.516L472.547 368.777L468.85 373.442L467.684 374.719V374.917Z" fill="white"/>
<path d="M345.899 382.817C344.374 382.817 343.009 382.429 341.806 381.651C340.618 380.859 339.899 379.685 339.65 378.13L341.828 377.91C341.975 378.907 342.43 379.678 343.193 380.221C343.97 380.749 344.858 381.013 345.855 381.013C346.941 381.013 347.814 380.763 348.474 380.265C349.134 379.766 349.465 379.084 349.465 378.218C349.465 377.382 349.142 376.751 348.496 376.325C347.865 375.885 347.022 375.665 345.965 375.665H345.327V373.839H345.965C346.904 373.839 347.638 373.648 348.166 373.266C348.694 372.87 348.958 372.328 348.958 371.638C348.958 370.904 348.687 370.303 348.144 369.833C347.616 369.364 346.89 369.129 345.965 369.129C344.014 369.129 342.848 370.098 342.466 372.034L340.354 371.858C340.574 370.42 341.183 369.305 342.18 368.513C343.193 367.706 344.462 367.303 345.987 367.303C347.484 367.303 348.702 367.706 349.641 368.513C350.594 369.32 351.071 370.332 351.071 371.55C351.071 372.372 350.829 373.039 350.345 373.553C349.875 374.066 349.303 374.403 348.628 374.565V374.851C349.45 374.983 350.147 375.35 350.719 375.951C351.291 376.538 351.577 377.316 351.577 378.284C351.577 379.648 351.049 380.749 349.993 381.585C348.936 382.407 347.572 382.817 345.899 382.817Z" fill="white"/>
<path d="M212.187 380.507V378.658L217.535 375.049C218.181 374.623 218.701 374.257 219.098 373.949C219.494 373.626 219.897 373.259 220.308 372.848C220.719 372.423 221.019 371.99 221.21 371.55C221.416 371.095 221.518 370.618 221.518 370.119C221.518 369.166 221.225 368.41 220.638 367.853C220.066 367.281 219.288 366.995 218.305 366.995C217.308 366.995 216.464 367.31 215.775 367.941C215.1 368.557 214.704 369.408 214.586 370.494L212.496 370.318C212.628 368.762 213.236 367.508 214.322 366.554C215.422 365.586 216.757 365.102 218.327 365.102C219.956 365.102 221.247 365.564 222.2 366.488C223.169 367.398 223.653 368.601 223.653 370.097C223.653 371.374 223.227 372.504 222.377 373.486C221.54 374.455 220.374 375.423 218.877 376.391L215.709 378.482V378.702L217.865 378.636H223.631V380.507H212.187Z" fill="white"/>
<path d="M87.1461 380.507V378.68H89.3247L91.6354 378.724L91.5914 376.237V371.418L91.7455 369.569H91.4814C90.9385 370.611 89.5081 371.132 87.1901 371.132V369.305C88.6425 369.291 89.7795 368.975 90.6011 368.359C91.4227 367.728 91.8628 366.679 91.9215 365.212H93.704V376.237L93.682 378.724L95.6846 378.68H97.3351V380.507H87.1461Z" fill="white"/>
<path d="M11.6855 354.407C10.6145 355.742 9.13273 356.409 7.24016 356.409C5.3476 356.409 3.85115 355.742 2.75082 354.407C1.65049 353.057 1.10033 351.135 1.10033 348.641C1.10033 346.147 1.65049 344.225 2.75082 342.875C3.85115 341.511 5.3476 340.829 7.24016 340.829C9.13273 340.829 10.6145 341.511 11.6855 342.875C12.7712 344.225 13.314 346.147 13.314 348.641C13.314 351.15 12.7712 353.072 11.6855 354.407ZM7.26217 354.517C8.52388 354.517 9.49217 354.011 10.167 352.998C10.8419 351.986 11.1793 350.534 11.1793 348.641C11.1793 346.734 10.8419 345.274 10.167 344.262C9.49217 343.235 8.52388 342.721 7.26217 342.721C5.97112 342.721 4.97349 343.235 4.26928 344.262C3.57974 345.274 3.23497 346.734 3.23497 348.641C3.23497 350.534 3.57974 351.986 4.26928 352.998C4.97349 354.011 5.97112 354.517 7.26217 354.517Z" fill="white"/>
<path d="M0.924276 281.477V279.628L6.27188 276.019C6.9174 275.594 7.43822 275.227 7.83434 274.919C8.23046 274.596 8.63391 274.229 9.0447 273.819C9.45549 273.393 9.75625 272.96 9.94697 272.52C10.1524 272.065 10.2551 271.589 10.2551 271.09C10.2551 270.136 9.96165 269.381 9.3748 268.823C8.80263 268.251 8.02507 267.965 7.04211 267.965C6.04447 267.965 5.20089 268.28 4.51135 268.911C3.83648 269.527 3.44036 270.378 3.32299 271.464L1.23237 271.288C1.36441 269.733 1.97326 268.478 3.05891 267.525C4.15924 266.556 5.49431 266.072 7.06411 266.072C8.6926 266.072 9.98365 266.534 10.9373 267.459C11.9056 268.368 12.3897 269.571 12.3897 271.068C12.3897 272.344 11.9642 273.474 11.1133 274.457C10.2771 275.425 9.11072 276.393 7.61428 277.362L4.44533 279.452V279.672L6.60197 279.606H12.3677V281.477H0.924276Z" fill="white"/>
<path d="M9.33079 206.655V204.432L9.3748 202.781L6.99809 202.825H0.90227V201.153L8.71461 191.36H11.4434V198.512L11.4214 201.043L13.8201 200.999V202.825L11.4214 202.781L11.4654 204.41V206.655H9.33079ZM3.345 201.065L4.99549 200.999H7.13013L9.3748 201.043L9.33079 198.578V195.211L9.39681 193.429H9.17674L8.20845 194.925L4.51135 199.59L3.345 200.867V201.065Z" fill="white"/>
<path d="M7.06411 131.942C6.24253 131.942 5.48697 131.817 4.79743 131.568C4.12257 131.319 3.49905 130.93 2.92687 130.402C2.36938 129.874 1.92924 129.14 1.60648 128.201C1.28372 127.247 1.12234 126.125 1.12234 124.834C1.12234 123.352 1.29839 122.054 1.65049 120.939C2.01727 119.809 2.50141 118.929 3.10293 118.298C3.71911 117.667 4.37931 117.198 5.08352 116.89C5.8024 116.582 6.57263 116.428 7.39421 116.428C8.15711 116.428 8.86865 116.567 9.52885 116.846C10.189 117.11 10.7979 117.587 11.3554 118.276C11.9276 118.966 12.309 119.839 12.4997 120.895L10.4751 121.049C10.2991 120.051 9.91763 119.34 9.33079 118.914C8.74395 118.489 8.07641 118.276 7.32819 118.276C6.15451 118.276 5.18622 118.746 4.42332 119.685C3.66043 120.623 3.21296 122.017 3.08092 123.866L3.32299 123.954C3.73378 123.279 4.29128 122.765 4.99549 122.413C5.6997 122.047 6.47727 121.863 7.32819 121.863C8.97135 121.863 10.2551 122.333 11.1793 123.272C12.1183 124.196 12.5878 125.406 12.5878 126.903C12.5878 128.355 12.0743 129.558 11.0473 130.512C10.0203 131.465 8.6926 131.942 7.06411 131.942ZM6.97609 130.116C8.0324 130.116 8.88332 129.815 9.52885 129.213C10.1744 128.597 10.4971 127.805 10.4971 126.837C10.4971 125.868 10.1817 125.083 9.55086 124.482C8.93467 123.88 8.11309 123.58 7.08612 123.58C6.00046 123.58 5.1202 123.88 4.44533 124.482C3.78513 125.069 3.45503 125.854 3.45503 126.837C3.45503 127.79 3.7778 128.575 4.42332 129.191C5.08352 129.808 5.93444 130.116 6.97609 130.116Z" fill="white"/>
<path d="M6.84405 57.1198C5.03951 57.1198 3.60908 56.709 2.55276 55.8874C1.49645 55.0659 0.96829 54.0169 0.96829 52.7405C0.96829 51.7282 1.25438 50.9139 1.82655 50.2978C2.39872 49.6816 3.05891 49.2855 3.80714 49.1094V48.8453C3.23497 48.6986 2.70681 48.3538 2.22266 47.811C1.75319 47.2535 1.51845 46.5566 1.51845 45.7204C1.51845 44.5027 2.0026 43.5124 2.97089 42.7495C3.93918 41.9866 5.23023 41.6052 6.84405 41.6052C8.44319 41.6052 9.72691 41.9866 10.6952 42.7495C11.6635 43.5124 12.1476 44.5027 12.1476 45.7204C12.1476 46.5566 11.9056 47.2535 11.4214 47.811C10.9519 48.3538 10.4385 48.6986 9.88095 48.8453V49.1094C10.6292 49.2855 11.2894 49.6889 11.8615 50.3198C12.4337 50.9359 12.7198 51.7429 12.7198 52.7405C12.7198 54.0169 12.1843 55.0659 11.1133 55.8874C10.057 56.709 8.63391 57.1198 6.84405 57.1198ZM6.84405 48.2291C7.85635 48.2291 8.63391 48.0237 9.17674 47.613C9.73424 47.1875 10.013 46.586 10.013 45.8084C10.013 45.1189 9.74158 44.5467 9.19875 44.0919C8.65592 43.6224 7.87102 43.3877 6.84405 43.3877C5.81707 43.3877 5.02484 43.6224 4.46734 44.0919C3.92451 44.5467 3.65309 45.1189 3.65309 45.8084C3.65309 46.586 3.93184 47.1875 4.48934 47.613C5.06151 48.0237 5.84641 48.2291 6.84405 48.2291ZM4.09322 54.567C4.75342 55.0805 5.67036 55.3373 6.84405 55.3373C8.01773 55.3373 8.93467 55.0805 9.59487 54.567C10.2551 54.0389 10.5852 53.386 10.5852 52.6084C10.5852 51.7722 10.2551 51.112 9.59487 50.6279C8.93467 50.1437 8.01773 49.9016 6.84405 49.9016C5.67036 49.9016 4.75342 50.1437 4.09322 50.6279C3.43303 51.112 3.10293 51.7722 3.10293 52.6084C3.10293 53.386 3.43303 54.0389 4.09322 54.567Z" fill="white"/>
<rect x="35.2104" y="2.20056" width="22.0066" height="22.0066" rx="4.40132" fill="#5533FF"/>
<path d="M72.1814 19.1759C70.4913 19.1759 69.1357 18.6067 68.1146 17.4682C67.1052 16.3297 66.6005 14.804 66.6005 12.8909C66.6005 11.0012 67.1052 9.4813 68.1146 8.33109C69.1357 7.16914 70.4795 6.58817 72.1462 6.58817C73.6133 6.58817 74.8163 7.00483 75.7552 7.83814C76.6942 8.67146 77.2282 9.82167 77.3573 11.2888L75.6144 11.4296C75.5205 10.385 75.1625 9.56932 74.5405 8.98248C73.9184 8.39564 73.1203 8.10222 72.1462 8.10222C70.996 8.10222 70.0746 8.54235 69.3821 9.42261C68.6897 10.2911 68.3434 11.4472 68.3434 12.8909C68.3434 14.3462 68.6897 15.5082 69.3821 16.3767C70.0863 17.2335 71.0194 17.6619 72.1814 17.6619C73.1907 17.6619 74.0123 17.3685 74.6461 16.7816C75.2916 16.183 75.6731 15.3497 75.7905 14.2817L77.4806 14.4225C77.3397 15.9131 76.794 17.0809 75.8433 17.926C74.8926 18.7593 73.672 19.1759 72.1814 19.1759ZM85.5182 17.9436C84.7788 18.7651 83.787 19.1759 82.5429 19.1759C81.2988 19.1759 80.3012 18.7651 79.55 17.9436C78.8106 17.1102 78.4409 16.0011 78.4409 14.6162C78.4409 13.2195 78.8106 12.1045 79.55 11.2712C80.3012 10.4379 81.2988 10.0212 82.5429 10.0212C83.787 10.0212 84.7788 10.4379 85.5182 11.2712C86.2576 12.1045 86.6273 13.2195 86.6273 14.6162C86.6273 16.0129 86.2576 17.122 85.5182 17.9436ZM80.7472 16.9225C81.1932 17.4741 81.7917 17.7499 82.5429 17.7499C83.2941 17.7499 83.8809 17.4741 84.3034 16.9225C84.7377 16.3591 84.9548 15.5845 84.9548 14.5986C84.9548 13.6127 84.7377 12.8439 84.3034 12.2923C83.8809 11.7289 83.2941 11.4472 82.5429 11.4472C81.7917 11.4472 81.1932 11.7289 80.7472 12.2923C80.3129 12.8439 80.0958 13.6127 80.0958 14.5986C80.0958 15.5845 80.3129 16.3591 80.7472 16.9225ZM87.9202 18.9999V10.1972H89.6103V10.7782L89.4871 11.8521H89.7335C90.4612 10.6785 91.4882 10.0916 92.8145 10.0916C93.7417 10.0916 94.4694 10.3909 94.9975 10.9895C95.5374 11.5881 95.8074 12.4625 95.8074 13.6127V18.9999H94.1173V13.9472C94.1173 12.3627 93.46 11.5705 92.1455 11.5705C91.4295 11.5705 90.8251 11.8404 90.3321 12.3803C89.8509 12.9202 89.6103 13.689 89.6103 14.6866V18.9999H87.9202ZM101.103 19.1759C99.8238 19.1759 98.8086 18.7534 98.0574 17.9084C97.318 17.0633 96.9483 15.9659 96.9483 14.6162C96.9483 13.2547 97.318 12.1514 98.0574 11.3064C98.8086 10.4496 99.8179 10.0212 101.086 10.0212C102.165 10.0212 103.051 10.3205 103.744 10.9191C104.436 11.5176 104.841 12.3568 104.959 13.4366L103.357 13.5775C103.263 12.8732 103.01 12.3392 102.6 11.9754C102.201 11.6115 101.69 11.4296 101.068 11.4296C100.293 11.4296 99.6829 11.7172 99.2369 12.2923C98.8027 12.8556 98.5856 13.6303 98.5856 14.6162C98.5856 15.5669 98.8086 16.3297 99.2546 16.9049C99.7123 17.4682 100.328 17.7499 101.103 17.7499C101.737 17.7499 102.253 17.5739 102.652 17.2217C103.063 16.8579 103.321 16.318 103.427 15.6021L105.011 15.7429C104.906 16.8227 104.501 17.6677 103.797 18.2781C103.104 18.8766 102.206 19.1759 101.103 19.1759ZM110.005 19.1759C108.749 19.1759 107.734 18.7769 106.959 17.9788C106.197 17.1689 105.815 16.0481 105.815 14.6162C105.815 13.2077 106.185 12.0927 106.924 11.2712C107.664 10.4379 108.661 10.0212 109.917 10.0212C111.161 10.0212 112.141 10.4144 112.857 11.2007C113.573 11.9871 113.931 13.1021 113.931 14.5457C113.931 14.8274 113.925 15.0211 113.914 15.1267H108.65L107.452 15.1091C107.499 15.9424 107.746 16.5938 108.192 17.0633C108.65 17.521 109.254 17.7499 110.005 17.7499C111.273 17.7499 112.047 17.2041 112.329 16.1126L113.843 16.2711C113.62 17.1983 113.168 17.9142 112.488 18.4189C111.807 18.9236 110.979 19.1759 110.005 19.1759ZM107.488 13.8591L108.685 13.8239H111.114L112.329 13.8591C112.27 13.0493 112.018 12.4449 111.572 12.0458C111.138 11.635 110.586 11.4296 109.917 11.4296C109.236 11.4296 108.673 11.635 108.227 12.0458C107.793 12.4566 107.546 13.061 107.488 13.8591ZM115.277 23.2251V10.1972H116.967V10.7782L116.862 11.7817H117.091C117.677 10.655 118.622 10.0916 119.925 10.0916C120.958 10.0916 121.821 10.4965 122.513 11.3064C123.206 12.1162 123.552 13.2136 123.552 14.5986C123.552 15.9718 123.206 17.0692 122.513 17.8907C121.821 18.7006 120.958 19.1055 119.925 19.1055C119.256 19.1055 118.675 18.9471 118.182 18.6302C117.701 18.3015 117.337 17.8907 117.091 17.3978H116.862L116.967 18.4717V23.2251H115.277ZM119.415 17.6619C120.13 17.6619 120.711 17.3919 121.157 16.852C121.603 16.3004 121.826 15.5492 121.826 14.5986C121.826 13.6479 121.603 12.9026 121.157 12.3627C120.711 11.8111 120.13 11.5352 119.415 11.5352C118.675 11.5352 118.082 11.8052 117.636 12.3451C117.202 12.885 116.985 13.6361 116.985 14.5986C116.985 15.5492 117.208 16.3004 117.654 16.852C118.1 17.3919 118.687 17.6619 119.415 17.6619ZM128.547 19.0879C126.763 19.0879 125.871 18.1431 125.871 16.2535V11.6057L124.902 11.6585H124.057V10.1972H124.902L125.906 10.2501L125.871 9.35219V7.62688H127.543V9.35219L127.49 10.2501L128.441 10.1972H129.761V11.6585H128.441L127.543 11.6057V16.1654C127.543 17.1396 127.966 17.6267 128.811 17.6267C129.057 17.6267 129.374 17.6032 129.761 17.5562V18.9823C129.257 19.0527 128.852 19.0879 128.547 19.0879ZM134.98 18.9999L140.12 6.76422H142.075L147.215 18.9999H145.332L144.099 15.919L139.962 15.9366L138.113 15.919L136.881 18.9999H134.98ZM138.659 14.4929L139.962 14.4577H142.251L143.554 14.4929L143.201 13.6303L141.476 9.47543L141.194 8.45432H141.001L140.754 9.47543L138.994 13.6303L138.659 14.4929Z" fill="white"/>
<rect x="171.651" y="2.20056" width="22.0066" height="22.0066" rx="4.40132" fill="#E0FA73"/>
<path d="M208.622 19.1759C206.932 19.1759 205.577 18.6067 204.555 17.4682C203.546 16.3297 203.041 14.804 203.041 12.8909C203.041 11.0012 203.546 9.4813 204.555 8.33109C205.577 7.16914 206.92 6.58817 208.587 6.58817C210.054 6.58817 211.257 7.00483 212.196 7.83814C213.135 8.67146 213.669 9.82167 213.798 11.2888L212.055 11.4296C211.961 10.385 211.603 9.56932 210.981 8.98248C210.359 8.39564 209.561 8.10222 208.587 8.10222C207.437 8.10222 206.516 8.54235 205.823 9.42261C205.131 10.2911 204.784 11.4472 204.784 12.8909C204.784 14.3462 205.131 15.5082 205.823 16.3767C206.527 17.2335 207.46 17.6619 208.622 17.6619C209.632 17.6619 210.453 17.3685 211.087 16.7816C211.733 16.183 212.114 15.3497 212.231 14.2817L213.921 14.4225C213.781 15.9131 213.235 17.0809 212.284 17.926C211.334 18.7593 210.113 19.1759 208.622 19.1759ZM221.959 17.9436C221.22 18.7651 220.228 19.1759 218.984 19.1759C217.74 19.1759 216.742 18.7651 215.991 17.9436C215.251 17.1102 214.882 16.0011 214.882 14.6162C214.882 13.2195 215.251 12.1045 215.991 11.2712C216.742 10.4379 217.74 10.0212 218.984 10.0212C220.228 10.0212 221.22 10.4379 221.959 11.2712C222.699 12.1045 223.068 13.2195 223.068 14.6162C223.068 16.0129 222.699 17.122 221.959 17.9436ZM217.188 16.9225C217.634 17.4741 218.233 17.7499 218.984 17.7499C219.735 17.7499 220.322 17.4741 220.744 16.9225C221.179 16.3591 221.396 15.5845 221.396 14.5986C221.396 13.6127 221.179 12.8439 220.744 12.2923C220.322 11.7289 219.735 11.4472 218.984 11.4472C218.233 11.4472 217.634 11.7289 217.188 12.2923C216.754 12.8439 216.537 13.6127 216.537 14.5986C216.537 15.5845 216.754 16.3591 217.188 16.9225ZM224.361 18.9999V10.1972H226.051V10.7782L225.928 11.8521H226.174C226.902 10.6785 227.929 10.0916 229.255 10.0916C230.183 10.0916 230.91 10.3909 231.438 10.9895C231.978 11.5881 232.248 12.4625 232.248 13.6127V18.9999H230.558V13.9472C230.558 12.3627 229.901 11.5705 228.586 11.5705C227.87 11.5705 227.266 11.8404 226.773 12.3803C226.292 12.9202 226.051 13.689 226.051 14.6866V18.9999H224.361ZM237.544 19.1759C236.265 19.1759 235.249 18.7534 234.498 17.9084C233.759 17.0633 233.389 15.9659 233.389 14.6162C233.389 13.2547 233.759 12.1514 234.498 11.3064C235.249 10.4496 236.259 10.0212 237.526 10.0212C238.606 10.0212 239.492 10.3205 240.185 10.9191C240.877 11.5176 241.282 12.3568 241.4 13.4366L239.797 13.5775C239.704 12.8732 239.451 12.3392 239.04 11.9754C238.641 11.6115 238.131 11.4296 237.509 11.4296C236.734 11.4296 236.124 11.7172 235.678 12.2923C235.244 12.8556 235.026 13.6303 235.026 14.6162C235.026 15.5669 235.249 16.3297 235.695 16.9049C236.153 17.4682 236.769 17.7499 237.544 17.7499C238.178 17.7499 238.694 17.5739 239.093 17.2217C239.504 16.8579 239.762 16.318 239.868 15.6021L241.452 15.7429C241.347 16.8227 240.942 17.6677 240.238 18.2781C239.545 18.8766 238.647 19.1759 237.544 19.1759ZM246.446 19.1759C245.19 19.1759 244.175 18.7769 243.4 17.9788C242.637 17.1689 242.256 16.0481 242.256 14.6162C242.256 13.2077 242.626 12.0927 243.365 11.2712C244.105 10.4379 245.102 10.0212 246.358 10.0212C247.602 10.0212 248.582 10.4144 249.298 11.2007C250.014 11.9871 250.372 13.1021 250.372 14.5457C250.372 14.8274 250.366 15.0211 250.354 15.1267H245.09L243.893 15.1091C243.94 15.9424 244.187 16.5938 244.633 17.0633C245.09 17.521 245.695 17.7499 246.446 17.7499C247.714 17.7499 248.488 17.2041 248.77 16.1126L250.284 16.2711C250.061 17.1983 249.609 17.9142 248.928 18.4189C248.248 18.9236 247.42 19.1759 246.446 19.1759ZM243.929 13.8591L245.126 13.8239H247.555L248.77 13.8591C248.711 13.0493 248.459 12.4449 248.013 12.0458C247.579 11.635 247.027 11.4296 246.358 11.4296C245.677 11.4296 245.114 11.635 244.668 12.0458C244.234 12.4566 243.987 13.061 243.929 13.8591ZM251.718 23.2251V10.1972H253.408V10.7782L253.303 11.7817H253.532C254.118 10.655 255.063 10.0916 256.366 10.0916C257.399 10.0916 258.261 10.4965 258.954 11.3064C259.646 12.1162 259.993 13.2136 259.993 14.5986C259.993 15.9718 259.646 17.0692 258.954 17.8907C258.261 18.7006 257.399 19.1055 256.366 19.1055C255.697 19.1055 255.116 18.9471 254.623 18.6302C254.142 18.3015 253.778 17.8907 253.532 17.3978H253.303L253.408 18.4717V23.2251H251.718ZM255.855 17.6619C256.571 17.6619 257.152 17.3919 257.598 16.852C258.044 16.3004 258.267 15.5492 258.267 14.5986C258.267 13.6479 258.044 12.9026 257.598 12.3627C257.152 11.8111 256.571 11.5352 255.855 11.5352C255.116 11.5352 254.523 11.8052 254.077 12.3451C253.643 12.885 253.426 13.6361 253.426 14.5986C253.426 15.5492 253.649 16.3004 254.095 16.852C254.541 17.3919 255.128 17.6619 255.855 17.6619ZM264.987 19.0879C263.203 19.0879 262.311 18.1431 262.311 16.2535V11.6057L261.343 11.6585H260.498V10.1972H261.343L262.347 10.2501L262.311 9.35219V7.62688H263.984V9.35219L263.931 10.2501L264.882 10.1972H266.202V11.6585H264.882L263.984 11.6057V16.1654C263.984 17.1396 264.406 17.6267 265.252 17.6267C265.498 17.6267 265.815 17.6032 266.202 17.5562V18.9823C265.698 19.0527 265.293 19.0879 264.987 19.0879ZM272.319 18.9999V6.76422H277.459C280.253 6.76422 281.649 7.83814 281.649 9.98598C281.649 10.6785 281.462 11.2477 281.086 11.6937C280.722 12.1397 280.253 12.4272 279.678 12.5564V12.7676C280.323 12.9085 280.845 13.2312 281.244 13.7359C281.643 14.2406 281.843 14.8626 281.843 15.6021C281.843 16.7171 281.467 17.5621 280.716 18.1372C279.977 18.7123 278.926 18.9999 277.565 18.9999H272.319ZM274.009 12.0106L275.435 11.9754H277.547C279.19 11.9754 280.012 11.3475 280.012 10.0916C280.012 8.82404 279.19 8.19025 277.547 8.19025H275.435L274.026 8.17264L274.044 9.3698V10.7254L274.009 12.0106ZM274.009 17.5915L275.417 17.5739H277.6C279.314 17.5739 280.17 16.8814 280.17 15.4964C280.17 14.1232 279.314 13.4366 277.6 13.4366H275.417L274.009 13.4014L274.044 14.7042V16.2711L274.009 17.5915Z" fill="white"/>
</svg>
