<svg width="457" height="489" viewBox="0 0 457 489" fill="none" xmlns="http://www.w3.org/2000/svg">
<g id="Group 2389">
<path id="Vector 49" d="M258.717 25.824C255.839 21.2185 230.638 24.5953 226.088 24.5953C213.289 24.5953 200.45 24.3112 187.657 24.8001C162.511 25.7611 139.984 35.1648 117.894 46.8485C74.2671 69.924 39.294 103.389 27.9942 153.063C22.9178 175.379 22.3782 200.884 23.489 223.236C25.2244 258.155 31.1564 305.709 39.5986 339.689C45.056 361.655 52.8913 384.777 67.4492 402.763C71.5261 407.799 87.7499 418.976 93.3885 422.558C140.55 452.525 195.522 473.417 251.959 462.901C280.554 457.573 307.273 444.77 332.439 430.613C352.54 419.307 369.56 408.104 384.045 389.998C415.235 351.011 428.641 302.019 432.92 253.134C435.384 224.983 432.529 200.193 422.066 173.746C413.201 151.335 401.592 124.982 383.294 108.488C371.349 97.7206 355.756 92.2225 342.406 83.573C329.698 75.3402 318.44 67.1958 303.36 63.9138C283.769 59.6499 264.204 58.4476 244.246 57.4972C238.216 57.2101 227.102 58.8099 221.856 55.3129" stroke="black" stroke-width="46" stroke-linecap="round"/>
<g id="ogon">
<path id="Vector 50" d="M155.506 180.641C155.506 190.987 156.873 192.928 167.725 192.928C177.274 192.928 171.466 182.684 165.336 180.641" stroke="black" stroke-width="46" stroke-linecap="round"/>
<path id="Vector 51" d="M296.807 181.869C292.071 182.461 297.186 198.597 299.538 194.156C303.846 186.017 301.877 184.021 293.121 178.183" stroke="black" stroke-width="46" stroke-linecap="round"/>
</g>
<path id="Vector 52" d="M111.273 255.591C111.273 307.024 169.089 338.43 214.484 337.914C236.795 337.661 263.21 327.852 281.312 315.32C284.979 312.781 286.57 305.509 288.957 301.531C292.37 295.843 296.149 290.46 300.288 285.285C300.462 285.067 302.46 282.522 300.357 284.534C295.627 289.058 290.711 293.114 285.749 297.367" stroke="black" stroke-width="46" stroke-linecap="round"/>
</g>
</svg>
