<svg width="416" height="341" viewBox="0 0 416 341" fill="none" xmlns="http://www.w3.org/2000/svg">
<g clip-path="url(#clip0_80_169)">
<rect width="416" height="341" fill="#A6ECB0"/>
<path d="M96.7313 148.405C96.0319 148.403 95.3351 148.49 94.6575 148.664V148.405C94.6593 146.527 94.024 144.704 92.8554 143.234C91.6868 141.764 90.054 140.735 88.2241 140.313C86.3943 139.892 84.4756 140.104 82.7818 140.914C81.088 141.725 79.7193 143.086 78.8996 144.776C77.6442 144.306 76.2938 144.148 74.9638 144.314C73.6339 144.481 72.3641 144.967 71.2631 145.731C70.1621 146.496 69.2627 147.515 68.642 148.703C68.0213 149.891 67.6976 151.212 67.6988 152.552V165.728C66.3479 164.187 64.4745 163.201 62.4396 162.959C60.4046 162.717 58.3522 163.237 56.678 164.419C55.0037 165.601 53.8261 167.36 53.3721 169.358C52.9182 171.357 53.22 173.452 54.2194 175.242C62.4677 192.627 67.5303 200.248 81.1781 200.248C87.501 200.241 93.5628 197.727 98.0337 193.256C102.505 188.785 105.019 182.723 105.026 176.4V156.7C105.026 154.5 104.152 152.39 102.597 150.834C101.041 149.279 98.9312 148.405 96.7313 148.405ZM98.805 176.4C98.7995 181.073 96.9407 185.554 93.6362 188.858C90.3317 192.163 85.8514 194.022 81.1781 194.027C71.8903 194.027 68.2924 190.398 59.7978 172.476C59.7615 172.4 59.7226 172.325 59.6811 172.253C59.4232 171.778 59.3609 171.221 59.5076 170.7C59.6542 170.18 59.9982 169.738 60.4663 169.467C60.9344 169.197 61.4895 169.12 62.0134 169.253C62.5374 169.386 62.9887 169.718 63.2713 170.179L63.3257 170.27L68.168 178.046C68.5251 178.621 69.0597 179.063 69.6908 179.306C70.3219 179.549 71.015 179.58 71.6652 179.394C72.3154 179.208 72.8873 178.815 73.2941 178.275C73.701 177.735 73.9207 177.077 73.92 176.4V152.552C73.92 152.002 74.1385 151.475 74.5274 151.086C74.9163 150.697 75.4438 150.478 75.9938 150.478C76.5438 150.478 77.0712 150.697 77.4601 151.086C77.849 151.475 78.0675 152.002 78.0675 152.552V168.105C78.0675 168.93 78.3952 169.721 78.9786 170.305C79.562 170.888 80.3532 171.216 81.1781 171.216C82.0031 171.216 82.7943 170.888 83.3777 170.305C83.961 169.721 84.2888 168.93 84.2888 168.105V148.405C84.2888 147.855 84.5073 147.327 84.8962 146.938C85.2851 146.549 85.8125 146.331 86.3625 146.331C86.9125 146.331 87.44 146.549 87.8289 146.938C88.2178 147.327 88.4363 147.855 88.4363 148.405V168.105C88.4363 168.93 88.764 169.721 89.3474 170.305C89.9307 170.888 90.7219 171.216 91.5469 171.216C92.3719 171.216 93.1631 170.888 93.7464 170.305C94.3298 169.721 94.6575 168.93 94.6575 168.105V156.7C94.6575 156.15 94.876 155.622 95.2649 155.233C95.6538 154.844 96.1813 154.626 96.7313 154.626C97.2813 154.626 97.8087 154.844 98.1976 155.233C98.5865 155.622 98.805 156.15 98.805 156.7V176.4Z" fill="#05440E"/>
<path d="M189.397 163.958C189.397 164.783 189.07 165.575 188.486 166.158C187.903 166.741 187.112 167.069 186.287 167.069C185.462 167.069 184.671 166.741 184.087 166.158C183.504 165.575 183.176 164.783 183.176 163.958C183.176 159.284 181.319 154.8 178.013 151.494C174.708 148.189 170.224 146.332 165.549 146.332C160.874 146.332 156.391 148.189 153.085 151.494C149.78 154.8 147.922 159.284 147.922 163.958C147.922 170.439 149.887 172.331 152.161 174.524C154.434 176.717 157.254 179.436 157.254 185.733C157.254 187.933 158.128 190.043 159.684 191.598C161.239 193.154 163.349 194.028 165.549 194.028C167.882 194.028 169.746 193.069 171.447 191.011C171.978 190.395 172.729 190.012 173.54 189.943C174.35 189.875 175.155 190.127 175.782 190.645C176.409 191.163 176.809 191.906 176.894 192.714C176.98 193.523 176.746 194.333 176.242 194.971C173.349 198.473 169.751 200.249 165.549 200.249C161.701 200.245 158.011 198.714 155.289 195.993C152.568 193.271 151.037 189.582 151.033 185.733C151.033 182.08 149.833 180.922 147.842 178.993C145.105 176.365 141.701 173.08 141.701 163.958C141.701 157.634 144.214 151.568 148.686 147.095C153.159 142.623 159.224 140.11 165.549 140.11C171.874 140.11 177.94 142.623 182.412 147.095C186.885 151.568 189.397 157.634 189.397 163.958ZM178.995 177.855C178.641 177.651 178.251 177.518 177.846 177.464C177.441 177.41 177.029 177.437 176.634 177.542C176.239 177.648 175.869 177.83 175.545 178.078C175.221 178.327 174.948 178.637 174.744 178.991C174.63 179.189 174.454 179.344 174.243 179.432C174.031 179.52 173.797 179.536 173.576 179.476C173.355 179.417 173.16 179.287 173.021 179.105C172.882 178.923 172.807 178.701 172.807 178.472C172.807 176.499 173.754 175.139 175.296 173.08C176.955 170.867 179.029 168.106 179.029 163.958C179.029 160.384 177.609 156.955 175.081 154.427C172.553 151.899 169.124 150.479 165.549 150.479C161.974 150.479 158.546 151.899 156.018 154.427C153.49 156.955 152.07 160.384 152.07 163.958C152.07 164.783 152.398 165.575 152.981 166.158C153.564 166.741 154.356 167.069 155.181 167.069C156.006 167.069 156.797 166.741 157.38 166.158C157.963 165.575 158.291 164.783 158.291 163.958C158.291 162.034 159.056 160.187 160.417 158.826C161.778 157.465 163.624 156.7 165.549 156.7C167.474 156.7 169.32 157.465 170.682 158.826C172.043 160.187 172.807 162.034 172.807 163.958C172.807 165.931 171.861 167.292 170.319 169.35C168.66 171.567 166.586 174.327 166.586 178.475C166.586 180.073 167.113 181.626 168.086 182.894C169.059 184.161 170.422 185.073 171.966 185.486C173.509 185.9 175.146 185.792 176.622 185.181C178.098 184.569 179.332 183.488 180.13 182.104C180.543 181.39 180.655 180.541 180.442 179.744C180.229 178.948 179.709 178.268 178.995 177.855Z" fill="#05440E"/>
<path d="M282.064 169.143C282.06 166.313 281.286 163.537 279.825 161.113C278.364 158.689 276.27 156.708 273.769 155.384C273.71 152.637 272.814 149.973 271.199 147.749C269.584 145.526 267.329 143.849 264.734 142.943C262.14 142.038 259.33 141.947 256.683 142.683C254.035 143.419 251.676 144.946 249.92 147.061C248.165 144.946 245.806 143.419 243.158 142.683C240.511 141.947 237.701 142.038 235.107 142.943C232.512 143.849 230.257 145.526 228.642 147.749C227.027 149.973 226.131 152.637 226.072 155.384C223.568 156.705 221.472 158.684 220.01 161.108C218.548 163.532 217.775 166.31 217.775 169.141C217.775 171.972 218.548 174.749 220.01 177.173C221.472 179.598 223.568 181.577 226.072 182.898C226.13 185.645 227.025 188.31 228.64 190.534C230.254 192.759 232.51 194.436 235.105 195.342C237.699 196.249 240.509 196.34 243.157 195.604C245.805 194.869 248.165 193.341 249.92 191.226C251.676 193.341 254.036 194.869 256.684 195.604C259.332 196.34 262.142 196.249 264.736 195.342C267.331 194.436 269.587 192.759 271.201 190.534C272.816 188.31 273.711 185.645 273.769 182.898C276.271 181.576 278.366 179.596 279.827 177.173C281.289 174.75 282.062 171.973 282.064 169.143ZM239.552 189.881C237.986 189.881 236.462 189.374 235.207 188.436C233.953 187.499 233.035 186.18 232.592 184.678C232.851 184.678 233.082 184.696 233.33 184.696H235.404C236.229 184.696 237.02 184.369 237.604 183.785C238.187 183.202 238.515 182.411 238.515 181.586C238.515 180.761 238.187 179.97 237.604 179.386C237.02 178.803 236.229 178.475 235.404 178.475H233.33C231.128 178.477 228.996 177.699 227.311 176.28C225.627 174.861 224.499 172.892 224.126 170.721C223.754 168.55 224.161 166.318 225.277 164.419C226.392 162.519 228.143 161.076 230.22 160.343C230.827 160.128 231.352 159.731 231.723 159.205C232.095 158.68 232.294 158.052 232.294 157.409V155.664C232.294 153.739 233.058 151.893 234.419 150.532C235.781 149.171 237.627 148.406 239.552 148.406C241.477 148.406 243.323 149.171 244.684 150.532C246.045 151.893 246.81 153.739 246.81 155.664V171.264C246.215 170.882 245.591 170.549 244.943 170.266C244.187 169.936 243.331 169.92 242.563 170.221C241.795 170.523 241.178 171.117 240.848 171.873C240.518 172.629 240.502 173.486 240.803 174.254C241.105 175.022 241.699 175.639 242.455 175.969C243.984 176.635 245.238 177.808 246.004 179.29C246.77 180.772 247.002 182.472 246.661 184.105C246.321 185.739 245.428 187.204 244.133 188.256C242.838 189.308 241.22 189.882 239.552 189.881ZM266.51 178.475H264.437C263.612 178.475 262.821 178.803 262.237 179.386C261.654 179.97 261.326 180.761 261.326 181.586C261.326 182.411 261.654 183.202 262.237 183.785C262.821 184.369 263.612 184.696 264.437 184.696H266.51C266.77 184.696 267.003 184.696 267.249 184.678C266.904 185.849 266.268 186.914 265.402 187.775C264.536 188.635 263.466 189.263 262.293 189.6C261.119 189.937 259.88 189.973 258.689 189.704C257.498 189.435 256.394 188.87 255.479 188.061C254.565 187.252 253.869 186.226 253.456 185.076C253.044 183.927 252.928 182.693 253.119 181.487C253.311 180.281 253.803 179.143 254.551 178.178C255.299 177.213 256.279 176.452 257.399 175.966C258.155 175.636 258.749 175.019 259.051 174.251C259.352 173.483 259.336 172.627 259.006 171.87C258.676 171.114 258.059 170.52 257.291 170.219C256.523 169.917 255.667 169.933 254.91 170.263C254.263 170.546 253.639 170.88 253.044 171.261V155.664C253.044 153.739 253.809 151.893 255.17 150.532C256.531 149.171 258.377 148.406 260.302 148.406C262.227 148.406 264.073 149.171 265.434 150.532C266.796 151.893 267.56 153.739 267.56 155.664V157.409C267.56 158.052 267.759 158.68 268.131 159.205C268.502 159.731 269.027 160.128 269.634 160.343C271.72 161.069 273.482 162.512 274.604 164.414C275.727 166.317 276.138 168.556 275.765 170.733C275.392 172.911 274.258 174.885 272.566 176.305C270.874 177.725 268.733 178.499 266.523 178.488L266.51 178.475ZM270.658 167.07C270.658 167.895 270.33 168.686 269.747 169.269C269.164 169.853 268.372 170.18 267.547 170.18C264.797 170.18 262.16 169.088 260.216 167.143C258.271 165.199 257.179 162.561 257.179 159.811V158.775C257.179 157.95 257.506 157.158 258.09 156.575C258.673 155.992 259.464 155.664 260.289 155.664C261.114 155.664 261.905 155.992 262.489 156.575C263.072 157.158 263.4 157.95 263.4 158.775V159.811C263.4 160.911 263.837 161.966 264.615 162.744C265.392 163.522 266.447 163.959 267.547 163.959C268.372 163.959 269.164 164.287 269.747 164.87C270.33 165.453 270.658 166.245 270.658 167.07ZM242.662 159.811C242.662 162.561 241.57 165.199 239.625 167.143C237.681 169.088 235.044 170.18 232.294 170.18C231.469 170.18 230.677 169.853 230.094 169.269C229.511 168.686 229.183 167.895 229.183 167.07C229.183 166.245 229.511 165.453 230.094 164.87C230.677 164.287 231.469 163.959 232.294 163.959C233.394 163.959 234.449 163.522 235.226 162.744C236.004 161.966 236.441 160.911 236.441 159.811V158.775C236.441 157.95 236.769 157.158 237.352 156.575C237.936 155.992 238.727 155.664 239.552 155.664C240.377 155.664 241.168 155.992 241.751 156.575C242.335 157.158 242.662 157.95 242.662 158.775V159.811Z" fill="#05440E"/>
<path d="M366.173 168.917C366.077 168.707 363.806 163.665 358.79 158.65C352.079 151.949 343.621 148.405 334.289 148.405C324.957 148.405 316.499 151.949 309.795 158.65C304.779 163.665 302.509 168.707 302.405 168.917C302.229 169.315 302.139 169.746 302.139 170.181C302.139 170.616 302.229 171.046 302.405 171.445C302.501 171.657 304.772 176.696 309.79 181.712C316.499 188.413 324.957 191.954 334.289 191.954C343.621 191.954 352.079 188.413 358.78 181.712C363.798 176.696 366.069 171.657 366.165 171.445C366.342 171.047 366.434 170.617 366.435 170.182C366.437 169.747 366.347 169.316 366.173 168.917ZM354.233 177.471C348.668 182.951 341.959 185.733 334.289 185.733C326.619 185.733 319.91 182.951 314.352 177.469C312.166 175.305 310.284 172.853 308.761 170.18C310.285 167.508 312.166 165.056 314.352 162.893C319.913 157.408 326.619 154.627 334.289 154.627C341.959 154.627 348.665 157.408 354.225 162.893C356.412 165.056 358.293 167.508 359.817 170.18C358.293 172.852 356.412 175.305 354.225 177.469L354.233 177.471ZM334.289 158.774C332.033 158.774 329.828 159.443 327.952 160.696C326.077 161.949 324.615 163.731 323.751 165.815C322.888 167.899 322.662 170.192 323.102 172.405C323.543 174.617 324.629 176.65 326.224 178.245C327.819 179.84 329.851 180.926 332.064 181.366C334.276 181.806 336.57 181.58 338.654 180.717C340.738 179.854 342.519 178.392 343.772 176.516C345.026 174.641 345.695 172.435 345.695 170.18C345.691 167.156 344.488 164.257 342.35 162.118C340.212 159.98 337.313 158.777 334.289 158.774ZM334.289 175.364C333.264 175.364 332.261 175.06 331.409 174.49C330.556 173.921 329.892 173.111 329.499 172.164C329.107 171.216 329.004 170.174 329.204 169.168C329.404 168.163 329.898 167.239 330.623 166.514C331.348 165.789 332.272 165.295 333.277 165.095C334.283 164.895 335.326 164.998 336.273 165.39C337.22 165.782 338.03 166.447 338.6 167.299C339.169 168.152 339.473 169.154 339.473 170.18C339.473 171.555 338.927 172.873 337.955 173.846C336.983 174.818 335.664 175.364 334.289 175.364Z" fill="#05440E"/>
</g>
<defs>
<clipPath id="clip0_80_169">
<rect width="416" height="341" fill="white"/>
</clipPath>
</defs>
</svg>
