<svg width="1554" height="223" viewBox="0 0 1554 223" fill="none" xmlns="http://www.w3.org/2000/svg">
<path d="M10.6182 156.89C10.6182 130.146 2.57602 92.2781 22.3486 71.3756C39.2667 53.4908 65.1031 34.9017 90.8541 34.4249C115.017 33.9774 133.489 40.3229 147.747 60.8183C160.776 79.5482 162.255 113.715 155.254 134.72C148.909 153.755 136.434 161.675 116.192 161.113C92.1879 160.446 86.6312 122.637 86.6312 105.159C86.6312 39.7215 173.425 5.25261 227.63 29.7327C248.179 39.0127 277.9 59.7427 285.931 82.0503C294.72 106.465 282.913 131.763 258.599 140.702C247.523 144.774 234.434 144.862 234.434 131.318C234.434 109.827 252.282 89.3535 274.552 87.3289C291.086 85.8258 312.505 83.4021 324.758 96.1267C334.283 106.018 342.487 137.007 334.612 149.383C325.514 163.679 320.819 147.721 319.362 139.529C312.356 100.119 337.926 82.2979 372.149 70.3199C402.408 59.7294 441.225 59.5235 464.35 85.2175C476.51 98.7286 478.7 144.263 457.781 152.198C440.504 158.751 413.81 157.095 419.305 133.547C427.831 97.0078 468.329 87.2116 500.362 87.2116C511.328 87.2116 521.412 85.946 531.213 91.4346C544.132 98.6692 556.225 110.654 564.293 123.107C573.494 137.309 580.715 149.36 580.715 166.744C580.715 175.808 581.014 192.132 569.102 194.779C561.424 196.486 561.712 179.545 561.712 175.776C561.712 153.418 564.436 134.296 575.319 114.192C592.906 81.706 646.182 12.185 690.981 37.4748C722.483 55.2584 738.094 89.6698 731.451 125.101C728.729 139.62 696.938 183.525 690.981 148.444C689.37 138.958 689.123 127.006 694.735 118.884C702.143 108.161 717.855 92.1698 731.568 89.5577C749.867 86.0723 759.289 91.7438 776.144 99.8805C794.117 108.557 810.439 118.98 818.842 137.887C823.818 149.082 791.213 161.035 784.472 164.28C782.159 165.394 768.448 173.771 765.586 171.319C758.785 165.489 765.612 137.311 769.105 131.083C782.976 106.358 809.578 88.5556 831.628 71.7275C838.402 66.5584 855.207 55.5396 855.207 55.5396" stroke="black" stroke-width="17" stroke-linecap="round"/>
<path d="M857 54.5396C883.5 45.5 924.516 50.4412 955.887 58.9971C974.336 64.0287 1009.12 85.2477 993.307 109.438C987.506 118.31 968.691 126.679 959.406 118.822C945.408 106.978 950.093 74.8414 960.462 62.5162C982.996 35.731 1023.51 37.6478 1055.36 37.6478C1091.57 37.6478 1120.3 42.8896 1137.36 77.7658C1149.96 103.534 1162.8 172.395 1116.24 170.67C1102.03 170.144 1109.58 128.699 1111.67 121.168C1119.18 94.0224 1142.69 65.9921 1169.97 57.1203C1191.55 50.0993 1225.18 51.8441 1238.94 72.4871C1250.05 89.1444 1245.14 113.931 1237.06 130.553C1232.74 139.456 1225.64 158.31 1213.84 159.996C1195.24 162.653 1188.88 132.393 1188.5 119.526C1187.34 80.2996 1207.18 50.861 1240.47 30.4923C1272.28 11.0224 1335.3 -3.63566 1365.75 25.2136C1391 49.1407 1401.22 90.5353 1401.76 124.218C1402.16 149.106 1401.14 184.887 1379.47 202.225C1325.02 245.785 1276.24 159.292 1309.09 113.661C1327.44 88.1804 1399.32 44.0155 1423.81 84.1002C1429.36 93.183 1431.99 110.215 1427.1 119.995C1424.61 124.976 1416.41 129.162 1411.26 125.157C1404.26 119.709 1401.59 106.657 1404.34 98.4112C1408.27 86.6124 1431.82 82.6416 1441.99 82.106C1465.38 80.8752 1490.04 76.9197 1513.2 82.4579C1530.37 86.5644 1535.97 118.424 1536.78 132.899C1537.85 152.18 1540.15 180.74 1517.89 189.204C1493.32 198.547 1468.03 188.259 1462.17 162.225C1453.74 124.755 1483.44 101.261 1509.44 79.8772C1520.16 71.0659 1545.34 60.1608 1545.34 43.9822" stroke="black" stroke-width="17" stroke-linecap="round"/>
</svg>
