<svg width="371" height="60" viewBox="0 0 371 60" fill="none" xmlns="http://www.w3.org/2000/svg">
<path d="M5.14393 55V4.09091H24.2348C28.1458 4.09091 31.4271 4.82007 34.0786 6.27841C36.7467 7.73674 38.7602 9.74195 40.1191 12.294C41.4945 14.8295 42.1823 17.7131 42.1823 20.9446C42.1823 24.2093 41.4945 27.1094 40.1191 29.6449C38.7436 32.1804 36.7135 34.1773 34.0289 35.6357C31.3442 37.0774 28.0381 37.7983 24.1105 37.7983H11.4578V30.2166H22.8676C25.1546 30.2166 27.0272 29.8189 28.4855 29.0234C29.9439 28.228 31.0211 27.1342 31.7171 25.7422C32.4297 24.3501 32.786 22.7509 32.786 20.9446C32.786 19.1383 32.4297 17.5473 31.7171 16.1719C31.0211 14.7964 29.9356 13.7275 28.4607 12.9652C27.0024 12.1863 25.1214 11.7969 22.8179 11.7969H14.3662V55H5.14393ZM60.2386 55.7706C57.8191 55.7706 55.6399 55.3397 53.701 54.478C51.7787 53.5997 50.254 52.3071 49.1271 50.6001C48.0168 48.8932 47.4617 46.7886 47.4617 44.2862C47.4617 42.1319 47.8594 40.3504 48.6548 38.9418C49.4503 37.5331 50.5358 36.4062 51.9112 35.5611C53.2867 34.7159 54.8362 34.0779 56.5597 33.647C58.2997 33.1996 60.0978 32.8764 61.9538 32.6776C64.1911 32.4455 66.0057 32.2384 67.3977 32.0561C68.7898 31.8572 69.8007 31.5589 70.4304 31.1612C71.0767 30.7469 71.3999 30.1089 71.3999 29.2472V29.098C71.3999 27.2254 70.8447 25.7753 69.7344 24.7479C68.6241 23.7204 67.0249 23.2067 64.9368 23.2067C62.7327 23.2067 60.9844 23.6873 59.6918 24.6484C58.4157 25.6096 57.554 26.7448 57.1065 28.054L48.7046 26.8608C49.3674 24.5407 50.4612 22.6018 51.9858 21.044C53.5104 19.4697 55.3748 18.2931 57.5788 17.5142C59.7829 16.7188 62.219 16.321 64.8871 16.321C66.7266 16.321 68.5578 16.5365 70.3807 16.9673C72.2036 17.3982 73.8691 18.1108 75.3771 19.1051C76.8852 20.0829 78.0949 21.4169 79.0064 23.1072C79.9344 24.7976 80.3985 26.9105 80.3985 29.446V55H71.7479V49.755H71.4496C70.9027 50.8156 70.1321 51.8099 69.1378 52.7379C68.1601 53.6494 66.9254 54.3868 65.434 54.9503C63.9591 55.4972 62.2273 55.7706 60.2386 55.7706ZM62.5753 49.1584C64.3816 49.1584 65.9477 48.8021 67.2735 48.0895C68.5992 47.3603 69.6184 46.3991 70.331 45.206C71.0601 44.0128 71.4247 42.7119 71.4247 41.3033V36.804C71.143 37.036 70.6624 37.2514 69.983 37.4503C69.3201 37.6491 68.5744 37.8232 67.7458 37.9723C66.9172 38.1214 66.0968 38.254 65.2848 38.37C64.4728 38.486 63.7685 38.5855 63.1719 38.6683C61.8296 38.8506 60.6281 39.1489 59.5675 39.5632C58.5069 39.9775 57.67 40.5575 57.0568 41.3033C56.4437 42.0324 56.1371 42.977 56.1371 44.1371C56.1371 45.7943 56.742 47.0455 57.9517 47.8906C59.1615 48.7358 60.7027 49.1584 62.5753 49.1584ZM108.653 16.8182V23.7784H86.7032V16.8182H108.653ZM92.1223 7.67045H101.121V43.5156C101.121 44.7254 101.303 45.6534 101.668 46.2997C102.049 46.9295 102.546 47.3603 103.159 47.5923C103.772 47.8243 104.452 47.9403 105.198 47.9403C105.761 47.9403 106.275 47.8989 106.739 47.8161C107.219 47.7332 107.584 47.6586 107.832 47.5923L109.349 54.6271C108.868 54.7929 108.18 54.9751 107.286 55.174C106.407 55.3729 105.33 55.4889 104.054 55.522C101.8 55.5883 99.7702 55.2486 97.9639 54.5028C96.1575 53.7405 94.7241 52.5639 93.6634 50.973C92.6194 49.3821 92.1057 47.3935 92.1223 45.0071V7.67045ZM126.137 32.6278V55H117.139V4.09091H125.939V23.3061H126.386C127.281 21.1518 128.665 19.4531 130.537 18.2102C132.426 16.9508 134.829 16.321 137.746 16.321C140.398 16.321 142.709 16.8762 144.681 17.9865C146.654 19.0968 148.178 20.7209 149.255 22.8587C150.349 24.9964 150.896 27.6065 150.896 30.6889V55H141.897V32.081C141.897 29.5123 141.234 27.5154 139.909 26.0902C138.6 24.6484 136.76 23.9276 134.39 23.9276C132.799 23.9276 131.374 24.2756 130.115 24.9716C128.872 25.651 127.894 26.6371 127.181 27.9297C126.485 29.2223 126.137 30.7884 126.137 32.6278ZM160.606 55V4.09091H179.697C183.608 4.09091 186.889 4.82007 189.541 6.27841C192.209 7.73674 194.223 9.74195 195.581 12.294C196.957 14.8295 197.645 17.7131 197.645 20.9446C197.645 24.2093 196.957 27.1094 195.581 29.6449C194.206 32.1804 192.176 34.1773 189.491 35.6357C186.807 37.0774 183.5 37.7983 179.573 37.7983H166.92V30.2166H178.33C180.617 30.2166 182.49 29.8189 183.948 29.0234C185.406 28.228 186.483 27.1342 187.179 25.7422C187.892 24.3501 188.248 22.7509 188.248 20.9446C188.248 19.1383 187.892 17.5473 187.179 16.1719C186.483 14.7964 185.398 13.7275 183.923 12.9652C182.465 12.1863 180.584 11.7969 178.28 11.7969H169.829V55H160.606ZM205.397 55V16.8182H214.396V55H205.397ZM209.922 11.3991C208.496 11.3991 207.27 10.9268 206.243 9.98224C205.215 9.02107 204.701 7.86932 204.701 6.52699C204.701 5.16809 205.215 4.01633 206.243 3.07173C207.27 2.11056 208.496 1.62997 209.922 1.62997C211.363 1.62997 212.59 2.11056 213.6 3.07173C214.628 4.01633 215.142 5.16809 215.142 6.52699C215.142 7.86932 214.628 9.02107 213.6 9.98224C212.59 10.9268 211.363 11.3991 209.922 11.3991ZM232.788 4.09091V55H223.789V4.09091H232.788ZM258.836 55.7457C255.107 55.7457 251.876 54.9254 249.142 53.2848C246.407 51.6442 244.286 49.349 242.778 46.3991C241.286 43.4493 240.541 40.0024 240.541 36.0582C240.541 32.1141 241.286 28.6589 242.778 25.6925C244.286 22.7261 246.407 20.4226 249.142 18.782C251.876 17.1413 255.107 16.321 258.836 16.321C262.565 16.321 265.796 17.1413 268.531 18.782C271.265 20.4226 273.378 22.7261 274.869 25.6925C276.378 28.6589 277.132 32.1141 277.132 36.0582C277.132 40.0024 276.378 43.4493 274.869 46.3991C273.378 49.349 271.265 51.6442 268.531 53.2848C265.796 54.9254 262.565 55.7457 258.836 55.7457ZM258.886 48.5369C260.908 48.5369 262.598 47.9818 263.957 46.8714C265.316 45.7446 266.327 44.2365 266.99 42.3473C267.669 40.4581 268.009 38.3535 268.009 36.0334C268.009 33.6967 267.669 31.5838 266.99 29.6946C266.327 27.7888 265.316 26.2725 263.957 25.1456C262.598 24.0187 260.908 23.4553 258.886 23.4553C256.814 23.4553 255.091 24.0187 253.715 25.1456C252.356 26.2725 251.337 27.7888 250.658 29.6946C249.995 31.5838 249.664 33.6967 249.664 36.0334C249.664 38.3535 249.995 40.4581 250.658 42.3473C251.337 44.2365 252.356 45.7446 253.715 46.8714C255.091 47.9818 256.814 48.5369 258.886 48.5369ZM303.975 16.8182V23.7784H282.026V16.8182H303.975ZM287.445 7.67045H296.443V43.5156C296.443 44.7254 296.626 45.6534 296.99 46.2997C297.371 46.9295 297.868 47.3603 298.482 47.5923C299.095 47.8243 299.774 47.9403 300.52 47.9403C301.083 47.9403 301.597 47.8989 302.061 47.8161C302.542 47.7332 302.906 47.6586 303.155 47.5923L304.671 54.6271C304.191 54.7929 303.503 54.9751 302.608 55.174C301.73 55.3729 300.653 55.4889 299.376 55.522C297.123 55.5883 295.093 55.2486 293.286 54.5028C291.48 53.7405 290.046 52.5639 288.986 50.973C287.942 49.3821 287.428 47.3935 287.445 45.0071V7.67045Z" fill="black"/>
<mask id="mask0_867_1538" style="mask-type:alpha" maskUnits="userSpaceOnUse" x="311" y="0" width="60" height="60">
<rect x="311" width="60" height="60" fill="#D9D9D9"/>
</mask>
<g mask="url(#mask0_867_1538)">
<path d="M358.501 53.5952C356.523 53.5952 354.812 53.0322 353.367 51.9063C351.922 50.7804 350.926 49.4058 350.379 47.7826H338.501C335.674 47.7826 333.253 46.774 331.239 44.7569C329.226 42.7398 328.219 40.315 328.219 37.4825C328.219 34.6499 329.226 32.231 331.239 30.2255C333.253 28.2201 335.674 27.2174 338.501 27.2174H343.501C344.799 27.2174 345.909 26.7547 346.833 25.8294C347.757 24.9041 348.219 23.7918 348.219 22.4925C348.219 21.1931 347.757 20.0833 346.833 19.163C345.909 18.2427 344.799 17.7826 343.501 17.7826H331.624C331.058 19.4058 330.058 20.7804 328.622 21.9063C327.187 23.0322 325.48 23.5952 323.501 23.5952C321.114 23.5952 319.084 22.7593 317.413 21.0876C315.742 19.4159 314.906 17.386 314.906 14.9979C314.906 12.6098 315.742 10.5806 317.413 8.91029C319.084 7.23995 321.114 6.40479 323.501 6.40479C325.48 6.40479 327.187 6.96774 328.622 8.09366C330.058 9.21958 331.058 10.5941 331.624 12.2173H343.501C346.346 12.2173 348.77 13.2201 350.776 15.2255C352.781 17.231 353.784 19.6558 353.784 22.5C353.784 25.3442 352.781 27.769 350.776 29.7744C348.77 31.7799 346.346 32.7826 343.501 32.7826H338.501C337.221 32.7826 336.114 33.2428 335.182 34.1632C334.25 35.0836 333.784 36.19 333.784 37.4825C333.784 38.7749 334.25 39.8872 335.182 40.8193C336.114 41.7513 337.221 42.2174 338.501 42.2174H350.379C350.944 40.5941 351.945 39.2196 353.38 38.0937C354.816 36.9677 356.523 36.4048 358.501 36.4048C360.889 36.4048 362.918 37.2406 364.59 38.9123C366.261 40.584 367.097 42.6139 367.097 45.002C367.097 47.3902 366.261 49.4194 364.59 51.0897C362.918 52.76 360.889 53.5952 358.501 53.5952ZM323.501 17.5C324.21 17.5 324.803 17.2604 325.283 16.7812C325.762 16.3021 326.001 15.7083 326.001 15C326.001 14.2916 325.762 13.6979 325.283 13.2187C324.803 12.7396 324.21 12.5 323.501 12.5C322.793 12.5 322.199 12.7396 321.72 13.2187C321.241 13.6979 321.001 14.2916 321.001 15C321.001 15.7083 321.241 16.3021 321.72 16.7812C322.199 17.2604 322.793 17.5 323.501 17.5Z" fill="black"/>
</g>
</svg>
