<svg width="552" height="288" viewBox="0 0 552 288" fill="none" xmlns="http://www.w3.org/2000/svg">
<path d="M55.9 176.9H24.7V190.7C26.0333 189.233 27.9 188.033 30.3 187.1C32.7 186.167 35.3 185.7 38.1 185.7C43.1 185.7 47.2333 186.833 50.5 189.1C53.8333 191.367 56.2667 194.3 57.8 197.9C59.3333 201.5 60.1 205.4 60.1 209.6C60.1 217.4 57.9 223.6 53.5 228.2C49.1 232.733 42.9 235 34.9 235C29.5667 235 24.9333 234.1 21 232.3C17.0667 230.433 14.0333 227.867 11.9 224.6C9.76667 221.333 8.6 217.567 8.4 213.3H25.1C25.5 215.367 26.4667 217.1 28 218.5C29.5333 219.833 31.6333 220.5 34.3 220.5C37.4333 220.5 39.7667 219.5 41.3 217.5C42.8333 215.5 43.6 212.833 43.6 209.5C43.6 206.233 42.8 203.733 41.2 202C39.6 200.267 37.2667 199.4 34.2 199.4C31.9333 199.4 30.0667 199.967 28.6 201.1C27.1333 202.167 26.1667 203.6 25.7 205.4H9.2V161.9H55.9V176.9ZM79.2391 235.8C76.2391 235.8 73.7724 234.933 71.8391 233.2C69.9724 231.4 69.0391 229.2 69.0391 226.6C69.0391 223.933 69.9724 221.7 71.8391 219.9C73.7724 218.1 76.2391 217.2 79.2391 217.2C82.1724 217.2 84.5724 218.1 86.4391 219.9C88.3724 221.7 89.3391 223.933 89.3391 226.6C89.3391 229.2 88.3724 231.4 86.4391 233.2C84.5724 234.933 82.1724 235.8 79.2391 235.8ZM97.7617 197.5C97.7617 186.033 99.9617 177 104.362 170.4C108.828 163.8 115.995 160.5 125.862 160.5C135.728 160.5 142.862 163.8 147.262 170.4C151.728 177 153.962 186.033 153.962 197.5C153.962 209.1 151.728 218.2 147.262 224.8C142.862 231.4 135.728 234.7 125.862 234.7C115.995 234.7 108.828 231.4 104.362 224.8C99.9617 218.2 97.7617 209.1 97.7617 197.5ZM137.162 197.5C137.162 190.767 136.428 185.6 134.962 182C133.495 178.333 130.462 176.5 125.862 176.5C121.262 176.5 118.228 178.333 116.762 182C115.295 185.6 114.562 190.767 114.562 197.5C114.562 202.033 114.828 205.8 115.362 208.8C115.895 211.733 116.962 214.133 118.562 216C120.228 217.8 122.662 218.7 125.862 218.7C129.062 218.7 131.462 217.8 133.062 216C134.728 214.133 135.828 211.733 136.362 208.8C136.895 205.8 137.162 202.033 137.162 197.5Z" fill="black"/>
<path d="M42.2958 283.112C41.2505 283.112 40.2905 282.867 39.4158 282.376C38.5411 281.885 37.8478 281.208 37.3358 280.344C36.8238 279.469 36.5678 278.483 36.5678 277.384C36.5678 276.296 36.8238 275.32 37.3358 274.456C37.8478 273.581 38.5411 272.899 39.4158 272.408C40.2905 271.917 41.2505 271.672 42.2958 271.672C43.3518 271.672 44.3118 271.917 45.1758 272.408C46.0505 272.899 46.7385 273.581 47.2398 274.456C47.7518 275.32 48.0078 276.296 48.0078 277.384C48.0078 278.483 47.7518 279.469 47.2398 280.344C46.7385 281.208 46.0505 281.885 45.1758 282.376C44.3011 282.867 43.3411 283.112 42.2958 283.112ZM42.2958 281.112C42.9678 281.112 43.5598 280.963 44.0718 280.664C44.5838 280.355 44.9838 279.917 45.2718 279.352C45.5598 278.787 45.7038 278.131 45.7038 277.384C45.7038 276.637 45.5598 275.987 45.2718 275.432C44.9838 274.867 44.5838 274.435 44.0718 274.136C43.5598 273.837 42.9678 273.688 42.2958 273.688C41.6238 273.688 41.0265 273.837 40.5038 274.136C39.9918 274.435 39.5918 274.867 39.3038 275.432C39.0158 275.987 38.8718 276.637 38.8718 277.384C38.8718 278.131 39.0158 278.787 39.3038 279.352C39.5918 279.917 39.9918 280.355 40.5038 280.664C41.0265 280.963 41.6238 281.112 42.2958 281.112ZM51.9143 271.16V283H49.6743V271.16H51.9143ZM53.5514 278.536C53.5514 277.64 53.7274 276.845 54.0794 276.152C54.4421 275.459 54.9328 274.925 55.5514 274.552C56.1701 274.179 56.8581 273.992 57.6154 273.992C58.1914 273.992 58.7408 274.12 59.2634 274.376C59.7861 274.621 60.2021 274.952 60.5114 275.368V271.16H62.7834V283H60.5114V281.688C60.2341 282.125 59.8448 282.477 59.3434 282.744C58.8421 283.011 58.2608 283.144 57.5994 283.144C56.8528 283.144 56.1701 282.952 55.5514 282.568C54.9328 282.184 54.4421 281.645 54.0794 280.952C53.7274 280.248 53.5514 279.443 53.5514 278.536ZM60.5274 278.568C60.5274 278.024 60.4208 277.56 60.2074 277.176C59.9941 276.781 59.7061 276.483 59.3434 276.28C58.9808 276.067 58.5914 275.96 58.1754 275.96C57.7594 275.96 57.3754 276.061 57.0234 276.264C56.6714 276.467 56.3834 276.765 56.1594 277.16C55.9461 277.544 55.8394 278.003 55.8394 278.536C55.8394 279.069 55.9461 279.539 56.1594 279.944C56.3834 280.339 56.6714 280.643 57.0234 280.856C57.3861 281.069 57.7701 281.176 58.1754 281.176C58.5914 281.176 58.9808 281.075 59.3434 280.872C59.7061 280.659 59.9941 280.36 60.2074 279.976C60.4208 279.581 60.5274 279.112 60.5274 278.568ZM68.2077 278.536C68.2077 277.64 68.3837 276.845 68.7357 276.152C69.0984 275.459 69.589 274.925 70.2077 274.552C70.8264 274.179 71.5144 273.992 72.2717 273.992C72.8477 273.992 73.397 274.12 73.9197 274.376C74.4424 274.621 74.8584 274.952 75.1677 275.368V271.16H77.4397V283H75.1677V281.688C74.8904 282.125 74.501 282.477 73.9997 282.744C73.4984 283.011 72.917 283.144 72.2557 283.144C71.509 283.144 70.8264 282.952 70.2077 282.568C69.589 282.184 69.0984 281.645 68.7357 280.952C68.3837 280.248 68.2077 279.443 68.2077 278.536ZM75.1837 278.568C75.1837 278.024 75.077 277.56 74.8637 277.176C74.6504 276.781 74.3624 276.483 73.9997 276.28C73.637 276.067 73.2477 275.96 72.8317 275.96C72.4157 275.96 72.0317 276.061 71.6797 276.264C71.3277 276.467 71.0397 276.765 70.8157 277.16C70.6024 277.544 70.4957 278.003 70.4957 278.536C70.4957 279.069 70.6024 279.539 70.8157 279.944C71.0397 280.339 71.3277 280.643 71.6797 280.856C72.0424 281.069 72.4264 281.176 72.8317 281.176C73.2477 281.176 73.637 281.075 73.9997 280.872C74.3624 280.659 74.6504 280.36 74.8637 279.976C75.077 279.581 75.1837 279.112 75.1837 278.568ZM87.8674 278.376C87.8674 278.696 87.8461 278.984 87.8034 279.24H81.3234C81.3768 279.88 81.6008 280.381 81.9954 280.744C82.3901 281.107 82.8754 281.288 83.4514 281.288C84.2834 281.288 84.8754 280.931 85.2274 280.216H87.6434C87.3874 281.069 86.8968 281.773 86.1714 282.328C85.4461 282.872 84.5554 283.144 83.4994 283.144C82.6461 283.144 81.8781 282.957 81.1954 282.584C80.5234 282.2 79.9954 281.661 79.6114 280.968C79.2381 280.275 79.0514 279.475 79.0514 278.568C79.0514 277.651 79.2381 276.845 79.6114 276.152C79.9848 275.459 80.5074 274.925 81.1794 274.552C81.8514 274.179 82.6248 273.992 83.4994 273.992C84.3421 273.992 85.0941 274.173 85.7554 274.536C86.4274 274.899 86.9448 275.416 87.3074 276.088C87.6808 276.749 87.8674 277.512 87.8674 278.376ZM85.5474 277.736C85.5368 277.16 85.3288 276.701 84.9234 276.36C84.5181 276.008 84.0221 275.832 83.4354 275.832C82.8808 275.832 82.4114 276.003 82.0274 276.344C81.6541 276.675 81.4248 277.139 81.3394 277.736H85.5474ZM92.8944 283.144C92.1691 283.144 91.5184 283.016 90.9424 282.76C90.3664 282.493 89.9078 282.136 89.5664 281.688C89.2358 281.24 89.0544 280.744 89.0224 280.2H91.2784C91.3211 280.541 91.4864 280.824 91.7744 281.048C92.0731 281.272 92.4411 281.384 92.8784 281.384C93.3051 281.384 93.6358 281.299 93.8704 281.128C94.1158 280.957 94.2384 280.739 94.2384 280.472C94.2384 280.184 94.0891 279.971 93.7904 279.832C93.5024 279.683 93.0384 279.523 92.3984 279.352C91.7371 279.192 91.1931 279.027 90.7664 278.856C90.3504 278.685 89.9878 278.424 89.6784 278.072C89.3798 277.72 89.2304 277.245 89.2304 276.648C89.2304 276.157 89.3691 275.709 89.6464 275.304C89.9344 274.899 90.3398 274.579 90.8624 274.344C91.3958 274.109 92.0198 273.992 92.7344 273.992C93.7904 273.992 94.6331 274.259 95.2624 274.792C95.8918 275.315 96.2384 276.024 96.3024 276.92H94.1584C94.1264 276.568 93.9771 276.291 93.7104 276.088C93.4544 275.875 93.1078 275.768 92.6704 275.768C92.2651 275.768 91.9504 275.843 91.7264 275.992C91.5131 276.141 91.4064 276.349 91.4064 276.616C91.4064 276.915 91.5558 277.144 91.8544 277.304C92.1531 277.453 92.6171 277.608 93.2464 277.768C93.8864 277.928 94.4144 278.093 94.8304 278.264C95.2464 278.435 95.6038 278.701 95.9024 279.064C96.2118 279.416 96.3718 279.885 96.3824 280.472C96.3824 280.984 96.2384 281.443 95.9504 281.848C95.6731 282.253 95.2678 282.573 94.7344 282.808C94.2118 283.032 93.5984 283.144 92.8944 283.144ZM99.3572 273.08C98.9625 273.08 98.6319 272.957 98.3652 272.712C98.1092 272.456 97.9812 272.141 97.9812 271.768C97.9812 271.395 98.1092 271.085 98.3652 270.84C98.6319 270.584 98.9625 270.456 99.3572 270.456C99.7519 270.456 100.077 270.584 100.333 270.84C100.6 271.085 100.733 271.395 100.733 271.768C100.733 272.141 100.6 272.456 100.333 272.712C100.077 272.957 99.7519 273.08 99.3572 273.08ZM100.461 274.136V283H98.2212V274.136H100.461ZM106.146 273.992C106.808 273.992 107.389 274.125 107.89 274.392C108.392 274.648 108.786 274.984 109.074 275.4V274.136H111.33V283.064C111.33 283.885 111.165 284.616 110.834 285.256C110.504 285.907 110.008 286.419 109.346 286.792C108.685 287.176 107.885 287.368 106.946 287.368C105.688 287.368 104.653 287.075 103.842 286.488C103.042 285.901 102.589 285.101 102.482 284.088H104.706C104.824 284.493 105.074 284.813 105.458 285.048C105.853 285.293 106.328 285.416 106.882 285.416C107.533 285.416 108.061 285.219 108.466 284.824C108.872 284.44 109.074 283.853 109.074 283.064V281.688C108.786 282.104 108.386 282.451 107.874 282.728C107.373 283.005 106.797 283.144 106.146 283.144C105.4 283.144 104.717 282.952 104.098 282.568C103.48 282.184 102.989 281.645 102.626 280.952C102.274 280.248 102.098 279.443 102.098 278.536C102.098 277.64 102.274 276.845 102.626 276.152C102.989 275.459 103.474 274.925 104.082 274.552C104.701 274.179 105.389 273.992 106.146 273.992ZM109.074 278.568C109.074 278.024 108.968 277.56 108.754 277.176C108.541 276.781 108.253 276.483 107.89 276.28C107.528 276.067 107.138 275.96 106.722 275.96C106.306 275.96 105.922 276.061 105.57 276.264C105.218 276.467 104.93 276.765 104.706 277.16C104.493 277.544 104.386 278.003 104.386 278.536C104.386 279.069 104.493 279.539 104.706 279.944C104.93 280.339 105.218 280.643 105.57 280.856C105.933 281.069 106.317 281.176 106.722 281.176C107.138 281.176 107.528 281.075 107.89 280.872C108.253 280.659 108.541 280.36 108.754 279.976C108.968 279.581 109.074 279.112 109.074 278.568ZM118.43 274.008C119.486 274.008 120.339 274.344 120.99 275.016C121.641 275.677 121.966 276.605 121.966 277.8V283H119.726V278.104C119.726 277.4 119.55 276.861 119.198 276.488C118.846 276.104 118.366 275.912 117.758 275.912C117.139 275.912 116.649 276.104 116.286 276.488C115.934 276.861 115.758 277.4 115.758 278.104V283H113.518V274.136H115.758V275.24C116.057 274.856 116.435 274.557 116.894 274.344C117.363 274.12 117.875 274.008 118.43 274.008Z" fill="black"/>
<path d="M450.9 176.9H419.7V190.7C421.033 189.233 422.9 188.033 425.3 187.1C427.7 186.167 430.3 185.7 433.1 185.7C438.1 185.7 442.233 186.833 445.5 189.1C448.833 191.367 451.267 194.3 452.8 197.9C454.333 201.5 455.1 205.4 455.1 209.6C455.1 217.4 452.9 223.6 448.5 228.2C444.1 232.733 437.9 235 429.9 235C424.567 235 419.933 234.1 416 232.3C412.067 230.433 409.033 227.867 406.9 224.6C404.767 221.333 403.6 217.567 403.4 213.3H420.1C420.5 215.367 421.467 217.1 423 218.5C424.533 219.833 426.633 220.5 429.3 220.5C432.433 220.5 434.767 219.5 436.3 217.5C437.833 215.5 438.6 212.833 438.6 209.5C438.6 206.233 437.8 203.733 436.2 202C434.6 200.267 432.267 199.4 429.2 199.4C426.933 199.4 425.067 199.967 423.6 201.1C422.133 202.167 421.167 203.6 420.7 205.4H404.2V161.9H450.9V176.9ZM474.239 235.8C471.239 235.8 468.772 234.933 466.839 233.2C464.972 231.4 464.039 229.2 464.039 226.6C464.039 223.933 464.972 221.7 466.839 219.9C468.772 218.1 471.239 217.2 474.239 217.2C477.172 217.2 479.572 218.1 481.439 219.9C483.372 221.7 484.339 223.933 484.339 226.6C484.339 229.2 483.372 231.4 481.439 233.2C479.572 234.933 477.172 235.8 474.239 235.8ZM528.862 181.7C528.328 179.233 527.395 177.4 526.062 176.2C524.728 174.933 522.828 174.3 520.362 174.3C516.562 174.3 513.828 175.967 512.162 179.3C510.495 182.567 509.628 187.767 509.562 194.9C511.028 192.567 513.128 190.733 515.862 189.4C518.662 188.067 521.728 187.4 525.062 187.4C531.595 187.4 536.828 189.467 540.762 193.6C544.762 197.733 546.762 203.5 546.762 210.9C546.762 215.767 545.762 220.033 543.762 223.7C541.828 227.367 538.962 230.233 535.162 232.3C531.428 234.367 526.995 235.4 521.862 235.4C511.595 235.4 504.462 232.2 500.462 225.8C496.462 219.333 494.462 210.067 494.462 198C494.462 185.333 496.562 175.933 500.762 169.8C505.028 163.6 511.828 160.5 521.162 160.5C526.162 160.5 530.362 161.5 533.762 163.5C537.228 165.433 539.828 168 541.562 171.2C543.362 174.4 544.428 177.9 544.762 181.7H528.862ZM520.962 200.9C518.095 200.9 515.695 201.767 513.762 203.5C511.895 205.167 510.962 207.567 510.962 210.7C510.962 213.9 511.828 216.4 513.562 218.2C515.362 220 517.895 220.9 521.162 220.9C524.095 220.9 526.395 220.033 528.062 218.3C529.795 216.5 530.662 214.067 530.662 211C530.662 207.867 529.828 205.4 528.162 203.6C526.495 201.8 524.095 200.9 520.962 200.9Z" fill="black"/>
<path d="M437.023 283H434.783L429.711 275.336V283H427.471V271.816H429.711L434.783 279.496V271.816H437.023V283ZM447.477 278.376C447.477 278.696 447.455 278.984 447.413 279.24H440.933C440.986 279.88 441.21 280.381 441.605 280.744C441.999 281.107 442.485 281.288 443.061 281.288C443.893 281.288 444.485 280.931 444.837 280.216H447.253C446.997 281.069 446.506 281.773 445.781 282.328C445.055 282.872 444.165 283.144 443.109 283.144C442.255 283.144 441.487 282.957 440.805 282.584C440.133 282.2 439.605 281.661 439.221 280.968C438.847 280.275 438.661 279.475 438.661 278.568C438.661 277.651 438.847 276.845 439.221 276.152C439.594 275.459 440.117 274.925 440.789 274.552C441.461 274.179 442.234 273.992 443.109 273.992C443.951 273.992 444.703 274.173 445.365 274.536C446.037 274.899 446.554 275.416 446.917 276.088C447.29 276.749 447.477 277.512 447.477 278.376ZM445.157 277.736C445.146 277.16 444.938 276.701 444.533 276.36C444.127 276.008 443.631 275.832 443.045 275.832C442.49 275.832 442.021 276.003 441.637 276.344C441.263 276.675 441.034 277.139 440.949 277.736H445.157ZM461.4 274.136L458.808 283H456.392L454.776 276.808L453.16 283H450.728L448.12 274.136H450.392L451.96 280.888L453.656 274.136H456.024L457.688 280.872L459.256 274.136H461.4ZM465.848 278.536C465.848 277.64 466.024 276.845 466.376 276.152C466.739 275.459 467.23 274.925 467.848 274.552C468.467 274.179 469.155 273.992 469.912 273.992C470.488 273.992 471.038 274.12 471.56 274.376C472.083 274.621 472.499 274.952 472.808 275.368V271.16H475.08V283H472.808V281.688C472.531 282.125 472.142 282.477 471.64 282.744C471.139 283.011 470.558 283.144 469.896 283.144C469.15 283.144 468.467 282.952 467.848 282.568C467.23 282.184 466.739 281.645 466.376 280.952C466.024 280.248 465.848 279.443 465.848 278.536ZM472.824 278.568C472.824 278.024 472.718 277.56 472.504 277.176C472.291 276.781 472.003 276.483 471.64 276.28C471.278 276.067 470.888 275.96 470.472 275.96C470.056 275.96 469.672 276.061 469.32 276.264C468.968 276.467 468.68 276.765 468.456 277.16C468.243 277.544 468.136 278.003 468.136 278.536C468.136 279.069 468.243 279.539 468.456 279.944C468.68 280.339 468.968 280.643 469.32 280.856C469.683 281.069 470.067 281.176 470.472 281.176C470.888 281.176 471.278 281.075 471.64 280.872C472.003 280.659 472.291 280.36 472.504 279.976C472.718 279.581 472.824 279.112 472.824 278.568ZM485.508 278.376C485.508 278.696 485.487 278.984 485.444 279.24H478.964C479.017 279.88 479.241 280.381 479.636 280.744C480.031 281.107 480.516 281.288 481.092 281.288C481.924 281.288 482.516 280.931 482.868 280.216H485.284C485.028 281.069 484.537 281.773 483.812 282.328C483.087 282.872 482.196 283.144 481.14 283.144C480.287 283.144 479.519 282.957 478.836 282.584C478.164 282.2 477.636 281.661 477.252 280.968C476.879 280.275 476.692 279.475 476.692 278.568C476.692 277.651 476.879 276.845 477.252 276.152C477.625 275.459 478.148 274.925 478.82 274.552C479.492 274.179 480.265 273.992 481.14 273.992C481.983 273.992 482.735 274.173 483.396 274.536C484.068 274.899 484.585 275.416 484.948 276.088C485.321 276.749 485.508 277.512 485.508 278.376ZM483.188 277.736C483.177 277.16 482.969 276.701 482.564 276.36C482.159 276.008 481.663 275.832 481.076 275.832C480.521 275.832 480.052 276.003 479.668 276.344C479.295 276.675 479.065 277.139 478.98 277.736H483.188ZM490.535 283.144C489.81 283.144 489.159 283.016 488.583 282.76C488.007 282.493 487.548 282.136 487.207 281.688C486.876 281.24 486.695 280.744 486.663 280.2H488.919C488.962 280.541 489.127 280.824 489.415 281.048C489.714 281.272 490.082 281.384 490.519 281.384C490.946 281.384 491.276 281.299 491.511 281.128C491.756 280.957 491.879 280.739 491.879 280.472C491.879 280.184 491.73 279.971 491.431 279.832C491.143 279.683 490.679 279.523 490.039 279.352C489.378 279.192 488.834 279.027 488.407 278.856C487.991 278.685 487.628 278.424 487.319 278.072C487.02 277.72 486.871 277.245 486.871 276.648C486.871 276.157 487.01 275.709 487.287 275.304C487.575 274.899 487.98 274.579 488.503 274.344C489.036 274.109 489.66 273.992 490.375 273.992C491.431 273.992 492.274 274.259 492.903 274.792C493.532 275.315 493.879 276.024 493.943 276.92H491.799C491.767 276.568 491.618 276.291 491.351 276.088C491.095 275.875 490.748 275.768 490.311 275.768C489.906 275.768 489.591 275.843 489.367 275.992C489.154 276.141 489.047 276.349 489.047 276.616C489.047 276.915 489.196 277.144 489.495 277.304C489.794 277.453 490.258 277.608 490.887 277.768C491.527 277.928 492.055 278.093 492.471 278.264C492.887 278.435 493.244 278.701 493.543 279.064C493.852 279.416 494.012 279.885 494.023 280.472C494.023 280.984 493.879 281.443 493.591 281.848C493.314 282.253 492.908 282.573 492.375 282.808C491.852 283.032 491.239 283.144 490.535 283.144ZM496.998 273.08C496.603 273.08 496.272 272.957 496.006 272.712C495.75 272.456 495.622 272.141 495.622 271.768C495.622 271.395 495.75 271.085 496.006 270.84C496.272 270.584 496.603 270.456 496.998 270.456C497.392 270.456 497.718 270.584 497.974 270.84C498.24 271.085 498.374 271.395 498.374 271.768C498.374 272.141 498.24 272.456 497.974 272.712C497.718 272.957 497.392 273.08 496.998 273.08ZM498.102 274.136V283H495.862V274.136H498.102ZM503.787 273.992C504.448 273.992 505.03 274.125 505.531 274.392C506.032 274.648 506.427 274.984 506.715 275.4V274.136H508.971V283.064C508.971 283.885 508.806 284.616 508.475 285.256C508.144 285.907 507.648 286.419 506.987 286.792C506.326 287.176 505.526 287.368 504.587 287.368C503.328 287.368 502.294 287.075 501.483 286.488C500.683 285.901 500.23 285.101 500.123 284.088H502.347C502.464 284.493 502.715 284.813 503.099 285.048C503.494 285.293 503.968 285.416 504.523 285.416C505.174 285.416 505.702 285.219 506.107 284.824C506.512 284.44 506.715 283.853 506.715 283.064V281.688C506.427 282.104 506.027 282.451 505.515 282.728C505.014 283.005 504.438 283.144 503.787 283.144C503.04 283.144 502.358 282.952 501.739 282.568C501.12 282.184 500.63 281.645 500.267 280.952C499.915 280.248 499.739 279.443 499.739 278.536C499.739 277.64 499.915 276.845 500.267 276.152C500.63 275.459 501.115 274.925 501.723 274.552C502.342 274.179 503.03 273.992 503.787 273.992ZM506.715 278.568C506.715 278.024 506.608 277.56 506.395 277.176C506.182 276.781 505.894 276.483 505.531 276.28C505.168 276.067 504.779 275.96 504.363 275.96C503.947 275.96 503.563 276.061 503.211 276.264C502.859 276.467 502.571 276.765 502.347 277.16C502.134 277.544 502.027 278.003 502.027 278.536C502.027 279.069 502.134 279.539 502.347 279.944C502.571 280.339 502.859 280.643 503.211 280.856C503.574 281.069 503.958 281.176 504.363 281.176C504.779 281.176 505.168 281.075 505.531 280.872C505.894 280.659 506.182 280.36 506.395 279.976C506.608 279.581 506.715 279.112 506.715 278.568ZM516.071 274.008C517.127 274.008 517.98 274.344 518.631 275.016C519.281 275.677 519.607 276.605 519.607 277.8V283H517.367V278.104C517.367 277.4 517.191 276.861 516.839 276.488C516.487 276.104 516.007 275.912 515.399 275.912C514.78 275.912 514.289 276.104 513.927 276.488C513.575 276.861 513.399 277.4 513.399 278.104V283H511.159V274.136H513.399V275.24C513.697 274.856 514.076 274.557 514.535 274.344C515.004 274.12 515.516 274.008 516.071 274.008Z" fill="black"/>
<path d="M19.548 15.252C19.548 17.34 18.828 19.08 17.388 20.472C15.972 21.84 13.8 22.524 10.872 22.524H6.048V33H2.772V7.908H10.872C13.704 7.908 15.852 8.592 17.316 9.96C18.804 11.328 19.548 13.092 19.548 15.252ZM10.872 19.824C12.696 19.824 14.04 19.428 14.904 18.636C15.768 17.844 16.2 16.716 16.2 15.252C16.2 12.156 14.424 10.608 10.872 10.608H6.048V19.824H10.872ZM41.6197 22.38C41.6197 23.004 41.5837 23.664 41.5117 24.36H25.7437C25.8637 26.304 26.5237 27.828 27.7237 28.932C28.9477 30.012 30.4237 30.552 32.1517 30.552C33.5677 30.552 34.7437 30.228 35.6797 29.58C36.6397 28.908 37.3117 28.02 37.6957 26.916H41.2237C40.6957 28.812 39.6397 30.36 38.0557 31.56C36.4717 32.736 34.5037 33.324 32.1517 33.324C30.2797 33.324 28.5997 32.904 27.1117 32.064C25.6477 31.224 24.4957 30.036 23.6557 28.5C22.8157 26.94 22.3957 25.14 22.3957 23.1C22.3957 21.06 22.8037 19.272 23.6197 17.736C24.4357 16.2 25.5757 15.024 27.0397 14.208C28.5277 13.368 30.2317 12.948 32.1517 12.948C34.0237 12.948 35.6797 13.356 37.1197 14.172C38.5597 14.988 39.6637 16.116 40.4317 17.556C41.2237 18.972 41.6197 20.58 41.6197 22.38ZM38.2357 21.696C38.2357 20.448 37.9597 19.38 37.4077 18.492C36.8557 17.58 36.0997 16.896 35.1397 16.44C34.2037 15.96 33.1597 15.72 32.0077 15.72C30.3517 15.72 28.9357 16.248 27.7597 17.304C26.6077 18.36 25.9477 19.824 25.7797 21.696H38.2357ZM49.2199 16.476C49.7959 15.348 50.6119 14.472 51.6679 13.848C52.7479 13.224 54.0559 12.912 55.5919 12.912V16.296H54.7279C51.0559 16.296 49.2199 18.288 49.2199 22.272V33H45.9439V13.272H49.2199V16.476ZM58.1496 23.1C58.1496 21.06 58.5576 19.284 59.3736 17.772C60.1896 16.236 61.3176 15.048 62.7576 14.208C64.2216 13.368 65.8896 12.948 67.7616 12.948C70.1856 12.948 72.1776 13.536 73.7376 14.712C75.3216 15.888 76.3656 17.52 76.8696 19.608H73.3416C73.0056 18.408 72.3456 17.46 71.3616 16.764C70.4016 16.068 69.2016 15.72 67.7616 15.72C65.8896 15.72 64.3776 16.368 63.2256 17.664C62.0736 18.936 61.4976 20.748 61.4976 23.1C61.4976 25.476 62.0736 27.312 63.2256 28.608C64.3776 29.904 65.8896 30.552 67.7616 30.552C69.2016 30.552 70.4016 30.216 71.3616 29.544C72.3216 28.872 72.9816 27.912 73.3416 26.664H76.8696C76.3416 28.68 75.2856 30.3 73.7016 31.524C72.1176 32.724 70.1376 33.324 67.7616 33.324C65.8896 33.324 64.2216 32.904 62.7576 32.064C61.3176 31.224 60.1896 30.036 59.3736 28.5C58.5576 26.964 58.1496 25.164 58.1496 23.1ZM99.2408 22.38C99.2408 23.004 99.2048 23.664 99.1328 24.36H83.3648C83.4848 26.304 84.1448 27.828 85.3448 28.932C86.5688 30.012 88.0448 30.552 89.7728 30.552C91.1888 30.552 92.3648 30.228 93.3008 29.58C94.2608 28.908 94.9328 28.02 95.3168 26.916H98.8448C98.3168 28.812 97.2608 30.36 95.6768 31.56C94.0928 32.736 92.1248 33.324 89.7728 33.324C87.9008 33.324 86.2208 32.904 84.7328 32.064C83.2688 31.224 82.1168 30.036 81.2768 28.5C80.4368 26.94 80.0168 25.14 80.0168 23.1C80.0168 21.06 80.4248 19.272 81.2408 17.736C82.0568 16.2 83.1968 15.024 84.6608 14.208C86.1488 13.368 87.8528 12.948 89.7728 12.948C91.6448 12.948 93.3008 13.356 94.7408 14.172C96.1808 14.988 97.2848 16.116 98.0528 17.556C98.8448 18.972 99.2408 20.58 99.2408 22.38ZM95.8568 21.696C95.8568 20.448 95.5808 19.38 95.0288 18.492C94.4768 17.58 93.7208 16.896 92.7608 16.44C91.8248 15.96 90.7808 15.72 89.6288 15.72C87.9728 15.72 86.5568 16.248 85.3808 17.304C84.2288 18.36 83.5688 19.824 83.4008 21.696H95.8568ZM105.257 10.068C104.633 10.068 104.105 9.852 103.673 9.42C103.241 8.988 103.025 8.46 103.025 7.836C103.025 7.212 103.241 6.684 103.673 6.252C104.105 5.82 104.633 5.604 105.257 5.604C105.857 5.604 106.361 5.82 106.769 6.252C107.201 6.684 107.417 7.212 107.417 7.836C107.417 8.46 107.201 8.988 106.769 9.42C106.361 9.852 105.857 10.068 105.257 10.068ZM106.841 13.272V33H103.565V13.272H106.841ZM119.768 29.976L125.888 13.272H129.38L121.64 33H117.824L110.084 13.272H113.612L119.768 29.976ZM150.604 22.38C150.604 23.004 150.568 23.664 150.496 24.36H134.728C134.848 26.304 135.508 27.828 136.708 28.932C137.932 30.012 139.408 30.552 141.136 30.552C142.552 30.552 143.728 30.228 144.664 29.58C145.624 28.908 146.296 28.02 146.68 26.916H150.208C149.68 28.812 148.624 30.36 147.04 31.56C145.456 32.736 143.488 33.324 141.136 33.324C139.264 33.324 137.584 32.904 136.096 32.064C134.632 31.224 133.48 30.036 132.64 28.5C131.8 26.94 131.38 25.14 131.38 23.1C131.38 21.06 131.788 19.272 132.604 17.736C133.42 16.2 134.56 15.024 136.024 14.208C137.512 13.368 139.216 12.948 141.136 12.948C143.008 12.948 144.664 13.356 146.104 14.172C147.544 14.988 148.648 16.116 149.416 17.556C150.208 18.972 150.604 20.58 150.604 22.38ZM147.22 21.696C147.22 20.448 146.944 19.38 146.392 18.492C145.84 17.58 145.084 16.896 144.124 16.44C143.188 15.96 142.144 15.72 140.992 15.72C139.336 15.72 137.92 16.248 136.744 17.304C135.592 18.36 134.932 19.824 134.764 21.696H147.22ZM153.704 23.064C153.704 21.048 154.112 19.284 154.928 17.772C155.744 16.236 156.86 15.048 158.276 14.208C159.716 13.368 161.324 12.948 163.1 12.948C164.636 12.948 166.064 13.308 167.384 14.028C168.704 14.724 169.712 15.648 170.408 16.8V6.36H173.72V33H170.408V29.292C169.76 30.468 168.8 31.44 167.528 32.208C166.256 32.952 164.768 33.324 163.064 33.324C161.312 33.324 159.716 32.892 158.276 32.028C156.86 31.164 155.744 29.952 154.928 28.392C154.112 26.832 153.704 25.056 153.704 23.064ZM170.408 23.1C170.408 21.612 170.108 20.316 169.508 19.212C168.908 18.108 168.092 17.268 167.06 16.692C166.052 16.092 164.936 15.792 163.712 15.792C162.488 15.792 161.372 16.08 160.364 16.656C159.356 17.232 158.552 18.072 157.952 19.176C157.352 20.28 157.052 21.576 157.052 23.064C157.052 24.576 157.352 25.896 157.952 27.024C158.552 28.128 159.356 28.98 160.364 29.58C161.372 30.156 162.488 30.444 163.712 30.444C164.936 30.444 166.052 30.156 167.06 29.58C168.092 28.98 168.908 28.128 169.508 27.024C170.108 25.896 170.408 24.588 170.408 23.1ZM207.394 22.668C207.394 23.22 207.358 23.772 207.286 24.324H193.93C194.002 25.428 194.302 26.256 194.83 26.808C195.382 27.336 196.078 27.6 196.918 27.6C198.094 27.6 198.934 27.072 199.438 26.016H206.962C206.65 27.408 206.038 28.656 205.126 29.76C204.238 30.84 203.11 31.692 201.742 32.316C200.374 32.94 198.862 33.252 197.206 33.252C195.214 33.252 193.438 32.832 191.878 31.992C190.342 31.152 189.13 29.952 188.242 28.392C187.378 26.832 186.946 24.996 186.946 22.884C186.946 20.772 187.378 18.948 188.242 17.412C189.106 15.852 190.306 14.652 191.842 13.812C193.402 12.972 195.19 12.552 197.206 12.552C199.198 12.552 200.962 12.96 202.498 13.776C204.034 14.592 205.234 15.768 206.098 17.304C206.962 18.816 207.394 20.604 207.394 22.668ZM200.194 20.904C200.194 20.04 199.906 19.368 199.33 18.888C198.754 18.384 198.034 18.132 197.17 18.132C196.306 18.132 195.598 18.372 195.046 18.852C194.494 19.308 194.134 19.992 193.966 20.904H200.194ZM221.19 18.672H218.022V33H210.93V18.672H208.734V12.804H210.93V12.624C210.93 10.032 211.686 8.052 213.198 6.684C214.734 5.292 216.93 4.596 219.786 4.596C220.362 4.596 220.806 4.608 221.118 4.632V10.644C220.926 10.62 220.662 10.608 220.326 10.608C219.558 10.608 218.994 10.788 218.634 11.148C218.274 11.484 218.07 12.036 218.022 12.804H221.19V18.672ZM234.619 18.672H231.451V33H224.359V18.672H222.163V12.804H224.359V12.624C224.359 10.032 225.115 8.052 226.627 6.684C228.163 5.292 230.359 4.596 233.215 4.596C233.791 4.596 234.235 4.608 234.547 4.632V10.644C234.355 10.62 234.091 10.608 233.755 10.608C232.987 10.608 232.423 10.788 232.063 11.148C231.703 11.484 231.499 12.036 231.451 12.804H234.619V18.672ZM240.705 10.932C239.457 10.932 238.449 10.596 237.681 9.924C236.937 9.228 236.565 8.364 236.565 7.332C236.565 6.276 236.937 5.4 237.681 4.704C238.449 4.008 239.457 3.66 240.705 3.66C241.929 3.66 242.913 4.008 243.657 4.704C244.425 5.4 244.809 6.276 244.809 7.332C244.809 8.364 244.425 9.228 243.657 9.924C242.913 10.596 241.929 10.932 240.705 10.932ZM244.197 12.804V33H237.141V12.804H244.197ZM247.063 22.884C247.063 20.796 247.495 18.972 248.359 17.412C249.223 15.852 250.423 14.652 251.959 13.812C253.519 12.972 255.295 12.552 257.287 12.552C259.855 12.552 262.015 13.26 263.767 14.676C265.519 16.068 266.647 18.024 267.151 20.544H259.663C259.231 19.224 258.391 18.564 257.143 18.564C256.255 18.564 255.547 18.936 255.019 19.68C254.515 20.4 254.263 21.468 254.263 22.884C254.263 24.3 254.515 25.38 255.019 26.124C255.547 26.868 256.255 27.24 257.143 27.24C258.415 27.24 259.255 26.58 259.663 25.26H267.151C266.647 27.756 265.519 29.712 263.767 31.128C262.015 32.544 259.855 33.252 257.287 33.252C255.295 33.252 253.519 32.832 251.959 31.992C250.423 31.152 249.223 29.952 248.359 28.392C247.495 26.832 247.063 24.996 247.063 22.884ZM273.646 10.932C272.398 10.932 271.39 10.596 270.622 9.924C269.878 9.228 269.506 8.364 269.506 7.332C269.506 6.276 269.878 5.4 270.622 4.704C271.39 4.008 272.398 3.66 273.646 3.66C274.87 3.66 275.854 4.008 276.598 4.704C277.366 5.4 277.75 6.276 277.75 7.332C277.75 8.364 277.366 9.228 276.598 9.924C275.854 10.596 274.87 10.932 273.646 10.932ZM277.138 12.804V33H270.082V12.804H277.138ZM300.453 22.668C300.453 23.22 300.417 23.772 300.345 24.324H286.989C287.061 25.428 287.361 26.256 287.889 26.808C288.441 27.336 289.137 27.6 289.977 27.6C291.153 27.6 291.993 27.072 292.497 26.016H300.021C299.709 27.408 299.097 28.656 298.185 29.76C297.297 30.84 296.169 31.692 294.801 32.316C293.433 32.94 291.921 33.252 290.265 33.252C288.273 33.252 286.497 32.832 284.937 31.992C283.401 31.152 282.189 29.952 281.301 28.392C280.437 26.832 280.005 24.996 280.005 22.884C280.005 20.772 280.437 18.948 281.301 17.412C282.165 15.852 283.365 14.652 284.901 13.812C286.461 12.972 288.249 12.552 290.265 12.552C292.257 12.552 294.021 12.96 295.557 13.776C297.093 14.592 298.293 15.768 299.157 17.304C300.021 18.816 300.453 20.604 300.453 22.668ZM293.253 20.904C293.253 20.04 292.965 19.368 292.389 18.888C291.813 18.384 291.093 18.132 290.229 18.132C289.365 18.132 288.657 18.372 288.105 18.852C287.553 19.308 287.193 19.992 287.025 20.904H293.253ZM316.552 12.624C318.88 12.624 320.728 13.404 322.096 14.964C323.464 16.5 324.148 18.588 324.148 21.228V33H317.092V22.164C317.092 21.012 316.792 20.112 316.192 19.464C315.592 18.792 314.788 18.456 313.78 18.456C312.724 18.456 311.896 18.792 311.296 19.464C310.696 20.112 310.396 21.012 310.396 22.164V33H303.34V12.804H310.396V15.684C311.02 14.772 311.86 14.04 312.916 13.488C313.972 12.912 315.184 12.624 316.552 12.624ZM326.868 22.884C326.868 20.796 327.3 18.972 328.164 17.412C329.028 15.852 330.228 14.652 331.764 13.812C333.324 12.972 335.1 12.552 337.092 12.552C339.66 12.552 341.82 13.26 343.572 14.676C345.324 16.068 346.452 18.024 346.956 20.544H339.468C339.036 19.224 338.196 18.564 336.948 18.564C336.06 18.564 335.352 18.936 334.824 19.68C334.32 20.4 334.068 21.468 334.068 22.884C334.068 24.3 334.32 25.38 334.824 26.124C335.352 26.868 336.06 27.24 336.948 27.24C338.22 27.24 339.06 26.58 339.468 25.26H346.956C346.452 27.756 345.324 29.712 343.572 31.128C341.82 32.544 339.66 33.252 337.092 33.252C335.1 33.252 333.324 32.832 331.764 31.992C330.228 31.152 329.028 29.952 328.164 28.392C327.3 26.832 326.868 24.996 326.868 22.884ZM371.631 12.804L358.815 42.612H351.147L355.971 32.136L347.691 12.804H355.539L359.787 24.252L363.891 12.804H371.631ZM392.435 33.324C390.587 33.324 388.907 32.904 387.395 32.064C385.907 31.224 384.731 30.036 383.867 28.5C383.027 26.94 382.607 25.14 382.607 23.1C382.607 21.084 383.039 19.308 383.903 17.772C384.791 16.212 385.991 15.024 387.503 14.208C389.015 13.368 390.707 12.948 392.579 12.948C394.451 12.948 396.143 13.368 397.655 14.208C399.167 15.024 400.355 16.2 401.219 17.736C402.107 19.272 402.551 21.06 402.551 23.1C402.551 25.14 402.095 26.94 401.183 28.5C400.295 30.036 399.083 31.224 397.547 32.064C396.011 32.904 394.307 33.324 392.435 33.324ZM392.435 30.444C393.611 30.444 394.715 30.168 395.747 29.616C396.779 29.064 397.607 28.236 398.231 27.132C398.879 26.028 399.203 24.684 399.203 23.1C399.203 21.516 398.891 20.172 398.267 19.068C397.643 17.964 396.827 17.148 395.819 16.62C394.811 16.068 393.719 15.792 392.543 15.792C391.343 15.792 390.239 16.068 389.231 16.62C388.247 17.148 387.455 17.964 386.855 19.068C386.255 20.172 385.955 21.516 385.955 23.1C385.955 24.708 386.243 26.064 386.819 27.168C387.419 28.272 388.211 29.1 389.195 29.652C390.179 30.18 391.259 30.444 392.435 30.444ZM414.886 15.972H410.746V33H407.47V15.972H404.914V13.272H407.47V11.868C407.47 9.66 408.034 8.052 409.162 7.044C410.314 6.012 412.15 5.496 414.67 5.496V8.232C413.23 8.232 412.21 8.52 411.61 9.096C411.034 9.648 410.746 10.572 410.746 11.868V13.272H414.886V15.972ZM6.768 55.972V67.6C6.768 68.56 6.972 69.244 7.38 69.652C7.788 70.036 8.496 70.228 9.504 70.228H11.916V73H8.964C7.14 73 5.772 72.58 4.86 71.74C3.948 70.9 3.492 69.52 3.492 67.6V55.972H0.936V53.272H3.492V48.304H6.768V53.272H11.916V55.972H6.768ZM25.6773 52.912C27.1653 52.912 28.5093 53.236 29.7093 53.884C30.9093 54.508 31.8453 55.456 32.5173 56.728C33.2133 58 33.5613 59.548 33.5613 61.372V73H30.3213V61.84C30.3213 59.872 29.8293 58.372 28.8453 57.34C27.8613 56.284 26.5173 55.756 24.8133 55.756C23.0853 55.756 21.7053 56.296 20.6733 57.376C19.6653 58.456 19.1613 60.028 19.1613 62.092V73H15.8853V46.36H19.1613V56.08C19.8093 55.072 20.6973 54.292 21.8253 53.74C22.9773 53.188 24.2613 52.912 25.6773 52.912ZM56.9126 62.38C56.9126 63.004 56.8766 63.664 56.8046 64.36H41.0366C41.1566 66.304 41.8166 67.828 43.0166 68.932C44.2406 70.012 45.7166 70.552 47.4446 70.552C48.8606 70.552 50.0366 70.228 50.9726 69.58C51.9326 68.908 52.6046 68.02 52.9886 66.916H56.5166C55.9886 68.812 54.9326 70.36 53.3486 71.56C51.7646 72.736 49.7966 73.324 47.4446 73.324C45.5726 73.324 43.8926 72.904 42.4046 72.064C40.9406 71.224 39.7886 70.036 38.9486 68.5C38.1086 66.94 37.6886 65.14 37.6886 63.1C37.6886 61.06 38.0966 59.272 38.9126 57.736C39.7286 56.2 40.8686 55.024 42.3326 54.208C43.8206 53.368 45.5246 52.948 47.4446 52.948C49.3166 52.948 50.9726 53.356 52.4126 54.172C53.8526 54.988 54.9566 56.116 55.7246 57.556C56.5166 58.972 56.9126 60.58 56.9126 62.38ZM53.5286 61.696C53.5286 60.448 53.2526 59.38 52.7006 58.492C52.1486 57.58 51.3926 56.896 50.4326 56.44C49.4966 55.96 48.4526 55.72 47.3006 55.72C45.6446 55.72 44.2286 56.248 43.0526 57.304C41.9006 58.36 41.2406 59.824 41.0726 61.696H53.5286ZM74.1105 46.36V73H70.8345V46.36H74.1105ZM81.3859 50.068C80.7619 50.068 80.2339 49.852 79.8019 49.42C79.3699 48.988 79.1539 48.46 79.1539 47.836C79.1539 47.212 79.3699 46.684 79.8019 46.252C80.2339 45.82 80.7619 45.604 81.3859 45.604C81.9859 45.604 82.4899 45.82 82.8979 46.252C83.3299 46.684 83.5459 47.212 83.5459 47.836C83.5459 48.46 83.3299 48.988 82.8979 49.42C82.4899 49.852 81.9859 50.068 81.3859 50.068ZM82.9699 53.272V73H79.6939V53.272H82.9699ZM95.5373 73.324C94.0253 73.324 92.6693 73.072 91.4693 72.568C90.2693 72.04 89.3213 71.32 88.6253 70.408C87.9293 69.472 87.5453 68.404 87.4733 67.204H90.8573C90.9533 68.188 91.4093 68.992 92.2253 69.616C93.0653 70.24 94.1573 70.552 95.5013 70.552C96.7493 70.552 97.7333 70.276 98.4533 69.724C99.1733 69.172 99.5333 68.476 99.5333 67.636C99.5333 66.772 99.1493 66.136 98.3813 65.728C97.6133 65.296 96.4253 64.876 94.8173 64.468C93.3533 64.084 92.1533 63.7 91.2173 63.316C90.3053 62.908 89.5133 62.32 88.8413 61.552C88.1933 60.76 87.8693 59.728 87.8693 58.456C87.8693 57.448 88.1693 56.524 88.7693 55.684C89.3693 54.844 90.2213 54.184 91.3253 53.704C92.4293 53.2 93.6893 52.948 95.1053 52.948C97.2893 52.948 99.0533 53.5 100.397 54.604C101.741 55.708 102.461 57.22 102.557 59.14H99.2813C99.2093 58.108 98.7893 57.28 98.0213 56.656C97.2773 56.032 96.2693 55.72 94.9973 55.72C93.8213 55.72 92.8853 55.972 92.1893 56.476C91.4933 56.98 91.1453 57.64 91.1453 58.456C91.1453 59.104 91.3493 59.644 91.7573 60.076C92.1893 60.484 92.7173 60.82 93.3413 61.084C93.9893 61.324 94.8773 61.6 96.0053 61.912C97.4213 62.296 98.5733 62.68 99.4613 63.064C100.349 63.424 101.105 63.976 101.729 64.72C102.377 65.464 102.713 66.436 102.737 67.636C102.737 68.716 102.437 69.688 101.837 70.552C101.237 71.416 100.385 72.1 99.2813 72.604C98.2013 73.084 96.9533 73.324 95.5373 73.324ZM111.358 55.972V67.6C111.358 68.56 111.562 69.244 111.97 69.652C112.378 70.036 113.086 70.228 114.094 70.228H116.506V73H113.554C111.73 73 110.362 72.58 109.45 71.74C108.538 70.9 108.082 69.52 108.082 67.6V55.972H105.526V53.272H108.082V48.304H111.358V53.272H116.506V55.972H111.358ZM122.167 50.068C121.543 50.068 121.015 49.852 120.583 49.42C120.151 48.988 119.935 48.46 119.935 47.836C119.935 47.212 120.151 46.684 120.583 46.252C121.015 45.82 121.543 45.604 122.167 45.604C122.767 45.604 123.271 45.82 123.679 46.252C124.111 46.684 124.327 47.212 124.327 47.836C124.327 48.46 124.111 48.988 123.679 49.42C123.271 49.852 122.767 50.068 122.167 50.068ZM123.751 53.272V73H120.475V53.272H123.751ZM138.947 52.912C141.347 52.912 143.291 53.644 144.779 55.108C146.267 56.548 147.011 58.636 147.011 61.372V73H143.771V61.84C143.771 59.872 143.279 58.372 142.295 57.34C141.311 56.284 139.967 55.756 138.263 55.756C136.535 55.756 135.155 56.296 134.123 57.376C133.115 58.456 132.611 60.028 132.611 62.092V73H129.335V53.272H132.611V56.08C133.259 55.072 134.135 54.292 135.239 53.74C136.367 53.188 137.603 52.912 138.947 52.912ZM160.498 52.948C162.202 52.948 163.69 53.32 164.962 54.064C166.258 54.808 167.218 55.744 167.842 56.872V53.272H171.154V73.432C171.154 75.232 170.77 76.828 170.002 78.22C169.234 79.636 168.13 80.74 166.69 81.532C165.274 82.324 163.618 82.72 161.722 82.72C159.13 82.72 156.97 82.108 155.242 80.884C153.514 79.66 152.494 77.992 152.182 75.88H155.422C155.782 77.08 156.526 78.04 157.654 78.76C158.782 79.504 160.138 79.876 161.722 79.876C163.522 79.876 164.986 79.312 166.114 78.184C167.266 77.056 167.842 75.472 167.842 73.432V69.292C167.194 70.444 166.234 71.404 164.962 72.172C163.69 72.94 162.202 73.324 160.498 73.324C158.746 73.324 157.15 72.892 155.71 72.028C154.294 71.164 153.178 69.952 152.362 68.392C151.546 66.832 151.138 65.056 151.138 63.064C151.138 61.048 151.546 59.284 152.362 57.772C153.178 56.236 154.294 55.048 155.71 54.208C157.15 53.368 158.746 52.948 160.498 52.948ZM167.842 63.1C167.842 61.612 167.542 60.316 166.942 59.212C166.342 58.108 165.526 57.268 164.494 56.692C163.486 56.092 162.37 55.792 161.146 55.792C159.922 55.792 158.806 56.08 157.798 56.656C156.79 57.232 155.986 58.072 155.386 59.176C154.786 60.28 154.486 61.576 154.486 63.064C154.486 64.576 154.786 65.896 155.386 67.024C155.986 68.128 156.79 68.98 157.798 69.58C158.806 70.156 159.922 70.444 161.146 70.444C162.37 70.444 163.486 70.156 164.494 69.58C165.526 68.98 166.342 68.128 166.942 67.024C167.542 65.896 167.842 64.588 167.842 63.1ZM189.564 56.908C190.212 55.78 191.172 54.844 192.444 54.1C193.74 53.332 195.24 52.948 196.944 52.948C198.696 52.948 200.28 53.368 201.696 54.208C203.136 55.048 204.264 56.236 205.08 57.772C205.896 59.284 206.304 61.048 206.304 63.064C206.304 65.056 205.896 66.832 205.08 68.392C204.264 69.952 203.136 71.164 201.696 72.028C200.28 72.892 198.696 73.324 196.944 73.324C195.264 73.324 193.776 72.952 192.48 72.208C191.208 71.44 190.236 70.492 189.564 69.364V82.36H186.288V53.272H189.564V56.908ZM202.956 63.064C202.956 61.576 202.656 60.28 202.056 59.176C201.456 58.072 200.64 57.232 199.608 56.656C198.6 56.08 197.484 55.792 196.26 55.792C195.06 55.792 193.944 56.092 192.912 56.692C191.904 57.268 191.088 58.12 190.464 59.248C189.864 60.352 189.564 61.636 189.564 63.1C189.564 64.588 189.864 65.896 190.464 67.024C191.088 68.128 191.904 68.98 192.912 69.58C193.944 70.156 195.06 70.444 196.26 70.444C197.484 70.444 198.6 70.156 199.608 69.58C200.64 68.98 201.456 68.128 202.056 67.024C202.656 65.896 202.956 64.576 202.956 63.064ZM213.892 56.476C214.468 55.348 215.284 54.472 216.34 53.848C217.42 53.224 218.728 52.912 220.264 52.912V56.296H219.4C215.728 56.296 213.892 58.288 213.892 62.272V73H210.616V53.272H213.892V56.476ZM232.649 73.324C230.801 73.324 229.121 72.904 227.609 72.064C226.121 71.224 224.945 70.036 224.081 68.5C223.241 66.94 222.821 65.14 222.821 63.1C222.821 61.084 223.253 59.308 224.117 57.772C225.005 56.212 226.205 55.024 227.717 54.208C229.229 53.368 230.921 52.948 232.793 52.948C234.665 52.948 236.357 53.368 237.869 54.208C239.381 55.024 240.569 56.2 241.433 57.736C242.321 59.272 242.765 61.06 242.765 63.1C242.765 65.14 242.309 66.94 241.397 68.5C240.509 70.036 239.297 71.224 237.761 72.064C236.225 72.904 234.521 73.324 232.649 73.324ZM232.649 70.444C233.825 70.444 234.929 70.168 235.961 69.616C236.993 69.064 237.821 68.236 238.445 67.132C239.093 66.028 239.417 64.684 239.417 63.1C239.417 61.516 239.105 60.172 238.481 59.068C237.857 57.964 237.041 57.148 236.033 56.62C235.025 56.068 233.933 55.792 232.757 55.792C231.557 55.792 230.453 56.068 229.445 56.62C228.461 57.148 227.669 57.964 227.069 59.068C226.469 60.172 226.169 61.516 226.169 63.1C226.169 64.708 226.457 66.064 227.033 67.168C227.633 68.272 228.425 69.1 229.409 69.652C230.393 70.18 231.473 70.444 232.649 70.444ZM245.849 63.1C245.849 61.06 246.257 59.284 247.073 57.772C247.889 56.236 249.017 55.048 250.457 54.208C251.921 53.368 253.589 52.948 255.461 52.948C257.885 52.948 259.877 53.536 261.437 54.712C263.021 55.888 264.065 57.52 264.569 59.608H261.041C260.705 58.408 260.045 57.46 259.061 56.764C258.101 56.068 256.901 55.72 255.461 55.72C253.589 55.72 252.077 56.368 250.925 57.664C249.773 58.936 249.197 60.748 249.197 63.1C249.197 65.476 249.773 67.312 250.925 68.608C252.077 69.904 253.589 70.552 255.461 70.552C256.901 70.552 258.101 70.216 259.061 69.544C260.021 68.872 260.681 67.912 261.041 66.664H264.569C264.041 68.68 262.985 70.3 261.401 71.524C259.817 72.724 257.837 73.324 255.461 73.324C253.589 73.324 251.921 72.904 250.457 72.064C249.017 71.224 247.889 70.036 247.073 68.5C246.257 66.964 245.849 65.164 245.849 63.1ZM286.94 62.38C286.94 63.004 286.904 63.664 286.832 64.36H271.064C271.184 66.304 271.844 67.828 273.044 68.932C274.268 70.012 275.744 70.552 277.472 70.552C278.888 70.552 280.064 70.228 281 69.58C281.96 68.908 282.632 68.02 283.016 66.916H286.544C286.016 68.812 284.96 70.36 283.376 71.56C281.792 72.736 279.824 73.324 277.472 73.324C275.6 73.324 273.92 72.904 272.432 72.064C270.968 71.224 269.816 70.036 268.976 68.5C268.136 66.94 267.716 65.14 267.716 63.1C267.716 61.06 268.124 59.272 268.94 57.736C269.756 56.2 270.896 55.024 272.36 54.208C273.848 53.368 275.552 52.948 277.472 52.948C279.344 52.948 281 53.356 282.44 54.172C283.88 54.988 284.984 56.116 285.752 57.556C286.544 58.972 286.94 60.58 286.94 62.38ZM283.556 61.696C283.556 60.448 283.28 59.38 282.728 58.492C282.176 57.58 281.42 56.896 280.46 56.44C279.524 55.96 278.48 55.72 277.328 55.72C275.672 55.72 274.256 56.248 273.08 57.304C271.928 58.36 271.268 59.824 271.1 61.696H283.556ZM298.248 73.324C296.736 73.324 295.38 73.072 294.18 72.568C292.98 72.04 292.032 71.32 291.336 70.408C290.64 69.472 290.256 68.404 290.184 67.204H293.568C293.664 68.188 294.12 68.992 294.936 69.616C295.776 70.24 296.868 70.552 298.212 70.552C299.46 70.552 300.444 70.276 301.164 69.724C301.884 69.172 302.244 68.476 302.244 67.636C302.244 66.772 301.86 66.136 301.092 65.728C300.324 65.296 299.136 64.876 297.528 64.468C296.064 64.084 294.864 63.7 293.928 63.316C293.016 62.908 292.224 62.32 291.552 61.552C290.904 60.76 290.58 59.728 290.58 58.456C290.58 57.448 290.88 56.524 291.48 55.684C292.08 54.844 292.932 54.184 294.036 53.704C295.14 53.2 296.4 52.948 297.816 52.948C300 52.948 301.764 53.5 303.108 54.604C304.452 55.708 305.172 57.22 305.268 59.14H301.992C301.92 58.108 301.5 57.28 300.732 56.656C299.988 56.032 298.98 55.72 297.708 55.72C296.532 55.72 295.596 55.972 294.9 56.476C294.204 56.98 293.856 57.64 293.856 58.456C293.856 59.104 294.06 59.644 294.468 60.076C294.9 60.484 295.428 60.82 296.052 61.084C296.7 61.324 297.588 61.6 298.716 61.912C300.132 62.296 301.284 62.68 302.172 63.064C303.06 63.424 303.816 63.976 304.44 64.72C305.088 65.464 305.424 66.436 305.448 67.636C305.448 68.716 305.148 69.688 304.548 70.552C303.948 71.416 303.096 72.1 301.992 72.604C300.912 73.084 299.664 73.324 298.248 73.324ZM317.057 73.324C315.545 73.324 314.189 73.072 312.989 72.568C311.789 72.04 310.841 71.32 310.145 70.408C309.449 69.472 309.065 68.404 308.993 67.204H312.377C312.473 68.188 312.929 68.992 313.745 69.616C314.585 70.24 315.677 70.552 317.021 70.552C318.269 70.552 319.253 70.276 319.973 69.724C320.693 69.172 321.053 68.476 321.053 67.636C321.053 66.772 320.669 66.136 319.901 65.728C319.133 65.296 317.945 64.876 316.337 64.468C314.873 64.084 313.673 63.7 312.737 63.316C311.825 62.908 311.033 62.32 310.361 61.552C309.713 60.76 309.389 59.728 309.389 58.456C309.389 57.448 309.689 56.524 310.289 55.684C310.889 54.844 311.741 54.184 312.845 53.704C313.949 53.2 315.209 52.948 316.625 52.948C318.809 52.948 320.573 53.5 321.917 54.604C323.261 55.708 323.981 57.22 324.077 59.14H320.801C320.729 58.108 320.309 57.28 319.541 56.656C318.797 56.032 317.789 55.72 316.517 55.72C315.341 55.72 314.405 55.972 313.709 56.476C313.013 56.98 312.665 57.64 312.665 58.456C312.665 59.104 312.869 59.644 313.277 60.076C313.709 60.484 314.237 60.82 314.861 61.084C315.509 61.324 316.397 61.6 317.525 61.912C318.941 62.296 320.093 62.68 320.981 63.064C321.869 63.424 322.625 63.976 323.249 64.72C323.897 65.464 324.233 66.436 324.257 67.636C324.257 68.716 323.957 69.688 323.357 70.552C322.757 71.416 321.905 72.1 320.801 72.604C319.721 73.084 318.473 73.324 317.057 73.324Z" fill="black"/>
<path d="M248 198C246.895 198 246 198.895 246 200C246 201.105 246.895 202 248 202V198ZM306.414 201.414C307.195 200.633 307.195 199.367 306.414 198.586L293.686 185.858C292.905 185.077 291.639 185.077 290.858 185.858C290.077 186.639 290.077 187.905 290.858 188.686L302.172 200L290.858 211.314C290.077 212.095 290.077 213.361 290.858 214.142C291.639 214.923 292.905 214.923 293.686 214.142L306.414 201.414ZM248 202H305V198H248V202Z" fill="black"/>
</svg>
