<svg width="756" height="982" viewBox="0 0 756 982" fill="none" xmlns="http://www.w3.org/2000/svg">
<g clip-path="url(#clip0_160_3035)">
<rect width="756" height="982" fill="white"/>
<circle cx="47" cy="973" r="539" fill="url(#paint0_radial_160_3035)" fill-opacity="0.7"/>
<circle cx="766" cy="-84" r="539" fill="url(#paint1_radial_160_3035)" fill-opacity="0.7"/>
<circle cx="3.1148" cy="3.1148" r="3.1148" transform="matrix(-1 0 0 1 755.822 0)" fill="#FFEFE1"/>
<circle cx="3.1148" cy="3.1148" r="3.1148" transform="matrix(-1 0 0 1 716.592 0)" fill="#FFEFE1"/>
<circle cx="3.1148" cy="3.1148" r="3.1148" transform="matrix(-1 0 0 1 677.363 0)" fill="#FFEFE1"/>
<circle cx="3.1148" cy="3.1148" r="3.1148" transform="matrix(-1 0 0 1 638.133 0)" fill="#FFEFE1"/>
<circle cx="3.1148" cy="3.1148" r="3.1148" transform="matrix(-1 0 0 1 598.904 0)" fill="#FFEFE1"/>
<circle cx="3.1148" cy="3.1148" r="3.1148" transform="matrix(-1 0 0 1 559.674 0)" fill="#FFEFE1"/>
<circle cx="3.1148" cy="3.1148" r="3.1148" transform="matrix(-1 0 0 1 520.445 0)" fill="#FFEFE1"/>
<circle cx="3.1148" cy="3.1148" r="3.1148" transform="matrix(-1 0 0 1 481.215 0)" fill="#FFEFE1"/>
<circle cx="3.1148" cy="3.1148" r="3.1148" transform="matrix(-1 0 0 1 441.986 0)" fill="#FFEFE1"/>
<circle cx="3.1148" cy="3.1148" r="3.1148" transform="matrix(-1 0 0 1 402.756 0)" fill="#FFEFE1"/>
<circle cx="3.1148" cy="3.1148" r="3.1148" transform="matrix(-1 0 0 1 363.525 0)" fill="#FFEFE1"/>
<circle cx="3.1148" cy="3.1148" r="3.1148" transform="matrix(-1 0 0 1 324.297 0)" fill="#FFEFE1"/>
<circle cx="3.1148" cy="3.1148" r="3.1148" transform="matrix(-1 0 0 1 285.066 0)" fill="#FFEFE1"/>
<circle cx="3.1148" cy="3.1148" r="3.1148" transform="matrix(-1 0 0 1 245.838 0)" fill="#FFEFE1"/>
<circle cx="3.1148" cy="3.1148" r="3.1148" transform="matrix(-1 0 0 1 206.607 0)" fill="#FFEFE1"/>
<circle cx="3.1148" cy="3.1148" r="3.1148" transform="matrix(-1 0 0 1 167.379 0)" fill="#FFEFE1"/>
<circle cx="3.1148" cy="3.1148" r="3.1148" transform="matrix(-1 0 0 1 128.148 0)" fill="#FFEFE1"/>
<circle cx="3.1148" cy="3.1148" r="3.1148" transform="matrix(-1 0 0 1 88.918 0)" fill="#FFEFE1"/>
<circle cx="3.1148" cy="3.1148" r="3.1148" transform="matrix(-1 0 0 1 49.6895 0)" fill="#FFEFE1"/>
<circle cx="3.1148" cy="3.1148" r="3.1148" transform="matrix(-1 0 0 1 10.459 0)" fill="#FFEFE1"/>
<circle cx="3.1148" cy="3.1148" r="3.1148" transform="matrix(-1 0 0 1 755.822 57.2295)" fill="#FFEFE1"/>
<circle cx="3.1148" cy="3.1148" r="3.1148" transform="matrix(-1 0 0 1 716.592 57.2295)" fill="#FFEFE1"/>
<circle cx="3.1148" cy="3.1148" r="3.1148" transform="matrix(-1 0 0 1 677.363 57.2295)" fill="#FFEFE1"/>
<circle cx="3.1148" cy="3.1148" r="3.1148" transform="matrix(-1 0 0 1 638.133 57.2295)" fill="#FFEFE1"/>
<circle cx="3.1148" cy="3.1148" r="3.1148" transform="matrix(-1 0 0 1 598.904 57.2295)" fill="#FFEFE1"/>
<circle cx="3.1148" cy="3.1148" r="3.1148" transform="matrix(-1 0 0 1 559.674 57.2295)" fill="#FFEFE1"/>
<circle cx="3.1148" cy="3.1148" r="3.1148" transform="matrix(-1 0 0 1 520.445 57.2295)" fill="#FFEFE1"/>
<circle cx="3.1148" cy="3.1148" r="3.1148" transform="matrix(-1 0 0 1 481.215 57.2295)" fill="#FFEFE1"/>
<circle cx="3.1148" cy="3.1148" r="3.1148" transform="matrix(-1 0 0 1 441.986 57.2295)" fill="#FFEFE1"/>
<circle cx="3.1148" cy="3.1148" r="3.1148" transform="matrix(-1 0 0 1 402.756 57.2295)" fill="#FFEFE1"/>
<circle cx="3.1148" cy="3.1148" r="3.1148" transform="matrix(-1 0 0 1 363.525 57.2295)" fill="#FFEFE1"/>
<circle cx="3.1148" cy="3.1148" r="3.1148" transform="matrix(-1 0 0 1 324.297 57.2295)" fill="#FFEFE1"/>
<circle cx="3.1148" cy="3.1148" r="3.1148" transform="matrix(-1 0 0 1 285.066 57.2295)" fill="#FFEFE1"/>
<circle cx="3.1148" cy="3.1148" r="3.1148" transform="matrix(-1 0 0 1 245.838 57.2295)" fill="#FFEFE1"/>
<circle cx="3.1148" cy="3.1148" r="3.1148" transform="matrix(-1 0 0 1 206.607 57.2295)" fill="#FFEFE1"/>
<circle cx="3.1148" cy="3.1148" r="3.1148" transform="matrix(-1 0 0 1 167.379 57.2295)" fill="#FFEFE1"/>
<circle cx="3.1148" cy="3.1148" r="3.1148" transform="matrix(-1 0 0 1 128.148 57.2295)" fill="#FFEFE1"/>
<circle cx="3.1148" cy="3.1148" r="3.1148" transform="matrix(-1 0 0 1 88.918 57.2295)" fill="#FFEFE1"/>
<circle cx="3.1148" cy="3.1148" r="3.1148" transform="matrix(-1 0 0 1 49.6895 57.2295)" fill="#FFEFE1"/>
<circle cx="3.1148" cy="3.1148" r="3.1148" transform="matrix(-1 0 0 1 10.459 57.2295)" fill="#FFEFE1"/>
<circle cx="3.1148" cy="3.1148" r="3.1148" transform="matrix(-1 0 0 1 755.822 114.459)" fill="#FFEFE1"/>
<circle cx="3.1148" cy="3.1148" r="3.1148" transform="matrix(-1 0 0 1 716.592 114.459)" fill="#FFEFE1"/>
<circle cx="3.1148" cy="3.1148" r="3.1148" transform="matrix(-1 0 0 1 677.363 114.459)" fill="#FFEFE1"/>
<circle cx="3.1148" cy="3.1148" r="3.1148" transform="matrix(-1 0 0 1 638.133 114.459)" fill="#FFEFE1"/>
<circle cx="3.1148" cy="3.1148" r="3.1148" transform="matrix(-1 0 0 1 598.904 114.459)" fill="#FFEFE1"/>
<circle cx="3.1148" cy="3.1148" r="3.1148" transform="matrix(-1 0 0 1 559.674 114.459)" fill="#FFEFE1"/>
<circle cx="3.1148" cy="3.1148" r="3.1148" transform="matrix(-1 0 0 1 520.445 114.459)" fill="#FFEFE1"/>
<circle cx="3.1148" cy="3.1148" r="3.1148" transform="matrix(-1 0 0 1 481.215 114.459)" fill="#FFEFE1"/>
<circle cx="3.1148" cy="3.1148" r="3.1148" transform="matrix(-1 0 0 1 441.986 114.459)" fill="#FFEFE1"/>
<circle cx="3.1148" cy="3.1148" r="3.1148" transform="matrix(-1 0 0 1 402.756 114.459)" fill="#FFEFE1"/>
<circle cx="3.1148" cy="3.1148" r="3.1148" transform="matrix(-1 0 0 1 363.525 114.459)" fill="#FFEFE1"/>
<circle cx="3.1148" cy="3.1148" r="3.1148" transform="matrix(-1 0 0 1 324.297 114.459)" fill="#FFEFE1"/>
<circle cx="3.1148" cy="3.1148" r="3.1148" transform="matrix(-1 0 0 1 285.066 114.459)" fill="#FFEFE1"/>
<circle cx="3.1148" cy="3.1148" r="3.1148" transform="matrix(-1 0 0 1 245.838 114.459)" fill="#FFEFE1"/>
<circle cx="3.1148" cy="3.1148" r="3.1148" transform="matrix(-1 0 0 1 206.607 114.459)" fill="#FFEFE1"/>
<circle cx="3.1148" cy="3.1148" r="3.1148" transform="matrix(-1 0 0 1 167.379 114.459)" fill="#FFEFE1"/>
<circle cx="3.1148" cy="3.1148" r="3.1148" transform="matrix(-1 0 0 1 128.148 114.459)" fill="#FFEFE1"/>
<circle cx="3.1148" cy="3.1148" r="3.1148" transform="matrix(-1 0 0 1 88.918 114.459)" fill="#FFEFE1"/>
<circle cx="3.1148" cy="3.1148" r="3.1148" transform="matrix(-1 0 0 1 49.6895 114.459)" fill="#FFEFE1"/>
<circle cx="3.1148" cy="3.1148" r="3.1148" transform="matrix(-1 0 0 1 10.459 114.459)" fill="#FFEFE1"/>
<circle cx="3.1148" cy="3.1148" r="3.1148" transform="matrix(-1 0 0 1 755.822 171.689)" fill="#FFEFE1"/>
<circle cx="3.1148" cy="3.1148" r="3.1148" transform="matrix(-1 0 0 1 716.592 171.689)" fill="#FFEFE1"/>
<circle cx="3.1148" cy="3.1148" r="3.1148" transform="matrix(-1 0 0 1 677.363 171.689)" fill="#FFEFE1"/>
<circle cx="3.1148" cy="3.1148" r="3.1148" transform="matrix(-1 0 0 1 638.133 171.689)" fill="#FFEFE1"/>
<circle cx="3.1148" cy="3.1148" r="3.1148" transform="matrix(-1 0 0 1 598.904 171.689)" fill="#FFEFE1"/>
<circle cx="3.1148" cy="3.1148" r="3.1148" transform="matrix(-1 0 0 1 559.674 171.689)" fill="#FFEFE1"/>
<circle cx="3.1148" cy="3.1148" r="3.1148" transform="matrix(-1 0 0 1 520.445 171.689)" fill="#FFEFE1"/>
<circle cx="3.1148" cy="3.1148" r="3.1148" transform="matrix(-1 0 0 1 481.215 171.689)" fill="#FFEFE1"/>
<circle cx="3.1148" cy="3.1148" r="3.1148" transform="matrix(-1 0 0 1 441.986 171.689)" fill="#FFEFE1"/>
<circle cx="3.1148" cy="3.1148" r="3.1148" transform="matrix(-1 0 0 1 402.756 171.689)" fill="#FFEFE1"/>
<circle cx="3.1148" cy="3.1148" r="3.1148" transform="matrix(-1 0 0 1 363.525 171.689)" fill="#FFEFE1"/>
<circle cx="3.1148" cy="3.1148" r="3.1148" transform="matrix(-1 0 0 1 324.297 171.689)" fill="#FFEFE1"/>
<circle cx="3.1148" cy="3.1148" r="3.1148" transform="matrix(-1 0 0 1 285.066 171.689)" fill="#FFEFE1"/>
<circle cx="3.1148" cy="3.1148" r="3.1148" transform="matrix(-1 0 0 1 245.838 171.689)" fill="#FFEFE1"/>
<circle cx="3.1148" cy="3.1148" r="3.1148" transform="matrix(-1 0 0 1 206.607 171.689)" fill="#FFEFE1"/>
<circle cx="3.1148" cy="3.1148" r="3.1148" transform="matrix(-1 0 0 1 167.379 171.689)" fill="#FFEFE1"/>
<circle cx="3.1148" cy="3.1148" r="3.1148" transform="matrix(-1 0 0 1 128.148 171.689)" fill="#FFEFE1"/>
<circle cx="3.1148" cy="3.1148" r="3.1148" transform="matrix(-1 0 0 1 88.918 171.689)" fill="#FFEFE1"/>
<circle cx="3.1148" cy="3.1148" r="3.1148" transform="matrix(-1 0 0 1 49.6895 171.689)" fill="#FFEFE1"/>
<circle cx="3.1148" cy="3.1148" r="3.1148" transform="matrix(-1 0 0 1 10.459 171.689)" fill="#FFEFE1"/>
<circle cx="3.1148" cy="3.1148" r="3.1148" transform="matrix(-1 0 0 1 755.822 228.918)" fill="#FFEFE1"/>
<circle cx="3.1148" cy="3.1148" r="3.1148" transform="matrix(-1 0 0 1 716.592 228.918)" fill="#FFEFE1"/>
<circle cx="3.1148" cy="3.1148" r="3.1148" transform="matrix(-1 0 0 1 677.363 228.918)" fill="#FFEFE1"/>
<circle cx="3.1148" cy="3.1148" r="3.1148" transform="matrix(-1 0 0 1 638.133 228.918)" fill="#FFEFE1"/>
<circle cx="3.1148" cy="3.1148" r="3.1148" transform="matrix(-1 0 0 1 598.904 228.918)" fill="#FFEFE1"/>
<circle cx="3.1148" cy="3.1148" r="3.1148" transform="matrix(-1 0 0 1 559.674 228.918)" fill="#FFEFE1"/>
<circle cx="3.1148" cy="3.1148" r="3.1148" transform="matrix(-1 0 0 1 520.445 228.918)" fill="#FFEFE1"/>
<circle cx="3.1148" cy="3.1148" r="3.1148" transform="matrix(-1 0 0 1 481.215 228.918)" fill="#FFEFE1"/>
<circle cx="3.1148" cy="3.1148" r="3.1148" transform="matrix(-1 0 0 1 441.986 228.918)" fill="#FFEFE1"/>
<circle cx="3.1148" cy="3.1148" r="3.1148" transform="matrix(-1 0 0 1 402.756 228.918)" fill="#FFEFE1"/>
<circle cx="3.1148" cy="3.1148" r="3.1148" transform="matrix(-1 0 0 1 363.525 228.918)" fill="#FFEFE1"/>
<circle cx="3.1148" cy="3.1148" r="3.1148" transform="matrix(-1 0 0 1 324.297 228.918)" fill="#FFEFE1"/>
<circle cx="3.1148" cy="3.1148" r="3.1148" transform="matrix(-1 0 0 1 285.066 228.918)" fill="#FFEFE1"/>
<circle cx="3.1148" cy="3.1148" r="3.1148" transform="matrix(-1 0 0 1 245.838 228.918)" fill="#FFEFE1"/>
<circle cx="3.1148" cy="3.1148" r="3.1148" transform="matrix(-1 0 0 1 206.607 228.918)" fill="#FFEFE1"/>
<circle cx="3.1148" cy="3.1148" r="3.1148" transform="matrix(-1 0 0 1 167.379 228.918)" fill="#FFEFE1"/>
<circle cx="3.1148" cy="3.1148" r="3.1148" transform="matrix(-1 0 0 1 128.148 228.918)" fill="#FFEFE1"/>
<circle cx="3.1148" cy="3.1148" r="3.1148" transform="matrix(-1 0 0 1 88.918 228.918)" fill="#FFEFE1"/>
<circle cx="3.1148" cy="3.1148" r="3.1148" transform="matrix(-1 0 0 1 49.6895 228.918)" fill="#FFEFE1"/>
<circle cx="3.1148" cy="3.1148" r="3.1148" transform="matrix(-1 0 0 1 10.459 228.918)" fill="#FFEFE1"/>
<circle cx="3.1148" cy="3.1148" r="3.1148" transform="matrix(-1 0 0 1 755.822 286.148)" fill="#FFEFE1"/>
<circle cx="3.1148" cy="3.1148" r="3.1148" transform="matrix(-1 0 0 1 716.592 286.148)" fill="#FFEFE1"/>
<circle cx="3.1148" cy="3.1148" r="3.1148" transform="matrix(-1 0 0 1 677.363 286.148)" fill="#FFEFE1"/>
<circle cx="3.1148" cy="3.1148" r="3.1148" transform="matrix(-1 0 0 1 638.133 286.148)" fill="#FFEFE1"/>
<circle cx="3.1148" cy="3.1148" r="3.1148" transform="matrix(-1 0 0 1 598.904 286.148)" fill="#FFEFE1"/>
<circle cx="3.1148" cy="3.1148" r="3.1148" transform="matrix(-1 0 0 1 559.674 286.148)" fill="#FFEFE1"/>
<circle cx="3.1148" cy="3.1148" r="3.1148" transform="matrix(-1 0 0 1 520.445 286.148)" fill="#FFEFE1"/>
<circle cx="3.1148" cy="3.1148" r="3.1148" transform="matrix(-1 0 0 1 481.215 286.148)" fill="#FFEFE1"/>
<circle cx="3.1148" cy="3.1148" r="3.1148" transform="matrix(-1 0 0 1 441.986 286.148)" fill="#FFEFE1"/>
<circle cx="3.1148" cy="3.1148" r="3.1148" transform="matrix(-1 0 0 1 402.756 286.148)" fill="#FFEFE1"/>
<circle cx="3.1148" cy="3.1148" r="3.1148" transform="matrix(-1 0 0 1 363.525 286.148)" fill="#FFEFE1"/>
<circle cx="3.1148" cy="3.1148" r="3.1148" transform="matrix(-1 0 0 1 324.297 286.148)" fill="#FFEFE1"/>
<circle cx="3.1148" cy="3.1148" r="3.1148" transform="matrix(-1 0 0 1 285.066 286.148)" fill="#FFEFE1"/>
<circle cx="3.1148" cy="3.1148" r="3.1148" transform="matrix(-1 0 0 1 245.838 286.148)" fill="#FFEFE1"/>
<circle cx="3.1148" cy="3.1148" r="3.1148" transform="matrix(-1 0 0 1 206.607 286.148)" fill="#FFEFE1"/>
<circle cx="3.1148" cy="3.1148" r="3.1148" transform="matrix(-1 0 0 1 167.379 286.148)" fill="#FFEFE1"/>
<circle cx="3.1148" cy="3.1148" r="3.1148" transform="matrix(-1 0 0 1 128.148 286.148)" fill="#FFEFE1"/>
<circle cx="3.1148" cy="3.1148" r="3.1148" transform="matrix(-1 0 0 1 88.918 286.148)" fill="#FFEFE1"/>
<circle cx="3.1148" cy="3.1148" r="3.1148" transform="matrix(-1 0 0 1 49.6895 286.148)" fill="#FFEFE1"/>
<circle cx="3.1148" cy="3.1148" r="3.1148" transform="matrix(-1 0 0 1 10.459 286.148)" fill="#FFEFE1"/>
<circle cx="3.1148" cy="3.1148" r="3.1148" transform="matrix(-1 0 0 1 755.822 343.377)" fill="#FFEFE1"/>
<circle cx="3.1148" cy="3.1148" r="3.1148" transform="matrix(-1 0 0 1 716.592 343.377)" fill="#FFEFE1"/>
<circle cx="3.1148" cy="3.1148" r="3.1148" transform="matrix(-1 0 0 1 677.363 343.377)" fill="#FFEFE1"/>
<circle cx="3.1148" cy="3.1148" r="3.1148" transform="matrix(-1 0 0 1 638.133 343.377)" fill="#FFEFE1"/>
<circle cx="3.1148" cy="3.1148" r="3.1148" transform="matrix(-1 0 0 1 598.904 343.377)" fill="#FFEFE1"/>
<circle cx="3.1148" cy="3.1148" r="3.1148" transform="matrix(-1 0 0 1 559.674 343.377)" fill="#FFEFE1"/>
<circle cx="3.1148" cy="3.1148" r="3.1148" transform="matrix(-1 0 0 1 520.445 343.377)" fill="#FFEFE1"/>
<circle cx="3.1148" cy="3.1148" r="3.1148" transform="matrix(-1 0 0 1 481.215 343.377)" fill="#FFEFE1"/>
<circle cx="3.1148" cy="3.1148" r="3.1148" transform="matrix(-1 0 0 1 441.986 343.377)" fill="#FFEFE1"/>
<circle cx="3.1148" cy="3.1148" r="3.1148" transform="matrix(-1 0 0 1 402.756 343.377)" fill="#FFEFE1"/>
<circle cx="3.1148" cy="3.1148" r="3.1148" transform="matrix(-1 0 0 1 363.525 343.377)" fill="#FFEFE1"/>
<circle cx="3.1148" cy="3.1148" r="3.1148" transform="matrix(-1 0 0 1 324.297 343.377)" fill="#FFEFE1"/>
<circle cx="3.1148" cy="3.1148" r="3.1148" transform="matrix(-1 0 0 1 285.066 343.377)" fill="#FFEFE1"/>
<circle cx="3.1148" cy="3.1148" r="3.1148" transform="matrix(-1 0 0 1 245.838 343.377)" fill="#FFEFE1"/>
<circle cx="3.1148" cy="3.1148" r="3.1148" transform="matrix(-1 0 0 1 206.607 343.377)" fill="#FFEFE1"/>
<circle cx="3.1148" cy="3.1148" r="3.1148" transform="matrix(-1 0 0 1 167.379 343.377)" fill="#FFEFE1"/>
<circle cx="3.1148" cy="3.1148" r="3.1148" transform="matrix(-1 0 0 1 128.148 343.377)" fill="#FFEFE1"/>
<circle cx="3.1148" cy="3.1148" r="3.1148" transform="matrix(-1 0 0 1 88.918 343.377)" fill="#FFEFE1"/>
<circle cx="3.1148" cy="3.1148" r="3.1148" transform="matrix(-1 0 0 1 49.6895 343.377)" fill="#FFEFE1"/>
<circle cx="3.1148" cy="3.1148" r="3.1148" transform="matrix(-1 0 0 1 10.459 343.377)" fill="#FFEFE1"/>
<circle cx="3.1148" cy="3.1148" r="3.1148" transform="matrix(-1 0 0 1 755.822 400.607)" fill="#FFEFE1"/>
<circle cx="3.1148" cy="3.1148" r="3.1148" transform="matrix(-1 0 0 1 716.592 400.607)" fill="#FFEFE1"/>
<circle cx="3.1148" cy="3.1148" r="3.1148" transform="matrix(-1 0 0 1 677.363 400.607)" fill="#FFEFE1"/>
<circle cx="3.1148" cy="3.1148" r="3.1148" transform="matrix(-1 0 0 1 638.133 400.607)" fill="#FFEFE1"/>
<circle cx="3.1148" cy="3.1148" r="3.1148" transform="matrix(-1 0 0 1 598.904 400.607)" fill="#FFEFE1"/>
<circle cx="3.1148" cy="3.1148" r="3.1148" transform="matrix(-1 0 0 1 559.674 400.607)" fill="#FFEFE1"/>
<circle cx="3.1148" cy="3.1148" r="3.1148" transform="matrix(-1 0 0 1 520.445 400.607)" fill="#FFEFE1"/>
<circle cx="3.1148" cy="3.1148" r="3.1148" transform="matrix(-1 0 0 1 481.215 400.607)" fill="#FFEFE1"/>
<circle cx="3.1148" cy="3.1148" r="3.1148" transform="matrix(-1 0 0 1 441.986 400.607)" fill="#FFEFE1"/>
<circle cx="3.1148" cy="3.1148" r="3.1148" transform="matrix(-1 0 0 1 402.756 400.607)" fill="#FFEFE1"/>
<circle cx="3.1148" cy="3.1148" r="3.1148" transform="matrix(-1 0 0 1 363.525 400.607)" fill="#FFEFE1"/>
<circle cx="3.1148" cy="3.1148" r="3.1148" transform="matrix(-1 0 0 1 324.297 400.607)" fill="#FFEFE1"/>
<circle cx="3.1148" cy="3.1148" r="3.1148" transform="matrix(-1 0 0 1 285.066 400.607)" fill="#FFEFE1"/>
<circle cx="3.1148" cy="3.1148" r="3.1148" transform="matrix(-1 0 0 1 245.838 400.607)" fill="#FFEFE1"/>
<circle cx="3.1148" cy="3.1148" r="3.1148" transform="matrix(-1 0 0 1 206.607 400.607)" fill="#FFEFE1"/>
<circle cx="3.1148" cy="3.1148" r="3.1148" transform="matrix(-1 0 0 1 167.379 400.607)" fill="#FFEFE1"/>
<circle cx="3.1148" cy="3.1148" r="3.1148" transform="matrix(-1 0 0 1 128.148 400.607)" fill="#FFEFE1"/>
<circle cx="3.1148" cy="3.1148" r="3.1148" transform="matrix(-1 0 0 1 88.918 400.607)" fill="#FFEFE1"/>
<circle cx="3.1148" cy="3.1148" r="3.1148" transform="matrix(-1 0 0 1 49.6895 400.607)" fill="#FFEFE1"/>
<circle cx="3.1148" cy="3.1148" r="3.1148" transform="matrix(-1 0 0 1 10.459 400.607)" fill="#FFEFE1"/>
<circle cx="3.1148" cy="3.1148" r="3.1148" transform="matrix(-1 0 0 1 755.822 457.837)" fill="#FFEFE1"/>
<circle cx="3.1148" cy="3.1148" r="3.1148" transform="matrix(-1 0 0 1 716.592 457.837)" fill="#FFEFE1"/>
<circle cx="3.1148" cy="3.1148" r="3.1148" transform="matrix(-1 0 0 1 677.363 457.837)" fill="#FFEFE1"/>
<circle cx="3.1148" cy="3.1148" r="3.1148" transform="matrix(-1 0 0 1 638.133 457.837)" fill="#FFEFE1"/>
<circle cx="3.1148" cy="3.1148" r="3.1148" transform="matrix(-1 0 0 1 598.904 457.837)" fill="#FFEFE1"/>
<circle cx="3.1148" cy="3.1148" r="3.1148" transform="matrix(-1 0 0 1 559.674 457.837)" fill="#FFEFE1"/>
<circle cx="3.1148" cy="3.1148" r="3.1148" transform="matrix(-1 0 0 1 520.445 457.837)" fill="#FFEFE1"/>
<circle cx="3.1148" cy="3.1148" r="3.1148" transform="matrix(-1 0 0 1 481.215 457.837)" fill="#FFEFE1"/>
<circle cx="3.1148" cy="3.1148" r="3.1148" transform="matrix(-1 0 0 1 441.986 457.837)" fill="#FFEFE1"/>
<circle cx="3.1148" cy="3.1148" r="3.1148" transform="matrix(-1 0 0 1 402.756 457.837)" fill="#FFEFE1"/>
<circle cx="3.1148" cy="3.1148" r="3.1148" transform="matrix(-1 0 0 1 363.525 457.837)" fill="#FFEFE1"/>
<circle cx="3.1148" cy="3.1148" r="3.1148" transform="matrix(-1 0 0 1 324.297 457.837)" fill="#FFEFE1"/>
<circle cx="3.1148" cy="3.1148" r="3.1148" transform="matrix(-1 0 0 1 285.066 457.837)" fill="#FFEFE1"/>
<circle cx="3.1148" cy="3.1148" r="3.1148" transform="matrix(-1 0 0 1 245.838 457.837)" fill="#FFEFE1"/>
<circle cx="3.1148" cy="3.1148" r="3.1148" transform="matrix(-1 0 0 1 206.607 457.837)" fill="#FFEFE1"/>
<circle cx="3.1148" cy="3.1148" r="3.1148" transform="matrix(-1 0 0 1 167.379 457.837)" fill="#FFEFE1"/>
<circle cx="3.1148" cy="3.1148" r="3.1148" transform="matrix(-1 0 0 1 128.148 457.837)" fill="#FFEFE1"/>
<circle cx="3.1148" cy="3.1148" r="3.1148" transform="matrix(-1 0 0 1 88.918 457.837)" fill="#FFEFE1"/>
<circle cx="3.1148" cy="3.1148" r="3.1148" transform="matrix(-1 0 0 1 49.6895 457.837)" fill="#FFEFE1"/>
<circle cx="3.1148" cy="3.1148" r="3.1148" transform="matrix(-1 0 0 1 10.459 457.837)" fill="#FFEFE1"/>
<circle cx="3.1148" cy="3.1148" r="3.1148" transform="matrix(-1 0 0 1 755.822 515.066)" fill="#FFEFE1"/>
<circle cx="3.1148" cy="3.1148" r="3.1148" transform="matrix(-1 0 0 1 716.592 515.066)" fill="#FFEFE1"/>
<circle cx="3.1148" cy="3.1148" r="3.1148" transform="matrix(-1 0 0 1 677.363 515.066)" fill="#FFEFE1"/>
<circle cx="3.1148" cy="3.1148" r="3.1148" transform="matrix(-1 0 0 1 638.133 515.066)" fill="#FFEFE1"/>
<circle cx="3.1148" cy="3.1148" r="3.1148" transform="matrix(-1 0 0 1 598.904 515.066)" fill="#FFEFE1"/>
<circle cx="3.1148" cy="3.1148" r="3.1148" transform="matrix(-1 0 0 1 559.674 515.066)" fill="#FFEFE1"/>
<circle cx="3.1148" cy="3.1148" r="3.1148" transform="matrix(-1 0 0 1 520.445 515.066)" fill="#FFEFE1"/>
<circle cx="3.1148" cy="3.1148" r="3.1148" transform="matrix(-1 0 0 1 481.215 515.066)" fill="#FFEFE1"/>
<circle cx="3.1148" cy="3.1148" r="3.1148" transform="matrix(-1 0 0 1 441.986 515.066)" fill="#FFEFE1"/>
<circle cx="3.1148" cy="3.1148" r="3.1148" transform="matrix(-1 0 0 1 402.756 515.066)" fill="#FFEFE1"/>
<circle cx="3.1148" cy="3.1148" r="3.1148" transform="matrix(-1 0 0 1 363.525 515.066)" fill="#FFEFE1"/>
<circle cx="3.1148" cy="3.1148" r="3.1148" transform="matrix(-1 0 0 1 324.297 515.066)" fill="#FFEFE1"/>
<circle cx="3.1148" cy="3.1148" r="3.1148" transform="matrix(-1 0 0 1 285.066 515.066)" fill="#FFEFE1"/>
<circle cx="3.1148" cy="3.1148" r="3.1148" transform="matrix(-1 0 0 1 245.838 515.066)" fill="#FFEFE1"/>
<circle cx="3.1148" cy="3.1148" r="3.1148" transform="matrix(-1 0 0 1 206.607 515.066)" fill="#FFEFE1"/>
<circle cx="3.1148" cy="3.1148" r="3.1148" transform="matrix(-1 0 0 1 167.379 515.066)" fill="#FFEFE1"/>
<circle cx="3.1148" cy="3.1148" r="3.1148" transform="matrix(-1 0 0 1 128.148 515.066)" fill="#FFEFE1"/>
<circle cx="3.1148" cy="3.1148" r="3.1148" transform="matrix(-1 0 0 1 88.918 515.066)" fill="#FFEFE1"/>
<circle cx="3.1148" cy="3.1148" r="3.1148" transform="matrix(-1 0 0 1 49.6895 515.066)" fill="#FFEFE1"/>
<circle cx="3.1148" cy="3.1148" r="3.1148" transform="matrix(-1 0 0 1 10.459 515.066)" fill="#FFEFE1"/>
<circle cx="3.1148" cy="3.1148" r="3.1148" transform="matrix(-1 0 0 1 755.822 572.296)" fill="#FFEFE1"/>
<circle cx="3.1148" cy="3.1148" r="3.1148" transform="matrix(-1 0 0 1 716.592 572.296)" fill="#FFEFE1"/>
<circle cx="3.1148" cy="3.1148" r="3.1148" transform="matrix(-1 0 0 1 677.363 572.296)" fill="#FFEFE1"/>
<circle cx="3.1148" cy="3.1148" r="3.1148" transform="matrix(-1 0 0 1 638.133 572.296)" fill="#FFEFE1"/>
<circle cx="3.1148" cy="3.1148" r="3.1148" transform="matrix(-1 0 0 1 598.904 572.296)" fill="#FFEFE1"/>
<circle cx="3.1148" cy="3.1148" r="3.1148" transform="matrix(-1 0 0 1 559.674 572.296)" fill="#FFEFE1"/>
<circle cx="3.1148" cy="3.1148" r="3.1148" transform="matrix(-1 0 0 1 520.445 572.296)" fill="#FFEFE1"/>
<circle cx="3.1148" cy="3.1148" r="3.1148" transform="matrix(-1 0 0 1 481.215 572.296)" fill="#FFEFE1"/>
<circle cx="3.1148" cy="3.1148" r="3.1148" transform="matrix(-1 0 0 1 441.986 572.296)" fill="#FFEFE1"/>
<circle cx="3.1148" cy="3.1148" r="3.1148" transform="matrix(-1 0 0 1 402.756 572.296)" fill="#FFEFE1"/>
<circle cx="3.1148" cy="3.1148" r="3.1148" transform="matrix(-1 0 0 1 363.525 572.296)" fill="#FFEFE1"/>
<circle cx="3.1148" cy="3.1148" r="3.1148" transform="matrix(-1 0 0 1 324.297 572.296)" fill="#FFEFE1"/>
<circle cx="3.1148" cy="3.1148" r="3.1148" transform="matrix(-1 0 0 1 285.066 572.296)" fill="#FFEFE1"/>
<circle cx="3.1148" cy="3.1148" r="3.1148" transform="matrix(-1 0 0 1 245.838 572.296)" fill="#FFEFE1"/>
<circle cx="3.1148" cy="3.1148" r="3.1148" transform="matrix(-1 0 0 1 206.607 572.296)" fill="#FFEFE1"/>
<circle cx="3.1148" cy="3.1148" r="3.1148" transform="matrix(-1 0 0 1 167.379 572.296)" fill="#FFEFE1"/>
<circle cx="3.1148" cy="3.1148" r="3.1148" transform="matrix(-1 0 0 1 128.148 572.296)" fill="#FFEFE1"/>
<circle cx="3.1148" cy="3.1148" r="3.1148" transform="matrix(-1 0 0 1 88.918 572.296)" fill="#FFEFE1"/>
<circle cx="3.1148" cy="3.1148" r="3.1148" transform="matrix(-1 0 0 1 49.6895 572.296)" fill="#FFEFE1"/>
<circle cx="3.1148" cy="3.1148" r="3.1148" transform="matrix(-1 0 0 1 10.459 572.296)" fill="#FFEFE1"/>
<circle cx="3.1148" cy="3.1148" r="3.1148" transform="matrix(-1 0 0 1 755.822 629.526)" fill="#FFEFE1"/>
<circle cx="3.1148" cy="3.1148" r="3.1148" transform="matrix(-1 0 0 1 716.592 629.526)" fill="#FFEFE1"/>
<circle cx="3.1148" cy="3.1148" r="3.1148" transform="matrix(-1 0 0 1 677.363 629.526)" fill="#FFEFE1"/>
<circle cx="3.1148" cy="3.1148" r="3.1148" transform="matrix(-1 0 0 1 638.133 629.526)" fill="#FFEFE1"/>
<circle cx="3.1148" cy="3.1148" r="3.1148" transform="matrix(-1 0 0 1 598.904 629.526)" fill="#FFEFE1"/>
<circle cx="3.1148" cy="3.1148" r="3.1148" transform="matrix(-1 0 0 1 559.674 629.526)" fill="#FFEFE1"/>
<circle cx="3.1148" cy="3.1148" r="3.1148" transform="matrix(-1 0 0 1 520.445 629.526)" fill="#FFEFE1"/>
<circle cx="3.1148" cy="3.1148" r="3.1148" transform="matrix(-1 0 0 1 481.215 629.526)" fill="#FFEFE1"/>
<circle cx="3.1148" cy="3.1148" r="3.1148" transform="matrix(-1 0 0 1 441.986 629.526)" fill="#FFEFE1"/>
<circle cx="3.1148" cy="3.1148" r="3.1148" transform="matrix(-1 0 0 1 402.756 629.526)" fill="#FFEFE1"/>
<circle cx="3.1148" cy="3.1148" r="3.1148" transform="matrix(-1 0 0 1 363.525 629.526)" fill="#FFEFE1"/>
<circle cx="3.1148" cy="3.1148" r="3.1148" transform="matrix(-1 0 0 1 324.297 629.526)" fill="#FFEFE1"/>
<circle cx="3.1148" cy="3.1148" r="3.1148" transform="matrix(-1 0 0 1 285.066 629.526)" fill="#FFEFE1"/>
<circle cx="3.1148" cy="3.1148" r="3.1148" transform="matrix(-1 0 0 1 245.838 629.526)" fill="#FFEFE1"/>
<circle cx="3.1148" cy="3.1148" r="3.1148" transform="matrix(-1 0 0 1 206.607 629.526)" fill="#FFEFE1"/>
<circle cx="3.1148" cy="3.1148" r="3.1148" transform="matrix(-1 0 0 1 167.379 629.526)" fill="#FFEFE1"/>
<circle cx="3.1148" cy="3.1148" r="3.1148" transform="matrix(-1 0 0 1 128.148 629.526)" fill="#FFEFE1"/>
<circle cx="3.1148" cy="3.1148" r="3.1148" transform="matrix(-1 0 0 1 88.918 629.526)" fill="#FFEFE1"/>
<circle cx="3.1148" cy="3.1148" r="3.1148" transform="matrix(-1 0 0 1 49.6895 629.526)" fill="#FFEFE1"/>
<circle cx="3.1148" cy="3.1148" r="3.1148" transform="matrix(-1 0 0 1 10.459 629.526)" fill="#FFEFE1"/>
<circle cx="3.1148" cy="3.1148" r="3.1148" transform="matrix(-1 0 0 1 755.822 686.755)" fill="#FFEFE1"/>
<circle cx="3.1148" cy="3.1148" r="3.1148" transform="matrix(-1 0 0 1 716.592 686.755)" fill="#FFEFE1"/>
<circle cx="3.1148" cy="3.1148" r="3.1148" transform="matrix(-1 0 0 1 677.363 686.755)" fill="#FFEFE1"/>
<circle cx="3.1148" cy="3.1148" r="3.1148" transform="matrix(-1 0 0 1 638.133 686.755)" fill="#FFEFE1"/>
<circle cx="3.1148" cy="3.1148" r="3.1148" transform="matrix(-1 0 0 1 598.904 686.755)" fill="#FFEFE1"/>
<circle cx="3.1148" cy="3.1148" r="3.1148" transform="matrix(-1 0 0 1 559.674 686.755)" fill="#FFEFE1"/>
<circle cx="3.1148" cy="3.1148" r="3.1148" transform="matrix(-1 0 0 1 520.445 686.755)" fill="#FFEFE1"/>
<circle cx="3.1148" cy="3.1148" r="3.1148" transform="matrix(-1 0 0 1 481.215 686.755)" fill="#FFEFE1"/>
<circle cx="3.1148" cy="3.1148" r="3.1148" transform="matrix(-1 0 0 1 441.986 686.755)" fill="#FFEFE1"/>
<circle cx="3.1148" cy="3.1148" r="3.1148" transform="matrix(-1 0 0 1 402.756 686.755)" fill="#FFEFE1"/>
<circle cx="3.1148" cy="3.1148" r="3.1148" transform="matrix(-1 0 0 1 363.525 686.755)" fill="#FFEFE1"/>
<circle cx="3.1148" cy="3.1148" r="3.1148" transform="matrix(-1 0 0 1 324.297 686.755)" fill="#FFEFE1"/>
<circle cx="3.1148" cy="3.1148" r="3.1148" transform="matrix(-1 0 0 1 285.066 686.755)" fill="#FFEFE1"/>
<circle cx="3.1148" cy="3.1148" r="3.1148" transform="matrix(-1 0 0 1 245.838 686.755)" fill="#FFEFE1"/>
<circle cx="3.1148" cy="3.1148" r="3.1148" transform="matrix(-1 0 0 1 206.607 686.755)" fill="#FFEFE1"/>
<circle cx="3.1148" cy="3.1148" r="3.1148" transform="matrix(-1 0 0 1 167.379 686.755)" fill="#FFEFE1"/>
<circle cx="3.1148" cy="3.1148" r="3.1148" transform="matrix(-1 0 0 1 128.148 686.755)" fill="#FFEFE1"/>
<circle cx="3.1148" cy="3.1148" r="3.1148" transform="matrix(-1 0 0 1 88.918 686.755)" fill="#FFEFE1"/>
<circle cx="3.1148" cy="3.1148" r="3.1148" transform="matrix(-1 0 0 1 49.6895 686.755)" fill="#FFEFE1"/>
<circle cx="3.1148" cy="3.1148" r="3.1148" transform="matrix(-1 0 0 1 10.459 686.755)" fill="#FFEFE1"/>
<circle cx="3.1148" cy="3.1148" r="3.1148" transform="matrix(-1 0 0 1 755.822 743.985)" fill="#FFEFE1"/>
<circle cx="3.1148" cy="3.1148" r="3.1148" transform="matrix(-1 0 0 1 716.592 743.985)" fill="#FFEFE1"/>
<circle cx="3.1148" cy="3.1148" r="3.1148" transform="matrix(-1 0 0 1 677.363 743.985)" fill="#FFEFE1"/>
<circle cx="3.1148" cy="3.1148" r="3.1148" transform="matrix(-1 0 0 1 638.133 743.985)" fill="#FFEFE1"/>
<circle cx="3.1148" cy="3.1148" r="3.1148" transform="matrix(-1 0 0 1 598.904 743.985)" fill="#FFEFE1"/>
<circle cx="3.1148" cy="3.1148" r="3.1148" transform="matrix(-1 0 0 1 559.674 743.985)" fill="#FFEFE1"/>
<circle cx="3.1148" cy="3.1148" r="3.1148" transform="matrix(-1 0 0 1 520.445 743.985)" fill="#FFEFE1"/>
<circle cx="3.1148" cy="3.1148" r="3.1148" transform="matrix(-1 0 0 1 481.215 743.985)" fill="#FFEFE1"/>
<circle cx="3.1148" cy="3.1148" r="3.1148" transform="matrix(-1 0 0 1 441.986 743.985)" fill="#FFEFE1"/>
<circle cx="3.1148" cy="3.1148" r="3.1148" transform="matrix(-1 0 0 1 402.756 743.985)" fill="#FFEFE1"/>
<circle cx="3.1148" cy="3.1148" r="3.1148" transform="matrix(-1 0 0 1 363.525 743.985)" fill="#FFEFE1"/>
<circle cx="3.1148" cy="3.1148" r="3.1148" transform="matrix(-1 0 0 1 324.297 743.985)" fill="#FFEFE1"/>
<circle cx="3.1148" cy="3.1148" r="3.1148" transform="matrix(-1 0 0 1 285.066 743.985)" fill="#FFEFE1"/>
<circle cx="3.1148" cy="3.1148" r="3.1148" transform="matrix(-1 0 0 1 245.838 743.985)" fill="#FFEFE1"/>
<circle cx="3.1148" cy="3.1148" r="3.1148" transform="matrix(-1 0 0 1 206.607 743.985)" fill="#FFEFE1"/>
<circle cx="3.1148" cy="3.1148" r="3.1148" transform="matrix(-1 0 0 1 167.379 743.985)" fill="#FFEFE1"/>
<circle cx="3.1148" cy="3.1148" r="3.1148" transform="matrix(-1 0 0 1 128.148 743.985)" fill="#FFEFE1"/>
<circle cx="3.1148" cy="3.1148" r="3.1148" transform="matrix(-1 0 0 1 88.918 743.985)" fill="#FFEFE1"/>
<circle cx="3.1148" cy="3.1148" r="3.1148" transform="matrix(-1 0 0 1 49.6895 743.985)" fill="#FFEFE1"/>
<circle cx="3.1148" cy="3.1148" r="3.1148" transform="matrix(-1 0 0 1 10.459 743.985)" fill="#FFEFE1"/>
<circle cx="3.1148" cy="3.1148" r="3.1148" transform="matrix(-1 0 0 1 755.822 801.214)" fill="#FFEFE1"/>
<circle cx="3.1148" cy="3.1148" r="3.1148" transform="matrix(-1 0 0 1 716.592 801.214)" fill="#FFEFE1"/>
<circle cx="3.1148" cy="3.1148" r="3.1148" transform="matrix(-1 0 0 1 677.363 801.214)" fill="#FFEFE1"/>
<circle cx="3.1148" cy="3.1148" r="3.1148" transform="matrix(-1 0 0 1 638.133 801.214)" fill="#FFEFE1"/>
<circle cx="3.1148" cy="3.1148" r="3.1148" transform="matrix(-1 0 0 1 598.904 801.214)" fill="#FFEFE1"/>
<circle cx="3.1148" cy="3.1148" r="3.1148" transform="matrix(-1 0 0 1 559.674 801.214)" fill="#FFEFE1"/>
<circle cx="3.1148" cy="3.1148" r="3.1148" transform="matrix(-1 0 0 1 520.445 801.214)" fill="#FFEFE1"/>
<circle cx="3.1148" cy="3.1148" r="3.1148" transform="matrix(-1 0 0 1 481.215 801.214)" fill="#FFEFE1"/>
<circle cx="3.1148" cy="3.1148" r="3.1148" transform="matrix(-1 0 0 1 441.986 801.214)" fill="#FFEFE1"/>
<circle cx="3.1148" cy="3.1148" r="3.1148" transform="matrix(-1 0 0 1 402.756 801.214)" fill="#FFEFE1"/>
<circle cx="3.1148" cy="3.1148" r="3.1148" transform="matrix(-1 0 0 1 363.525 801.214)" fill="#FFEFE1"/>
<circle cx="3.1148" cy="3.1148" r="3.1148" transform="matrix(-1 0 0 1 324.297 801.214)" fill="#FFEFE1"/>
<circle cx="3.1148" cy="3.1148" r="3.1148" transform="matrix(-1 0 0 1 285.066 801.214)" fill="#FFEFE1"/>
<circle cx="3.1148" cy="3.1148" r="3.1148" transform="matrix(-1 0 0 1 245.838 801.214)" fill="#FFEFE1"/>
<circle cx="3.1148" cy="3.1148" r="3.1148" transform="matrix(-1 0 0 1 206.607 801.214)" fill="#FFEFE1"/>
<circle cx="3.1148" cy="3.1148" r="3.1148" transform="matrix(-1 0 0 1 167.379 801.214)" fill="#FFEFE1"/>
<circle cx="3.1148" cy="3.1148" r="3.1148" transform="matrix(-1 0 0 1 128.148 801.214)" fill="#FFEFE1"/>
<circle cx="3.1148" cy="3.1148" r="3.1148" transform="matrix(-1 0 0 1 88.918 801.214)" fill="#FFEFE1"/>
<circle cx="3.1148" cy="3.1148" r="3.1148" transform="matrix(-1 0 0 1 49.6895 801.214)" fill="#FFEFE1"/>
<circle cx="3.1148" cy="3.1148" r="3.1148" transform="matrix(-1 0 0 1 10.459 801.214)" fill="#FFEFE1"/>
<circle cx="3.1148" cy="3.1148" r="3.1148" transform="matrix(-1 0 0 1 755.822 858.444)" fill="#FFEFE1"/>
<circle cx="3.1148" cy="3.1148" r="3.1148" transform="matrix(-1 0 0 1 716.592 858.444)" fill="#FFEFE1"/>
<circle cx="3.1148" cy="3.1148" r="3.1148" transform="matrix(-1 0 0 1 677.363 858.444)" fill="#FFEFE1"/>
<circle cx="3.1148" cy="3.1148" r="3.1148" transform="matrix(-1 0 0 1 638.133 858.444)" fill="#FFEFE1"/>
<circle cx="3.1148" cy="3.1148" r="3.1148" transform="matrix(-1 0 0 1 598.904 858.444)" fill="#FFEFE1"/>
<circle cx="3.1148" cy="3.1148" r="3.1148" transform="matrix(-1 0 0 1 559.674 858.444)" fill="#FFEFE1"/>
<circle cx="3.1148" cy="3.1148" r="3.1148" transform="matrix(-1 0 0 1 520.445 858.444)" fill="#FFEFE1"/>
<circle cx="3.1148" cy="3.1148" r="3.1148" transform="matrix(-1 0 0 1 481.215 858.444)" fill="#FFEFE1"/>
<circle cx="3.1148" cy="3.1148" r="3.1148" transform="matrix(-1 0 0 1 441.986 858.444)" fill="#FFEFE1"/>
<circle cx="3.1148" cy="3.1148" r="3.1148" transform="matrix(-1 0 0 1 402.756 858.444)" fill="#FFEFE1"/>
<circle cx="3.1148" cy="3.1148" r="3.1148" transform="matrix(-1 0 0 1 363.525 858.444)" fill="#FFEFE1"/>
<circle cx="3.1148" cy="3.1148" r="3.1148" transform="matrix(-1 0 0 1 324.297 858.444)" fill="#FFEFE1"/>
<circle cx="3.1148" cy="3.1148" r="3.1148" transform="matrix(-1 0 0 1 285.066 858.444)" fill="#FFEFE1"/>
<circle cx="3.1148" cy="3.1148" r="3.1148" transform="matrix(-1 0 0 1 245.838 858.444)" fill="#FFEFE1"/>
<circle cx="3.1148" cy="3.1148" r="3.1148" transform="matrix(-1 0 0 1 206.607 858.444)" fill="#FFEFE1"/>
<circle cx="3.1148" cy="3.1148" r="3.1148" transform="matrix(-1 0 0 1 167.379 858.444)" fill="#FFEFE1"/>
<circle cx="3.1148" cy="3.1148" r="3.1148" transform="matrix(-1 0 0 1 128.148 858.444)" fill="#FFEFE1"/>
<circle cx="3.1148" cy="3.1148" r="3.1148" transform="matrix(-1 0 0 1 88.918 858.444)" fill="#FFEFE1"/>
<circle cx="3.1148" cy="3.1148" r="3.1148" transform="matrix(-1 0 0 1 49.6895 858.444)" fill="#FFEFE1"/>
<circle cx="3.1148" cy="3.1148" r="3.1148" transform="matrix(-1 0 0 1 10.459 858.444)" fill="#FFEFE1"/>
<circle cx="3.1148" cy="3.1148" r="3.1148" transform="matrix(-1 0 0 1 755.822 915.674)" fill="#FFEFE1"/>
<circle cx="3.1148" cy="3.1148" r="3.1148" transform="matrix(-1 0 0 1 716.592 915.674)" fill="#FFEFE1"/>
<circle cx="3.1148" cy="3.1148" r="3.1148" transform="matrix(-1 0 0 1 677.363 915.674)" fill="#FFEFE1"/>
<circle cx="3.1148" cy="3.1148" r="3.1148" transform="matrix(-1 0 0 1 638.133 915.674)" fill="#FFEFE1"/>
<circle cx="3.1148" cy="3.1148" r="3.1148" transform="matrix(-1 0 0 1 598.904 915.674)" fill="#FFEFE1"/>
<circle cx="3.1148" cy="3.1148" r="3.1148" transform="matrix(-1 0 0 1 559.674 915.674)" fill="#FFEFE1"/>
<circle cx="3.1148" cy="3.1148" r="3.1148" transform="matrix(-1 0 0 1 520.445 915.674)" fill="#FFEFE1"/>
<circle cx="3.1148" cy="3.1148" r="3.1148" transform="matrix(-1 0 0 1 481.215 915.674)" fill="#FFEFE1"/>
<circle cx="3.1148" cy="3.1148" r="3.1148" transform="matrix(-1 0 0 1 441.986 915.674)" fill="#FFEFE1"/>
<circle cx="3.1148" cy="3.1148" r="3.1148" transform="matrix(-1 0 0 1 402.756 915.674)" fill="#FFEFE1"/>
<circle cx="3.1148" cy="3.1148" r="3.1148" transform="matrix(-1 0 0 1 363.525 915.674)" fill="#FFEFE1"/>
<circle cx="3.1148" cy="3.1148" r="3.1148" transform="matrix(-1 0 0 1 324.297 915.674)" fill="#FFEFE1"/>
<circle cx="3.1148" cy="3.1148" r="3.1148" transform="matrix(-1 0 0 1 285.066 915.674)" fill="#FFEFE1"/>
<circle cx="3.1148" cy="3.1148" r="3.1148" transform="matrix(-1 0 0 1 245.838 915.674)" fill="#FFEFE1"/>
<circle cx="3.1148" cy="3.1148" r="3.1148" transform="matrix(-1 0 0 1 206.607 915.674)" fill="#FFEFE1"/>
<circle cx="3.1148" cy="3.1148" r="3.1148" transform="matrix(-1 0 0 1 167.379 915.674)" fill="#FFEFE1"/>
<circle cx="3.1148" cy="3.1148" r="3.1148" transform="matrix(-1 0 0 1 128.148 915.674)" fill="#FFEFE1"/>
<circle cx="3.1148" cy="3.1148" r="3.1148" transform="matrix(-1 0 0 1 88.918 915.674)" fill="#FFEFE1"/>
<circle cx="3.1148" cy="3.1148" r="3.1148" transform="matrix(-1 0 0 1 49.6895 915.674)" fill="#FFEFE1"/>
<circle cx="3.1148" cy="3.1148" r="3.1148" transform="matrix(-1 0 0 1 10.459 915.674)" fill="#FFEFE1"/>
<circle cx="3.1148" cy="3.1148" r="3.1148" transform="matrix(-1 0 0 1 755.822 972.903)" fill="#FFEFE1"/>
<circle cx="3.1148" cy="3.1148" r="3.1148" transform="matrix(-1 0 0 1 716.592 972.903)" fill="#FFEFE1"/>
<circle cx="3.1148" cy="3.1148" r="3.1148" transform="matrix(-1 0 0 1 677.363 972.903)" fill="#FFEFE1"/>
<circle cx="3.1148" cy="3.1148" r="3.1148" transform="matrix(-1 0 0 1 638.133 972.903)" fill="#FFEFE1"/>
<circle cx="3.1148" cy="3.1148" r="3.1148" transform="matrix(-1 0 0 1 598.904 972.903)" fill="#FFEFE1"/>
<circle cx="3.1148" cy="3.1148" r="3.1148" transform="matrix(-1 0 0 1 559.674 972.903)" fill="#FFEFE1"/>
<circle cx="3.1148" cy="3.1148" r="3.1148" transform="matrix(-1 0 0 1 520.445 972.903)" fill="#FFEFE1"/>
<circle cx="3.1148" cy="3.1148" r="3.1148" transform="matrix(-1 0 0 1 481.215 972.903)" fill="#FFEFE1"/>
<circle cx="3.1148" cy="3.1148" r="3.1148" transform="matrix(-1 0 0 1 441.986 972.903)" fill="#FFEFE1"/>
<circle cx="3.1148" cy="3.1148" r="3.1148" transform="matrix(-1 0 0 1 402.756 972.903)" fill="#FFEFE1"/>
<circle cx="3.1148" cy="3.1148" r="3.1148" transform="matrix(-1 0 0 1 363.525 972.903)" fill="#FFEFE1"/>
<circle cx="3.1148" cy="3.1148" r="3.1148" transform="matrix(-1 0 0 1 324.297 972.903)" fill="#FFEFE1"/>
<circle cx="3.1148" cy="3.1148" r="3.1148" transform="matrix(-1 0 0 1 285.066 972.903)" fill="#FFEFE1"/>
<circle cx="3.1148" cy="3.1148" r="3.1148" transform="matrix(-1 0 0 1 245.838 972.903)" fill="#FFEFE1"/>
<circle cx="3.1148" cy="3.1148" r="3.1148" transform="matrix(-1 0 0 1 206.607 972.903)" fill="#FFEFE1"/>
<circle cx="3.1148" cy="3.1148" r="3.1148" transform="matrix(-1 0 0 1 167.379 972.903)" fill="#FFEFE1"/>
<circle cx="3.1148" cy="3.1148" r="3.1148" transform="matrix(-1 0 0 1 128.148 972.903)" fill="#FFEFE1"/>
<circle cx="3.1148" cy="3.1148" r="3.1148" transform="matrix(-1 0 0 1 88.918 972.903)" fill="#FFEFE1"/>
<circle cx="3.1148" cy="3.1148" r="3.1148" transform="matrix(-1 0 0 1 49.6895 972.903)" fill="#FFEFE1"/>
<circle cx="3.1148" cy="3.1148" r="3.1148" transform="matrix(-1 0 0 1 10.459 972.903)" fill="#FFEFE1"/>
<path d="M284 219H610V369.5H810" stroke="black" stroke-width="2" stroke-dasharray="13 13"/>
<path d="M284.5 287H445.5V622.5H808.5" stroke="black" stroke-width="2" stroke-dasharray="13 13"/>
<path d="M191 383V856.5H415V1038" stroke="black" stroke-width="2" stroke-dasharray="13 13"/>
<rect x="107.5" y="190.5" width="174" height="57" rx="3.5" fill="white" stroke="black"/>
<rect x="107.5" y="257.5" width="174" height="57" rx="3.5" fill="white" stroke="black"/>
<rect x="107.5" y="324.5" width="174" height="57" rx="3.5" fill="white" stroke="black"/>
<path d="M153.383 224.098C152.73 224.098 152.142 223.986 151.619 223.762C151.096 223.529 150.686 223.202 150.387 222.782C150.088 222.362 149.939 221.872 149.939 221.312H151.647C151.684 221.732 151.848 222.077 152.137 222.348C152.436 222.619 152.851 222.754 153.383 222.754C153.934 222.754 154.363 222.623 154.671 222.362C154.979 222.091 155.133 221.746 155.133 221.326C155.133 220.999 155.035 220.733 154.839 220.528C154.652 220.323 154.414 220.164 154.125 220.052C153.845 219.94 153.453 219.819 152.949 219.688C152.314 219.52 151.796 219.352 151.395 219.184C151.003 219.007 150.667 218.736 150.387 218.372C150.107 218.008 149.967 217.523 149.967 216.916C149.967 216.356 150.107 215.866 150.387 215.446C150.667 215.026 151.059 214.704 151.563 214.48C152.067 214.256 152.65 214.144 153.313 214.144C154.256 214.144 155.026 214.382 155.623 214.858C156.23 215.325 156.566 215.969 156.631 216.79H154.867C154.839 216.435 154.671 216.132 154.363 215.88C154.055 215.628 153.649 215.502 153.145 215.502C152.688 215.502 152.314 215.619 152.025 215.852C151.736 216.085 151.591 216.421 151.591 216.86C151.591 217.159 151.68 217.406 151.857 217.602C152.044 217.789 152.277 217.938 152.557 218.05C152.837 218.162 153.22 218.283 153.705 218.414C154.349 218.591 154.872 218.769 155.273 218.946C155.684 219.123 156.029 219.399 156.309 219.772C156.598 220.136 156.743 220.626 156.743 221.242C156.743 221.737 156.608 222.203 156.337 222.642C156.076 223.081 155.688 223.435 155.175 223.706C154.671 223.967 154.074 224.098 153.383 224.098ZM165.57 216.286L160.838 227.626H159.186L160.754 223.874L157.716 216.286H159.494L161.664 222.166L163.918 216.286H165.57ZM169.575 224.126C168.968 224.126 168.422 224.019 167.937 223.804C167.461 223.58 167.083 223.281 166.803 222.908C166.523 222.525 166.373 222.101 166.355 221.634H168.007C168.035 221.961 168.189 222.236 168.469 222.46C168.758 222.675 169.117 222.782 169.547 222.782C169.995 222.782 170.34 222.698 170.583 222.53C170.835 222.353 170.961 222.129 170.961 221.858C170.961 221.569 170.821 221.354 170.541 221.214C170.27 221.074 169.836 220.92 169.239 220.752C168.66 220.593 168.189 220.439 167.825 220.29C167.461 220.141 167.143 219.912 166.873 219.604C166.611 219.296 166.481 218.89 166.481 218.386C166.481 217.975 166.602 217.602 166.845 217.266C167.087 216.921 167.433 216.65 167.881 216.454C168.338 216.258 168.861 216.16 169.449 216.16C170.326 216.16 171.031 216.384 171.563 216.832C172.104 217.271 172.393 217.873 172.431 218.638H170.835C170.807 218.293 170.667 218.017 170.415 217.812C170.163 217.607 169.822 217.504 169.393 217.504C168.973 217.504 168.651 217.583 168.427 217.742C168.203 217.901 168.091 218.111 168.091 218.372C168.091 218.577 168.165 218.75 168.315 218.89C168.464 219.03 168.646 219.142 168.861 219.226C169.075 219.301 169.393 219.399 169.813 219.52C170.373 219.669 170.83 219.823 171.185 219.982C171.549 220.131 171.861 220.355 172.123 220.654C172.384 220.953 172.519 221.349 172.529 221.844C172.529 222.283 172.407 222.675 172.165 223.02C171.922 223.365 171.577 223.636 171.129 223.832C170.69 224.028 170.172 224.126 169.575 224.126ZM176.115 217.588V221.858C176.115 222.147 176.18 222.357 176.311 222.488C176.451 222.609 176.684 222.67 177.011 222.67H177.991V224H176.731C176.012 224 175.462 223.832 175.079 223.496C174.696 223.16 174.505 222.614 174.505 221.858V217.588H173.595V216.286H174.505V214.368H176.115V216.286H177.991V217.588H176.115ZM186.532 219.954C186.532 220.243 186.513 220.505 186.476 220.738H180.582C180.629 221.354 180.857 221.849 181.268 222.222C181.679 222.595 182.183 222.782 182.78 222.782C183.639 222.782 184.245 222.423 184.6 221.704H186.322C186.089 222.413 185.664 222.997 185.048 223.454C184.441 223.902 183.685 224.126 182.78 224.126C182.043 224.126 181.38 223.963 180.792 223.636C180.213 223.3 179.756 222.833 179.42 222.236C179.093 221.629 178.93 220.929 178.93 220.136C178.93 219.343 179.089 218.647 179.406 218.05C179.733 217.443 180.185 216.977 180.764 216.65C181.352 216.323 182.024 216.16 182.78 216.16C183.508 216.16 184.157 216.319 184.726 216.636C185.295 216.953 185.739 217.401 186.056 217.98C186.373 218.549 186.532 219.207 186.532 219.954ZM184.866 219.45C184.857 218.862 184.647 218.391 184.236 218.036C183.825 217.681 183.317 217.504 182.71 217.504C182.159 217.504 181.688 217.681 181.296 218.036C180.904 218.381 180.671 218.853 180.596 219.45H184.866ZM197.441 216.16C198.047 216.16 198.589 216.286 199.065 216.538C199.55 216.79 199.928 217.163 200.199 217.658C200.479 218.153 200.619 218.75 200.619 219.45V224H199.037V219.688C199.037 218.997 198.864 218.47 198.519 218.106C198.173 217.733 197.702 217.546 197.105 217.546C196.507 217.546 196.031 217.733 195.677 218.106C195.331 218.47 195.159 218.997 195.159 219.688V224H193.577V219.688C193.577 218.997 193.404 218.47 193.059 218.106C192.713 217.733 192.242 217.546 191.645 217.546C191.047 217.546 190.571 217.733 190.217 218.106C189.871 218.47 189.699 218.997 189.699 219.688V224H188.103V216.286H189.699V217.168C189.96 216.851 190.291 216.603 190.693 216.426C191.094 216.249 191.523 216.16 191.981 216.16C192.597 216.16 193.147 216.291 193.633 216.552C194.118 216.813 194.491 217.191 194.753 217.686C194.986 217.219 195.35 216.851 195.845 216.58C196.339 216.3 196.871 216.16 197.441 216.16ZM210.724 224.098C209.819 224.098 208.984 223.888 208.218 223.468C207.462 223.039 206.86 222.446 206.412 221.69C205.974 220.925 205.754 220.066 205.754 219.114C205.754 218.162 205.974 217.308 206.412 216.552C206.86 215.796 207.462 215.208 208.218 214.788C208.984 214.359 209.819 214.144 210.724 214.144C211.639 214.144 212.474 214.359 213.23 214.788C213.996 215.208 214.598 215.796 215.036 216.552C215.475 217.308 215.694 218.162 215.694 219.114C215.694 220.066 215.475 220.925 215.036 221.69C214.598 222.446 213.996 223.039 213.23 223.468C212.474 223.888 211.639 224.098 210.724 224.098ZM210.724 222.712C211.368 222.712 211.942 222.567 212.446 222.278C212.95 221.979 213.342 221.559 213.622 221.018C213.912 220.467 214.056 219.833 214.056 219.114C214.056 218.395 213.912 217.765 213.622 217.224C213.342 216.683 212.95 216.267 212.446 215.978C211.942 215.689 211.368 215.544 210.724 215.544C210.08 215.544 209.506 215.689 209.002 215.978C208.498 216.267 208.102 216.683 207.812 217.224C207.532 217.765 207.392 218.395 207.392 219.114C207.392 219.833 207.532 220.467 207.812 221.018C208.102 221.559 208.498 221.979 209.002 222.278C209.506 222.567 210.08 222.712 210.724 222.712ZM227.625 216.286L225.231 224H223.551L221.997 218.302L220.443 224H218.763L216.355 216.286H217.979L219.589 222.488L221.227 216.286H222.893L224.461 222.46L226.057 216.286H227.625ZM232.71 216.16C233.316 216.16 233.858 216.286 234.334 216.538C234.819 216.79 235.197 217.163 235.468 217.658C235.738 218.153 235.874 218.75 235.874 219.45V224H234.292V219.688C234.292 218.997 234.119 218.47 233.774 218.106C233.428 217.733 232.957 217.546 232.36 217.546C231.762 217.546 231.286 217.733 230.932 218.106C230.586 218.47 230.414 218.997 230.414 219.688V224H228.818V216.286H230.414V217.168C230.675 216.851 231.006 216.603 231.408 216.426C231.818 216.249 232.252 216.16 232.71 216.16ZM244.979 219.954C244.979 220.243 244.961 220.505 244.923 220.738H239.029C239.076 221.354 239.305 221.849 239.715 222.222C240.126 222.595 240.63 222.782 241.227 222.782C242.086 222.782 242.693 222.423 243.047 221.704H244.769C244.536 222.413 244.111 222.997 243.495 223.454C242.889 223.902 242.133 224.126 241.227 224.126C240.49 224.126 239.827 223.963 239.239 223.636C238.661 223.3 238.203 222.833 237.867 222.236C237.541 221.629 237.377 220.929 237.377 220.136C237.377 219.343 237.536 218.647 237.853 218.05C238.18 217.443 238.633 216.977 239.211 216.65C239.799 216.323 240.471 216.16 241.227 216.16C241.955 216.16 242.604 216.319 243.173 216.636C243.743 216.953 244.186 217.401 244.503 217.98C244.821 218.549 244.979 219.207 244.979 219.954ZM243.313 219.45C243.304 218.862 243.094 218.391 242.683 218.036C242.273 217.681 241.764 217.504 241.157 217.504C240.607 217.504 240.135 217.681 239.743 218.036C239.351 218.381 239.118 218.853 239.043 219.45H243.313ZM248.146 217.406C248.379 217.014 248.687 216.711 249.07 216.496C249.462 216.272 249.924 216.16 250.456 216.16V217.812H250.05C249.425 217.812 248.949 217.971 248.622 218.288C248.305 218.605 248.146 219.156 248.146 219.94V224H246.55V216.286H248.146V217.406Z" fill="black"/>
<path d="M162.41 281.27V282.572H159.82V291H158.224V282.572H155.62V281.27H162.41ZM171.097 286.954C171.097 287.243 171.078 287.505 171.041 287.738H165.147C165.193 288.354 165.422 288.849 165.833 289.222C166.243 289.595 166.747 289.782 167.345 289.782C168.203 289.782 168.81 289.423 169.165 288.704H170.887C170.653 289.413 170.229 289.997 169.613 290.454C169.006 290.902 168.25 291.126 167.345 291.126C166.607 291.126 165.945 290.963 165.357 290.636C164.778 290.3 164.321 289.833 163.985 289.236C163.658 288.629 163.495 287.929 163.495 287.136C163.495 286.343 163.653 285.647 163.971 285.05C164.297 284.443 164.75 283.977 165.329 283.65C165.917 283.323 166.589 283.16 167.345 283.16C168.073 283.16 168.721 283.319 169.291 283.636C169.86 283.953 170.303 284.401 170.621 284.98C170.938 285.549 171.097 286.207 171.097 286.954ZM169.431 286.45C169.421 285.862 169.211 285.391 168.801 285.036C168.39 284.681 167.881 284.504 167.275 284.504C166.724 284.504 166.253 284.681 165.861 285.036C165.469 285.381 165.235 285.853 165.161 286.45H169.431ZM172.135 287.108C172.135 286.333 172.294 285.647 172.611 285.05C172.938 284.453 173.377 283.991 173.927 283.664C174.487 283.328 175.103 283.16 175.775 283.16C176.382 283.16 176.909 283.281 177.357 283.524C177.815 283.757 178.179 284.051 178.449 284.406V283.286H180.059V291H178.449V289.852C178.179 290.216 177.81 290.519 177.343 290.762C176.877 291.005 176.345 291.126 175.747 291.126C175.085 291.126 174.478 290.958 173.927 290.622C173.377 290.277 172.938 289.801 172.611 289.194C172.294 288.578 172.135 287.883 172.135 287.108ZM178.449 287.136C178.449 286.604 178.337 286.142 178.113 285.75C177.899 285.358 177.614 285.059 177.259 284.854C176.905 284.649 176.522 284.546 176.111 284.546C175.701 284.546 175.318 284.649 174.963 284.854C174.609 285.05 174.319 285.344 174.095 285.736C173.881 286.119 173.773 286.576 173.773 287.108C173.773 287.64 173.881 288.107 174.095 288.508C174.319 288.909 174.609 289.217 174.963 289.432C175.327 289.637 175.71 289.74 176.111 289.74C176.522 289.74 176.905 289.637 177.259 289.432C177.614 289.227 177.899 288.928 178.113 288.536C178.337 288.135 178.449 287.668 178.449 287.136ZM191.493 283.16C192.1 283.16 192.641 283.286 193.117 283.538C193.603 283.79 193.981 284.163 194.251 284.658C194.531 285.153 194.671 285.75 194.671 286.45V291H193.089V286.688C193.089 285.997 192.917 285.47 192.571 285.106C192.226 284.733 191.755 284.546 191.157 284.546C190.56 284.546 190.084 284.733 189.729 285.106C189.384 285.47 189.211 285.997 189.211 286.688V291H187.629V286.688C187.629 285.997 187.457 285.47 187.111 285.106C186.766 284.733 186.295 284.546 185.697 284.546C185.1 284.546 184.624 284.733 184.269 285.106C183.924 285.47 183.751 285.997 183.751 286.688V291H182.155V283.286H183.751V284.168C184.013 283.851 184.344 283.603 184.745 283.426C185.147 283.249 185.576 283.16 186.033 283.16C186.649 283.16 187.2 283.291 187.685 283.552C188.171 283.813 188.544 284.191 188.805 284.686C189.039 284.219 189.403 283.851 189.897 283.58C190.392 283.3 190.924 283.16 191.493 283.16ZM204.777 291.098C203.872 291.098 203.036 290.888 202.271 290.468C201.515 290.039 200.913 289.446 200.465 288.69C200.026 287.925 199.807 287.066 199.807 286.114C199.807 285.162 200.026 284.308 200.465 283.552C200.913 282.796 201.515 282.208 202.271 281.788C203.036 281.359 203.872 281.144 204.777 281.144C205.692 281.144 206.527 281.359 207.283 281.788C208.048 282.208 208.65 282.796 209.089 283.552C209.528 284.308 209.747 285.162 209.747 286.114C209.747 287.066 209.528 287.925 209.089 288.69C208.65 289.446 208.048 290.039 207.283 290.468C206.527 290.888 205.692 291.098 204.777 291.098ZM204.777 289.712C205.421 289.712 205.995 289.567 206.499 289.278C207.003 288.979 207.395 288.559 207.675 288.018C207.964 287.467 208.109 286.833 208.109 286.114C208.109 285.395 207.964 284.765 207.675 284.224C207.395 283.683 207.003 283.267 206.499 282.978C205.995 282.689 205.421 282.544 204.777 282.544C204.133 282.544 203.559 282.689 203.055 282.978C202.551 283.267 202.154 283.683 201.865 284.224C201.585 284.765 201.445 285.395 201.445 286.114C201.445 286.833 201.585 287.467 201.865 288.018C202.154 288.559 202.551 288.979 203.055 289.278C203.559 289.567 204.133 289.712 204.777 289.712ZM221.678 283.286L219.284 291H217.604L216.05 285.302L214.496 291H212.816L210.408 283.286H212.032L213.642 289.488L215.28 283.286H216.946L218.514 289.46L220.11 283.286H221.678ZM226.762 283.16C227.369 283.16 227.91 283.286 228.386 283.538C228.872 283.79 229.25 284.163 229.52 284.658C229.791 285.153 229.926 285.75 229.926 286.45V291H228.344V286.688C228.344 285.997 228.172 285.47 227.826 285.106C227.481 284.733 227.01 284.546 226.412 284.546C225.815 284.546 225.339 284.733 224.984 285.106C224.639 285.47 224.466 285.997 224.466 286.688V291H222.87V283.286H224.466V284.168C224.728 283.851 225.059 283.603 225.46 283.426C225.871 283.249 226.305 283.16 226.762 283.16ZM239.032 286.954C239.032 287.243 239.013 287.505 238.976 287.738H233.082C233.129 288.354 233.357 288.849 233.768 289.222C234.179 289.595 234.683 289.782 235.28 289.782C236.139 289.782 236.745 289.423 237.1 288.704H238.822C238.589 289.413 238.164 289.997 237.548 290.454C236.941 290.902 236.185 291.126 235.28 291.126C234.543 291.126 233.88 290.963 233.292 290.636C232.713 290.3 232.256 289.833 231.92 289.236C231.593 288.629 231.43 287.929 231.43 287.136C231.43 286.343 231.589 285.647 231.906 285.05C232.233 284.443 232.685 283.977 233.264 283.65C233.852 283.323 234.524 283.16 235.28 283.16C236.008 283.16 236.657 283.319 237.226 283.636C237.795 283.953 238.239 284.401 238.556 284.98C238.873 285.549 239.032 286.207 239.032 286.954ZM237.366 286.45C237.357 285.862 237.147 285.391 236.736 285.036C236.325 284.681 235.817 284.504 235.21 284.504C234.659 284.504 234.188 284.681 233.796 285.036C233.404 285.381 233.171 285.853 233.096 286.45H237.366ZM242.199 284.406C242.432 284.014 242.74 283.711 243.123 283.496C243.515 283.272 243.977 283.16 244.509 283.16V284.812H244.103C243.477 284.812 243.001 284.971 242.675 285.288C242.357 285.605 242.199 286.156 242.199 286.94V291H240.603V283.286H242.199V284.406Z" fill="black"/>
<path d="M180.981 356.012H176.907L176.207 358H174.541L178.027 348.256H179.875L183.361 358H181.681L180.981 356.012ZM180.533 354.71L178.951 350.188L177.355 354.71H180.533ZM188.769 350.16C189.376 350.16 189.917 350.286 190.393 350.538C190.878 350.79 191.256 351.163 191.527 351.658C191.798 352.153 191.933 352.75 191.933 353.45V358H190.351V353.688C190.351 352.997 190.178 352.47 189.833 352.106C189.488 351.733 189.016 351.546 188.419 351.546C187.822 351.546 187.346 351.733 186.991 352.106C186.646 352.47 186.473 352.997 186.473 353.688V358H184.877V350.286H186.473V351.168C186.734 350.851 187.066 350.603 187.467 350.426C187.878 350.249 188.312 350.16 188.769 350.16ZM193.437 354.108C193.437 353.333 193.596 352.647 193.913 352.05C194.24 351.453 194.678 350.991 195.229 350.664C195.789 350.328 196.405 350.16 197.077 350.16C197.684 350.16 198.211 350.281 198.659 350.524C199.116 350.757 199.48 351.051 199.751 351.406V350.286H201.361V358H199.751V356.852C199.48 357.216 199.112 357.519 198.645 357.762C198.178 358.005 197.646 358.126 197.049 358.126C196.386 358.126 195.78 357.958 195.229 357.622C194.678 357.277 194.24 356.801 193.913 356.194C193.596 355.578 193.437 354.883 193.437 354.108ZM199.751 354.136C199.751 353.604 199.639 353.142 199.415 352.75C199.2 352.358 198.916 352.059 198.561 351.854C198.206 351.649 197.824 351.546 197.413 351.546C197.002 351.546 196.62 351.649 196.265 351.854C195.91 352.05 195.621 352.344 195.397 352.736C195.182 353.119 195.075 353.576 195.075 354.108C195.075 354.64 195.182 355.107 195.397 355.508C195.621 355.909 195.91 356.217 196.265 356.432C196.629 356.637 197.012 356.74 197.413 356.74C197.824 356.74 198.206 356.637 198.561 356.432C198.916 356.227 199.2 355.928 199.415 355.536C199.639 355.135 199.751 354.668 199.751 354.136ZM205.053 347.64V358H203.457V347.64H205.053ZM214.093 350.286L209.361 361.626H207.709L209.277 357.874L206.239 350.286H208.017L210.187 356.166L212.441 350.286H214.093ZM218.097 358.126C217.49 358.126 216.944 358.019 216.459 357.804C215.983 357.58 215.605 357.281 215.325 356.908C215.045 356.525 214.896 356.101 214.877 355.634H216.529C216.557 355.961 216.711 356.236 216.991 356.46C217.28 356.675 217.64 356.782 218.069 356.782C218.517 356.782 218.862 356.698 219.105 356.53C219.357 356.353 219.483 356.129 219.483 355.858C219.483 355.569 219.343 355.354 219.063 355.214C218.792 355.074 218.358 354.92 217.761 354.752C217.182 354.593 216.711 354.439 216.347 354.29C215.983 354.141 215.666 353.912 215.395 353.604C215.134 353.296 215.003 352.89 215.003 352.386C215.003 351.975 215.124 351.602 215.367 351.266C215.61 350.921 215.955 350.65 216.403 350.454C216.86 350.258 217.383 350.16 217.971 350.16C218.848 350.16 219.553 350.384 220.085 350.832C220.626 351.271 220.916 351.873 220.953 352.638H219.357C219.329 352.293 219.189 352.017 218.937 351.812C218.685 351.607 218.344 351.504 217.915 351.504C217.495 351.504 217.173 351.583 216.949 351.742C216.725 351.901 216.613 352.111 216.613 352.372C216.613 352.577 216.688 352.75 216.837 352.89C216.986 353.03 217.168 353.142 217.383 353.226C217.598 353.301 217.915 353.399 218.335 353.52C218.895 353.669 219.352 353.823 219.707 353.982C220.071 354.131 220.384 354.355 220.645 354.654C220.906 354.953 221.042 355.349 221.051 355.844C221.051 356.283 220.93 356.675 220.687 357.02C220.444 357.365 220.099 357.636 219.651 357.832C219.212 358.028 218.694 358.126 218.097 358.126ZM224.638 351.588V355.858C224.638 356.147 224.703 356.357 224.834 356.488C224.974 356.609 225.207 356.67 225.534 356.67H226.514V358H225.254C224.535 358 223.984 357.832 223.602 357.496C223.219 357.16 223.028 356.614 223.028 355.858V351.588H222.118V350.286H223.028V348.368H224.638V350.286H226.514V351.588H224.638Z" fill="black"/>
</g>
<defs>
<radialGradient id="paint0_radial_160_3035" cx="0" cy="0" r="1" gradientUnits="userSpaceOnUse" gradientTransform="translate(47 973) rotate(90) scale(539)">
<stop stop-color="#FFA551"/>
<stop offset="1" stop-color="white" stop-opacity="0"/>
</radialGradient>
<radialGradient id="paint1_radial_160_3035" cx="0" cy="0" r="1" gradientUnits="userSpaceOnUse" gradientTransform="translate(766 -84) rotate(90) scale(539)">
<stop stop-color="#FFA551"/>
<stop offset="1" stop-color="white" stop-opacity="0"/>
</radialGradient>
<clipPath id="clip0_160_3035">
<rect width="756" height="982" fill="white"/>
</clipPath>
</defs>
</svg>
